<?xml version="1.0" encoding="UTF-8" standalone="no"?><svg xmlns="http://www.w3.org/2000/svg" xmlns:xlink="http://www.w3.org/1999/xlink" contentScriptType="application/ecmascript" contentStyleType="text/css" height="262px" preserveAspectRatio="none" style="width:564px;height:262px;" version="1.1" viewBox="0 0 564 262" width="564px" zoomAndPan="magnify"><defs><filter height="300%" id="fwubtfdzfw23s" width="300%" x="-1" y="-1"><feGaussianBlur result="blurOut" stdDeviation="2.0"/><feColorMatrix in="blurOut" result="blurOut2" type="matrix" values="0 0 0 0 0 0 0 0 0 0 0 0 0 0 0 0 0 0 .4 0"/><feOffset dx="4.0" dy="4.0" in="blurOut2" result="blurOut3"/><feBlend in="SourceGraphic" in2="blurOut3" mode="normal"/></filter></defs><g><ellipse cx="16" cy="92" fill="#000000" filter="url(#fwubtfdzfw23s)" rx="10" ry="10" style="stroke:none;stroke-width:1.0;"/><rect fill="#FEFECE" filter="url(#fwubtfdzfw23s)" height="36.3441" rx="12.5" ry="12.5" style="stroke:#A80036;stroke-width:1.5;" width="131" x="46.5" y="74"/><text fill="#000000" font-family="sans-serif" font-size="12" lengthAdjust="spacing" textLength="111" x="56.5" y="96.8281">Issue Carbon Token</text><path d="M53.5,6 L53.5,33.706 A0,0 0 0 0 53.5,33.706 L108,33.706 L112,73.92 L116,33.706 L170.5,33.706 A0,0 0 0 0 170.5,33.706 L170.5,16 L160.5,6 L53.5,6 A0,0 0 0 0 53.5,6 " fill="#FBFB77" filter="url(#fwubtfdzfw23s)" style="stroke:#A80036;stroke-width:1.0;"/><path d="M160.5,6 L160.5,16 L170.5,16 L160.5,6 " fill="#FBFB77" style="stroke:#A80036;stroke-width:1.0;"/><text fill="#000000" font-family="sans-serif" font-size="13" lengthAdjust="spacing" textLength="96" x="59.5" y="24.897">Token Template</text><path d="M56.5,154 L56.5,181.706 A0,0 0 0 0 56.5,181.706 L167.5,181.706 A0,0 0 0 0 167.5,181.706 L167.5,164 L157.5,154 L116,154 L112,110.16 L108,154 L56.5,154 A0,0 0 0 0 56.5,154 " fill="#FBFB77" filter="url(#fwubtfdzfw23s)" style="stroke:#A80036;stroke-width:1.0;"/><path d="M157.5,154 L157.5,164 L167.5,164 L157.5,154 " fill="#FBFB77" style="stroke:#A80036;stroke-width:1.0;"/><text fill="#000000" font-family="sans-serif" font-size="13" lengthAdjust="spacing" textLength="90" x="62.5" y="172.897">Policy Contract</text><rect fill="#FEFECE" filter="url(#fwubtfdzfw23s)" height="36.3441" rx="12.5" ry="12.5" style="stroke:#A80036;stroke-width:1.5;" width="146" x="198" y="74"/><text fill="#000000" font-family="sans-serif" font-size="12" lengthAdjust="spacing" textLength="126" x="208" y="96.8281">Allocate Carbon Token</text><path d="M212.5,154 L212.5,181.706 A0,0 0 0 0 212.5,181.706 L329.5,181.706 A0,0 0 0 0 329.5,181.706 L329.5,164 L319.5,154 L275,154 L271,110.16 L267,154 L212.5,154 A0,0 0 0 0 212.5,154 " fill="#FBFB77" filter="url(#fwubtfdzfw23s)" style="stroke:#A80036;stroke-width:1.0;"/><path d="M319.5,154 L319.5,164 L329.5,164 L319.5,154 " fill="#FBFB77" style="stroke:#A80036;stroke-width:1.0;"/><text fill="#000000" font-family="sans-serif" font-size="13" lengthAdjust="spacing" textLength="96" x="218.5" y="172.897">Token Registery</text><rect fill="#FEFECE" filter="url(#fwubtfdzfw23s)" height="36.3441" rx="12.5" ry="12.5" style="stroke:#A80036;stroke-width:1.5;" width="149" x="364.5" y="74"/><text fill="#000000" font-family="sans-serif" font-size="12" lengthAdjust="spacing" textLength="129" x="374.5" y="96.8281">Transfer Carbon Token</text><path d="M392.5,6 L392.5,33.706 A0,0 0 0 0 392.5,33.706 L435,33.706 L439,73.92 L443,33.706 L485.5,33.706 A0,0 0 0 0 485.5,33.706 L485.5,16 L475.5,6 L392.5,6 A0,0 0 0 0 392.5,6 " fill="#FBFB77" filter="url(#fwubtfdzfw23s)" style="stroke:#A80036;stroke-width:1.0;"/><path d="M475.5,6 L475.5,16 L485.5,16 L475.5,6 " fill="#FBFB77" style="stroke:#A80036;stroke-width:1.0;"/><text fill="#000000" font-family="sans-serif" font-size="13" lengthAdjust="spacing" textLength="72" x="398.5" y="24.897">Token Swap</text><rect fill="#FEFECE" filter="url(#fwubtfdzfw23s)" height="36.3441" rx="12.5" ry="12.5" style="stroke:#A80036;stroke-width:1.5;" width="145" x="366.5" y="150"/><text fill="#000000" font-family="sans-serif" font-size="12" lengthAdjust="spacing" textLength="125" x="376.5" y="172.8281">Destroy Carbon Token</text><path d="M387.5,226 L387.5,253.706 A0,0 0 0 0 387.5,253.706 L490.5,253.706 A0,0 0 0 0 490.5,253.706 L490.5,236 L480.5,226 L443,226 L439,186.3 L435,226 L387.5,226 A0,0 0 0 0 387.5,226 " fill="#FBFB77" filter="url(#fwubtfdzfw23s)" style="stroke:#A80036;stroke-width:1.0;"/><path d="M480.5,226 L480.5,236 L490.5,236 L480.5,226 " fill="#FBFB77" style="stroke:#A80036;stroke-width:1.0;"/><text fill="#000000" font-family="sans-serif" font-size="13" lengthAdjust="spacing" textLength="82" x="393.5" y="244.897">Burned token</text><ellipse cx="542" cy="168" fill="none" filter="url(#fwubtfdzfw23s)" rx="10" ry="10" style="stroke:#000000;stroke-width:1.0;"/><ellipse cx="542.5" cy="168.5" fill="#000000" rx="6" ry="6" style="stroke:none;stroke-width:1.0;"/><!--MD5=[1a1f6b075ee268373168d2d5fa3acf16]
link start to Issue Carbon Token--><path d="M26.12,92 C31.16,92 36.19,92 41.22,92 " fill="none" id="start-to-Issue Carbon Token" style="stroke:#A80036;stroke-width:1.0;"/><polygon fill="#A80036" points="46.25,92,37.25,88,41.25,92,37.25,96,46.25,92" style="stroke:#A80036;stroke-width:1.0;"/><!--MD5=[4bc7415ed7116d84dc815f035db25e49]
link Issue Carbon Token to Allocate Carbon Token--><path d="M177.53,92 C182.64,92 187.75,92 192.86,92 " fill="none" id="Issue Carbon Token-to-Allocate Carbon Token" style="stroke:#A80036;stroke-width:1.0;"/><polygon fill="#A80036" points="197.97,92,188.97,88,192.97,92,188.97,96,197.97,92" style="stroke:#A80036;stroke-width:1.0;"/><!--MD5=[e520b0ece992946e3241715fc4e9595f]
link Allocate Carbon Token to T--><path d="M344.17,92 C349.17,92 354.17,92 359.17,92 " fill="none" id="Allocate Carbon Token-to-T" style="stroke:#A80036;stroke-width:1.0;"/><polygon fill="#A80036" points="364.17,92,355.17,88,359.17,92,355.17,96,364.17,92" style="stroke:#A80036;stroke-width:1.0;"/><!--MD5=[caefa9518f618cfd81b22ced0c9bda61]
link T to T--><path d="M513.86,79.63 C525.54,81.48 533.5,85.6 533.5,92 C533.5,97.4 527.83,101.18 519.05,103.34 " fill="none" id="T-to-T" style="stroke:#A80036;stroke-width:1.0;"/><polygon fill="#A80036" points="513.86,104.37,523.4721,106.5165,518.7618,103.3839,521.8944,98.6736,513.86,104.37" style="stroke:#A80036;stroke-width:1.0;"/><!--MD5=[2eb2447e5a5ca832992678560d310dd9]
link T to Destroy Carbon Token--><path d="M439,110.16 C439,120.44 439,133.61 439,144.68 " fill="none" id="T-to-Destroy Carbon Token" style="stroke:#A80036;stroke-width:1.0;"/><polygon fill="#A80036" points="439,149.93,443,140.93,439,144.93,435,140.93,439,149.93" style="stroke:#A80036;stroke-width:1.0;"/><!--MD5=[1df8a31cb222a07d5683ab92228f1e17]
link Destroy Carbon Token to end--><path d="M511.82,168 C516.67,168 521.52,168 526.37,168 " fill="none" id="Destroy Carbon Token-to-end" style="stroke:#A80036;stroke-width:1.0;"/><polygon fill="#A80036" points="531.63,168,522.63,164,526.63,168,522.63,172,531.63,168" style="stroke:#A80036;stroke-width:1.0;"/><!--MD5=[a1291706875389babbe40e22d130d438]
@startuml Token

(*) -right-> "Issue Carbon Token"
note top: Token Template
note bottom: Policy Contract
-right-> "Allocate Carbon Token"
note bottom: Token Registery
-right-> "Transfer Carbon Token" as T
note top: Token Swap
-down-> T
-down-> "Destroy Carbon Token"
note bottom: Burned token
-right-> (*)
@enduml

PlantUML version 1.2021.00(Sun Jan 10 21:25:05 AEDT 2021)
(GPL source distribution)
Java Runtime: OpenJDK Runtime Environment
JVM: OpenJDK 64-Bit Server VM
Default Encoding: UTF-8
Language: en
Country: US
--></g></svg>