<?xml version="1.0" encoding="UTF-8" standalone="no"?><svg xmlns="http://www.w3.org/2000/svg" xmlns:xlink="http://www.w3.org/1999/xlink" contentScriptType="application/ecmascript" contentStyleType="text/css" height="253px" preserveAspectRatio="none" style="width:577px;height:253px;" version="1.1" viewBox="0 0 577 253" width="577px" zoomAndPan="magnify"><defs><filter height="300%" id="fwubtfdzfw23s" width="300%" x="-1" y="-1"><feGaussianBlur result="blurOut" stdDeviation="2.0"/><feColorMatrix in="blurOut" result="blurOut2" type="matrix" values="0 0 0 0 0 0 0 0 0 0 0 0 0 0 0 0 0 0 .4 0"/><feOffset dx="4.0" dy="4.0" in="blurOut2" result="blurOut3"/><feBlend in="SourceGraphic" in2="blurOut3" mode="normal"/></filter></defs><g><ellipse cx="16" cy="88" fill="#000000" filter="url(#fwubtfdzfw23s)" rx="10" ry="10" style="stroke:none;stroke-width:1.0;"/><rect fill="#FEFECE" filter="url(#fwubtfdzfw23s)" height="34.1328" rx="12.5" ry="12.5" style="stroke:#A80036;stroke-width:1.5;" width="135" x="46.5" y="71"/><text fill="#000000" font-family="sans-serif" font-size="12" lengthAdjust="spacing" textLength="115" x="56.5" y="92.6016">Issue Carbon Token</text><path d="M53,6 L53,31.3105 A0,0 0 0 0 53,31.3105 L110,31.3105 L114,70.57 L118,31.3105 L175,31.3105 A0,0 0 0 0 175,31.3105 L175,16 L165,6 L53,6 A0,0 0 0 0 53,6 " fill="#FBFB77" filter="url(#fwubtfdzfw23s)" style="stroke:#A80036;stroke-width:1.0;"/><path d="M165,6 L165,16 L175,16 L165,6 " fill="#FBFB77" style="stroke:#A80036;stroke-width:1.0;"/><text fill="#000000" font-family="sans-serif" font-size="13" lengthAdjust="spacing" textLength="101" x="59" y="23.5684">Token Template</text><path d="M56,149.5 L56,174.8105 A0,0 0 0 0 56,174.8105 L172,174.8105 A0,0 0 0 0 172,174.8105 L172,159.5 L162,149.5 L118,149.5 L114,105.34 L110,149.5 L56,149.5 A0,0 0 0 0 56,149.5 " fill="#FBFB77" filter="url(#fwubtfdzfw23s)" style="stroke:#A80036;stroke-width:1.0;"/><path d="M162,149.5 L162,159.5 L172,159.5 L162,149.5 " fill="#FBFB77" style="stroke:#A80036;stroke-width:1.0;"/><text fill="#000000" font-family="sans-serif" font-size="13" lengthAdjust="spacing" textLength="95" x="62" y="167.0684">Policy Contract</text><rect fill="#FEFECE" filter="url(#fwubtfdzfw23s)" height="34.1328" rx="12.5" ry="12.5" style="stroke:#A80036;stroke-width:1.5;" width="151" x="201.5" y="71"/><text fill="#000000" font-family="sans-serif" font-size="12" lengthAdjust="spacing" textLength="131" x="211.5" y="92.6016">Allocate Carbon Token</text><path d="M216,149.5 L216,174.8105 A0,0 0 0 0 216,174.8105 L338,174.8105 A0,0 0 0 0 338,174.8105 L338,159.5 L328,149.5 L281,149.5 L277,105.34 L273,149.5 L216,149.5 A0,0 0 0 0 216,149.5 " fill="#FBFB77" filter="url(#fwubtfdzfw23s)" style="stroke:#A80036;stroke-width:1.0;"/><path d="M328,149.5 L328,159.5 L338,159.5 L328,149.5 " fill="#FBFB77" style="stroke:#A80036;stroke-width:1.0;"/><text fill="#000000" font-family="sans-serif" font-size="13" lengthAdjust="spacing" textLength="101" x="222" y="167.0684">Token Registery</text><rect fill="#FEFECE" filter="url(#fwubtfdzfw23s)" height="34.1328" rx="12.5" ry="12.5" style="stroke:#A80036;stroke-width:1.5;" width="155" x="372.5" y="71"/><text fill="#000000" font-family="sans-serif" font-size="12" lengthAdjust="spacing" textLength="135" x="382.5" y="92.6016">Transfer Carbon Token</text><path d="M402,6 L402,31.3105 A0,0 0 0 0 402,31.3105 L446,31.3105 L450,70.57 L454,31.3105 L498,31.3105 A0,0 0 0 0 498,31.3105 L498,16 L488,6 L402,6 A0,0 0 0 0 402,6 " fill="#FBFB77" filter="url(#fwubtfdzfw23s)" style="stroke:#A80036;stroke-width:1.0;"/><path d="M488,6 L488,16 L498,16 L488,6 " fill="#FBFB77" style="stroke:#A80036;stroke-width:1.0;"/><text fill="#000000" font-family="sans-serif" font-size="13" lengthAdjust="spacing" textLength="75" x="408" y="23.5684">Token Swap</text><rect fill="#FEFECE" filter="url(#fwubtfdzfw23s)" height="34.1328" rx="12.5" ry="12.5" style="stroke:#A80036;stroke-width:1.5;" width="150" x="375" y="145"/><text fill="#000000" font-family="sans-serif" font-size="12" lengthAdjust="spacing" textLength="130" x="385" y="166.6016">Destroy Carbon Token</text><path d="M398,219 L398,244.3105 A0,0 0 0 0 398,244.3105 L502,244.3105 A0,0 0 0 0 502,244.3105 L502,229 L492,219 L454,219 L450,179.34 L446,219 L398,219 A0,0 0 0 0 398,219 " fill="#FBFB77" filter="url(#fwubtfdzfw23s)" style="stroke:#A80036;stroke-width:1.0;"/><path d="M492,219 L492,229 L502,229 L492,219 " fill="#FBFB77" style="stroke:#A80036;stroke-width:1.0;"/><text fill="#000000" font-family="sans-serif" font-size="13" lengthAdjust="spacing" textLength="83" x="404" y="236.5684">Burned token</text><ellipse cx="555" cy="162" fill="none" filter="url(#fwubtfdzfw23s)" rx="10" ry="10" style="stroke:#000000;stroke-width:1.0;"/><ellipse cx="555.5" cy="162.5" fill="#000000" rx="6" ry="6" style="stroke:none;stroke-width:1.0;"/><!--MD5=[1a1f6b075ee268373168d2d5fa3acf16]
link start to Issue Carbon Token--><path d="M26.34,88 C31.2,88 36.06,88 40.92,88 " fill="none" id="start-to-Issue Carbon Token" style="stroke:#A80036;stroke-width:1.0;"/><polygon fill="#A80036" points="46.2,88,37.2,84,41.2,88,37.2,92,46.2,88" style="stroke:#A80036;stroke-width:1.0;"/><!--MD5=[4bc7415ed7116d84dc815f035db25e49]
link Issue Carbon Token to Allocate Carbon Token--><path d="M181.81,88 C186.54,88 191.28,88 196.01,88 " fill="none" id="Issue Carbon Token-to-Allocate Carbon Token" style="stroke:#A80036;stroke-width:1.0;"/><polygon fill="#A80036" points="201.15,88,192.15,84,196.15,88,192.15,92,201.15,88" style="stroke:#A80036;stroke-width:1.0;"/><!--MD5=[e520b0ece992946e3241715fc4e9595f]
link Allocate Carbon Token to T--><path d="M352.69,88 C357.53,88 362.36,88 367.2,88 " fill="none" id="Allocate Carbon Token-to-T" style="stroke:#A80036;stroke-width:1.0;"/><polygon fill="#A80036" points="372.45,88,363.45,84,367.45,88,363.45,92,372.45,88" style="stroke:#A80036;stroke-width:1.0;"/><!--MD5=[caefa9518f618cfd81b22ced0c9bda61]
link T to T--><path d="M527.64,76.37 C539.47,78.15 547.5,82.02 547.5,88 C547.5,93.04 541.78,96.59 532.89,98.64 " fill="none" id="T-to-T" style="stroke:#A80036;stroke-width:1.0;"/><polygon fill="#A80036" points="527.64,99.63,537.2198,101.9163,532.5557,98.7155,535.7565,94.0513,527.64,99.63" style="stroke:#A80036;stroke-width:1.0;"/><!--MD5=[2eb2447e5a5ca832992678560d310dd9]
link T to Destroy Carbon Token--><path d="M450,105.34 C450,115.46 450,128.58 450,139.54 " fill="none" id="T-to-Destroy Carbon Token" style="stroke:#A80036;stroke-width:1.0;"/><polygon fill="#A80036" points="450,144.73,454,135.73,450,139.73,446,135.73,450,144.73" style="stroke:#A80036;stroke-width:1.0;"/><!--MD5=[1df8a31cb222a07d5683ab92228f1e17]
link Destroy Carbon Token to end--><path d="M525.06,162 C529.87,162 534.68,162 539.49,162 " fill="none" id="Destroy Carbon Token-to-end" style="stroke:#A80036;stroke-width:1.0;"/><polygon fill="#A80036" points="544.71,162,535.71,158,539.71,162,535.71,166,544.71,162" style="stroke:#A80036;stroke-width:1.0;"/><!--MD5=[f5589029bbdc1b2989d071b9e0d14a08]
@startuml Token

(*) -right-> "Issue Carbon Token"
note top: Token Template
note bottom: Policy Contract
-right-> "Allocate Carbon Token"
note bottom: Token Registery
-right-> "Transfer Carbon Token" as T
note top: Token Swap
-down-> T
-down-> "Destroy Carbon Token"
note bottom: Burned token
-right-> (*)
@enduml

PlantUML version 1.2021.00(Sun Jan 10 21:25:05 AEDT 2021)
(GPL source distribution)
Java Runtime: OpenJDK Runtime Environment
JVM: OpenJDK 64-Bit Server VM
Default Encoding: UTF-8
Language: en
Country: AU
--></g></svg>