<?xml version="1.0" encoding="UTF-8" standalone="no"?><svg xmlns="http://www.w3.org/2000/svg" xmlns:xlink="http://www.w3.org/1999/xlink" contentScriptType="application/ecmascript" contentStyleType="text/css" height="575px" preserveAspectRatio="none" style="width:910px;height:575px;" version="1.1" viewBox="0 0 910 575" width="910px" zoomAndPan="magnify"><defs><filter height="300%" id="fpqht4wuzocgb" width="300%" x="-1" y="-1"><feGaussianBlur result="blurOut" stdDeviation="2.0"/><feColorMatrix in="blurOut" result="blurOut2" type="matrix" values="0 0 0 0 0 0 0 0 0 0 0 0 0 0 0 0 0 0 .4 0"/><feOffset dx="4.0" dy="4.0" in="blurOut2" result="blurOut3"/><feBlend in="SourceGraphic" in2="blurOut3" mode="normal"/></filter></defs><g><rect fill="#FFFFFF" filter="url(#fpqht4wuzocgb)" height="327.8842" style="stroke:#A80036;stroke-width:1.0;" width="10" x="235" y="142.4799"/><rect fill="#FFFFFF" filter="url(#fpqht4wuzocgb)" height="229.0602" style="stroke:#A80036;stroke-width:1.0;" width="10" x="372" y="209.598"/><rect fill="#FFFFFF" filter="url(#fpqht4wuzocgb)" height="89.8241" style="stroke:#A80036;stroke-width:1.0;" width="10" x="489" y="299.4221"/><line style="stroke:#A80036;stroke-width:1.0;stroke-dasharray:5.0,5.0;" x1="73" x2="73" y1="91.0679" y2="488.3642"/><line style="stroke:#A80036;stroke-width:1.0;stroke-dasharray:5.0,5.0;" x1="240" x2="240" y1="91.0679" y2="488.3642"/><line style="stroke:#A80036;stroke-width:1.0;stroke-dasharray:5.0,5.0;" x1="377" x2="377" y1="91.0679" y2="488.3642"/><line style="stroke:#A80036;stroke-width:1.0;stroke-dasharray:5.0,5.0;" x1="494" x2="494" y1="91.0679" y2="488.3642"/><text fill="#000000" font-family="sans-serif" font-size="14" lengthAdjust="spacing" text-decoration="underline" textLength="131" x="5" y="86.9659">Hydrogen Producer</text><ellipse cx="73.5" cy="15" fill="#FEFECE" filter="url(#fpqht4wuzocgb)" rx="8" ry="8" style="stroke:#A80036;stroke-width:2.0;"/><path d="M73.5,23 L73.5,50 M60.5,31 L86.5,31 M73.5,50 L60.5,65 M73.5,50 L86.5,65 " fill="none" filter="url(#fpqht4wuzocgb)" style="stroke:#A80036;stroke-width:2.0;"/><text fill="#000000" font-family="sans-serif" font-size="14" lengthAdjust="spacing" text-decoration="underline" textLength="131" x="5" y="502.3301">Hydrogen Producer</text><ellipse cx="73.5" cy="516.4321" fill="#FEFECE" filter="url(#fpqht4wuzocgb)" rx="8" ry="8" style="stroke:#A80036;stroke-width:2.0;"/><path d="M73.5,524.4321 L73.5,551.4321 M60.5,532.4321 L86.5,532.4321 M73.5,551.4321 L60.5,566.4321 M73.5,551.4321 L86.5,566.4321 " fill="none" filter="url(#fpqht4wuzocgb)" style="stroke:#A80036;stroke-width:2.0;"/><rect fill="#FEFECE" filter="url(#fpqht4wuzocgb)" height="33.0679" rx="10" ry="10" style="stroke:#A80036;stroke-width:1.5;" width="172" x="152" y="53"/><text fill="#000000" font-family="sans-serif" font-size="14" lengthAdjust="spacing" text-decoration="underline" textLength="158" x="159" y="74.9659">Carbon Market Website</text><rect fill="#FEFECE" filter="url(#fpqht4wuzocgb)" height="33.0679" rx="10" ry="10" style="stroke:#A80036;stroke-width:1.5;" width="172" x="152" y="487.3642"/><text fill="#000000" font-family="sans-serif" font-size="14" lengthAdjust="spacing" text-decoration="underline" textLength="158" x="159" y="509.3301">Carbon Market Website</text><rect fill="#FEFECE" filter="url(#fpqht4wuzocgb)" height="33.0679" rx="10" ry="10" style="stroke:#A80036;stroke-width:1.5;" width="74" x="338" y="53"/><text fill="#000000" font-family="sans-serif" font-size="14" lengthAdjust="spacing" text-decoration="underline" textLength="60" x="345" y="74.9659">HTTP API</text><rect fill="#FEFECE" filter="url(#fpqht4wuzocgb)" height="33.0679" rx="10" ry="10" style="stroke:#A80036;stroke-width:1.5;" width="74" x="338" y="487.3642"/><text fill="#000000" font-family="sans-serif" font-size="14" lengthAdjust="spacing" text-decoration="underline" textLength="60" x="345" y="509.3301">HTTP API</text><text fill="#000000" font-family="sans-serif" font-size="14" lengthAdjust="spacing" text-decoration="underline" textLength="130" x="426" y="86.9659">Off-chain Database</text><path d="M476,36 C476,26 494,26 494,26 C494,26 512,26 512,36 L512,62 C512,72 494,72 494,72 C494,72 476,72 476,62 L476,36 " fill="#FEFECE" filter="url(#fpqht4wuzocgb)" style="stroke:#000000;stroke-width:1.5;"/><path d="M476,36 C476,46 494,46 494,46 C494,46 512,46 512,36 " fill="none" style="stroke:#000000;stroke-width:1.5;"/><text fill="#000000" font-family="sans-serif" font-size="14" lengthAdjust="spacing" text-decoration="underline" textLength="130" x="426" y="502.3301">Off-chain Database</text><path d="M476,516.4321 C476,506.4321 494,506.4321 494,506.4321 C494,506.4321 512,506.4321 512,516.4321 L512,542.4321 C512,552.4321 494,552.4321 494,552.4321 C494,552.4321 476,552.4321 476,542.4321 L476,516.4321 " fill="#FEFECE" filter="url(#fpqht4wuzocgb)" style="stroke:#000000;stroke-width:1.5;"/><path d="M476,516.4321 C476,526.4321 494,526.4321 494,526.4321 C494,526.4321 512,526.4321 512,516.4321 " fill="none" style="stroke:#000000;stroke-width:1.5;"/><rect fill="#FFFFFF" filter="url(#fpqht4wuzocgb)" height="327.8842" style="stroke:#A80036;stroke-width:1.0;" width="10" x="235" y="142.4799"/><rect fill="#FFFFFF" filter="url(#fpqht4wuzocgb)" height="229.0602" style="stroke:#A80036;stroke-width:1.0;" width="10" x="372" y="209.598"/><rect fill="#FFFFFF" filter="url(#fpqht4wuzocgb)" height="89.8241" style="stroke:#A80036;stroke-width:1.0;" width="10" x="489" y="299.4221"/><polygon fill="#A80036" points="223,138.4799,233,142.4799,223,146.4799,227,142.4799" style="stroke:#A80036;stroke-width:1.0;"/><line style="stroke:#A80036;stroke-width:2.0;" x1="73.5" x2="229" y1="142.4799" y2="142.4799"/><text fill="#000000" font-family="sans-serif" font-size="13" lengthAdjust="spacing" textLength="49" x="80.5" y="118.9649">Request</text><text fill="#000000" font-family="sans-serif" font-size="13" lengthAdjust="spacing" textLength="34" x="80.5" y="136.6709">Login</text><polygon fill="#A80036" points="360,205.598,370,209.598,360,213.598,364,209.598" style="stroke:#A80036;stroke-width:1.0;"/><line style="stroke:#A80036;stroke-width:2.0;" x1="245" x2="366" y1="209.598" y2="209.598"/><text fill="#000000" font-family="sans-serif" font-size="13" lengthAdjust="spacing" textLength="34" x="252" y="168.377">Login</text><text fill="#000000" font-family="sans-serif" font-size="13" lengthAdjust="spacing" textLength="32" x="252" y="186.083">HTTP</text><text fill="#000000" font-family="sans-serif" font-size="13" lengthAdjust="spacing" textLength="49" x="252" y="203.789">Request</text><polygon fill="#A80036" points="477,295.4221,487,299.4221,477,303.4221,481,299.4221" style="stroke:#A80036;stroke-width:1.0;"/><line style="stroke:#A80036;stroke-width:2.0;" x1="382" x2="483" y1="299.4221" y2="299.4221"/><text fill="#000000" font-family="sans-serif" font-size="13" lengthAdjust="spacing" textLength="36" x="389" y="275.907">Check</text><text fill="#000000" font-family="sans-serif" font-size="13" lengthAdjust="spacing" textLength="67" x="389" y="293.6131">Credentials</text><path d="M504,232.598 L504,328.598 A10,10 0 0 0 514,338.598 L881,338.598 A10,10 0 0 0 891,328.598 L891,232.598 L881,222.598 L514,222.598 A10,10 0 0 0 504,232.598 " fill="#FBFB77" filter="url(#fpqht4wuzocgb)" style="stroke:#A80036;stroke-width:1.0;"/><path d="M881,222.598 L881,227.598 A5,5 0 0 0 886,232.598 L891,232.598 L881,222.598 " fill="#FBFB77" style="stroke:#A80036;stroke-width:1.0;"/><text fill="#000000" font-family="sans-serif" font-size="13" lengthAdjust="spacing" textLength="305" x="510" y="241.495">NB: Potential to hold user credential information as</text><text fill="#000000" font-family="sans-serif" font-size="13" lengthAdjust="spacing" textLength="277" x="510" y="259.201">private data held on the carbon market nodes.</text><text fill="#000000" font-family="sans-serif" font-size="13" lengthAdjust="spacing" textLength="325" x="510" y="276.907">Hyperledger as of 2.2 supports rich querying of private</text><text fill="#000000" font-family="sans-serif" font-size="13" lengthAdjust="spacing" textLength="363" x="510" y="294.6131">data using CouchDB, making the checking of user credentials</text><text fill="#000000" font-family="sans-serif" font-size="13" lengthAdjust="spacing" textLength="95" x="510" y="312.3191">a trivial process.</text><text fill="#000000" font-family="sans-serif" font-size="13" lengthAdjust="spacing" textLength="353" x="510" y="330.0251">Question of how much data to have off-chain and on-chain.</text><polygon fill="#A80036" points="393,385.2461,383,389.2461,393,393.2461,389,389.2461" style="stroke:#A80036;stroke-width:1.0;"/><line style="stroke:#A80036;stroke-width:2.0;stroke-dasharray:2.0,2.0;" x1="387" x2="493" y1="389.2461" y2="389.2461"/><text fill="#000000" font-family="sans-serif" font-size="13" lengthAdjust="spacing" textLength="41" x="399" y="365.7311">Return</text><text fill="#000000" font-family="sans-serif" font-size="13" lengthAdjust="spacing" textLength="34" x="399" y="383.4371">result</text><polygon fill="#A80036" points="256,434.6582,246,438.6582,256,442.6582,252,438.6582" style="stroke:#A80036;stroke-width:1.0;"/><line style="stroke:#A80036;stroke-width:2.0;stroke-dasharray:2.0,2.0;" x1="250" x2="376" y1="438.6582" y2="438.6582"/><text fill="#000000" font-family="sans-serif" font-size="13" lengthAdjust="spacing" textLength="61" x="262" y="415.1431">Credential</text><text fill="#000000" font-family="sans-serif" font-size="13" lengthAdjust="spacing" textLength="34" x="262" y="432.8492">result</text><polygon fill="#A80036" points="84.5,466.3642,74.5,470.3642,84.5,474.3642,80.5,470.3642" style="stroke:#A80036;stroke-width:1.0;"/><line style="stroke:#A80036;stroke-width:2.0;stroke-dasharray:2.0,2.0;" x1="78.5" x2="239" y1="470.3642" y2="470.3642"/><text fill="#000000" font-family="sans-serif" font-size="13" lengthAdjust="spacing" textLength="32" x="90.5" y="464.5552">Done</text><!--MD5=[c56314760ed73cbdd8139962118f77c8]
@startuml Login
skinparam sequenceArrowThickness 2
skinparam roundcorner 20
skinparam maxmessagesize 60
skinparam sequenceParticipant underline

actor "Hydrogen Producer" as User
participant "Carbon Market Website" as A
participant "HTTP API" as B
database "Off-chain Database" as C

User -> A: Request Login
activate A

A -> B: Login HTTP Request
activate B

B -> C: Check Credentials
activate C
note right
NB: Potential to hold user credential information as 
private data held on the carbon market nodes.
Hyperledger as of 2.2 supports rich querying of private 
data using CouchDB, making the checking of user credentials 
a trivial process.
Question of how much data to have off-chain and on-chain.
end note
C - -> B: Return result
deactivate C

B - -> A: Credential result
deactivate B

A - -> User: Done
deactivate A

@enduml

PlantUML version 1.2021.00(Sun Jan 10 21:25:05 AEDT 2021)
(GPL source distribution)
Java Runtime: OpenJDK Runtime Environment
JVM: OpenJDK 64-Bit Server VM
Default Encoding: UTF-8
Language: en
Country: US
--></g></svg>