<?xml version="1.0" encoding="UTF-8" standalone="no"?><svg xmlns="http://www.w3.org/2000/svg" xmlns:xlink="http://www.w3.org/1999/xlink" contentScriptType="application/ecmascript" contentStyleType="text/css" height="531px" preserveAspectRatio="none" style="width:993px;height:531px;" version="1.1" viewBox="0 0 993 531" width="993px" zoomAndPan="magnify"><defs><filter height="300%" id="fj62vhrdw6p5x" width="300%" x="-1" y="-1"><feGaussianBlur result="blurOut" stdDeviation="2.0"/><feColorMatrix in="blurOut" result="blurOut2" type="matrix" values="0 0 0 0 0 0 0 0 0 0 0 0 0 0 0 0 0 0 .4 0"/><feOffset dx="4.0" dy="4.0" in="blurOut2" result="blurOut3"/><feBlend in="SourceGraphic" in2="blurOut3" mode="normal"/></filter></defs><g><rect fill="#FFFFFF" filter="url(#fj62vhrdw6p5x)" height="294.3477" style="stroke:#A80036;stroke-width:1.0;" width="10" x="237.5" y="135.1094"/><rect fill="#FFFFFF" filter="url(#fj62vhrdw6p5x)" height="205.1055" style="stroke:#A80036;stroke-width:1.0;" width="10" x="376" y="195.041"/><rect fill="#FFFFFF" filter="url(#fj62vhrdw6p5x)" height="80.2422" style="stroke:#A80036;stroke-width:1.0;" width="10" x="546.5" y="275.2832"/><line style="stroke:#A80036;stroke-width:1.0;stroke-dasharray:5.0,5.0;" x1="74" x2="74" y1="88.4883" y2="447.457"/><line style="stroke:#A80036;stroke-width:1.0;stroke-dasharray:5.0,5.0;" x1="242" x2="242" y1="88.4883" y2="447.457"/><line style="stroke:#A80036;stroke-width:1.0;stroke-dasharray:5.0,5.0;" x1="381" x2="381" y1="88.4883" y2="447.457"/><line style="stroke:#A80036;stroke-width:1.0;stroke-dasharray:5.0,5.0;" x1="551" x2="551" y1="88.4883" y2="447.457"/><text fill="#000000" font-family="sans-serif" font-size="14" lengthAdjust="spacing" text-decoration="underline" textLength="133" x="5" y="85.5352">Hydrogen Producer</text><ellipse cx="74.5" cy="15" fill="#FEFECE" filter="url(#fj62vhrdw6p5x)" rx="8" ry="8" style="stroke:#A80036;stroke-width:2.0;"/><path d="M74.5,23 L74.5,50 M61.5,31 L87.5,31 M74.5,50 L61.5,65 M74.5,50 L87.5,65 " fill="none" filter="url(#fj62vhrdw6p5x)" style="stroke:#A80036;stroke-width:2.0;"/><text fill="#000000" font-family="sans-serif" font-size="14" lengthAdjust="spacing" text-decoration="underline" textLength="133" x="5" y="459.9922">Hydrogen Producer</text><ellipse cx="74.5" cy="472.9453" fill="#FEFECE" filter="url(#fj62vhrdw6p5x)" rx="8" ry="8" style="stroke:#A80036;stroke-width:2.0;"/><path d="M74.5,480.9453 L74.5,507.9453 M61.5,488.9453 L87.5,488.9453 M74.5,507.9453 L61.5,522.9453 M74.5,507.9453 L87.5,522.9453 " fill="none" filter="url(#fj62vhrdw6p5x)" style="stroke:#A80036;stroke-width:2.0;"/><rect fill="#FEFECE" filter="url(#fj62vhrdw6p5x)" height="30.4883" rx="10" ry="10" style="stroke:#A80036;stroke-width:1.5;" width="173" x="154" y="53"/><text fill="#000000" font-family="sans-serif" font-size="14" lengthAdjust="spacing" text-decoration="underline" textLength="159" x="161" y="73.5352">Carbon Market Website</text><rect fill="#FEFECE" filter="url(#fj62vhrdw6p5x)" height="30.4883" rx="10" ry="10" style="stroke:#A80036;stroke-width:1.5;" width="173" x="154" y="446.457"/><text fill="#000000" font-family="sans-serif" font-size="14" lengthAdjust="spacing" text-decoration="underline" textLength="159" x="161" y="466.9922">Carbon Market Website</text><rect fill="#FEFECE" filter="url(#fj62vhrdw6p5x)" height="30.4883" rx="10" ry="10" style="stroke:#A80036;stroke-width:1.5;" width="76" x="341" y="53"/><text fill="#000000" font-family="sans-serif" font-size="14" lengthAdjust="spacing" text-decoration="underline" textLength="62" x="348" y="73.5352">HTTP API</text><rect fill="#FEFECE" filter="url(#fj62vhrdw6p5x)" height="30.4883" rx="10" ry="10" style="stroke:#A80036;stroke-width:1.5;" width="76" x="341" y="446.457"/><text fill="#000000" font-family="sans-serif" font-size="14" lengthAdjust="spacing" text-decoration="underline" textLength="62" x="348" y="466.9922">HTTP API</text><text fill="#000000" font-family="sans-serif" font-size="14" lengthAdjust="spacing" text-decoration="underline" textLength="235" x="431" y="85.5352">Registrar Smart Contract CouchDB</text><path d="M533.5,36 C533.5,26 551.5,26 551.5,26 C551.5,26 569.5,26 569.5,36 L569.5,62 C569.5,72 551.5,72 551.5,72 C551.5,72 533.5,72 533.5,62 L533.5,36 " fill="#FEFECE" filter="url(#fj62vhrdw6p5x)" style="stroke:#000000;stroke-width:1.5;"/><path d="M533.5,36 C533.5,46 551.5,46 551.5,46 C551.5,46 569.5,46 569.5,36 " fill="none" style="stroke:#000000;stroke-width:1.5;"/><text fill="#000000" font-family="sans-serif" font-size="14" lengthAdjust="spacing" text-decoration="underline" textLength="235" x="431" y="459.9922">Registrar Smart Contract CouchDB</text><path d="M533.5,472.9453 C533.5,462.9453 551.5,462.9453 551.5,462.9453 C551.5,462.9453 569.5,462.9453 569.5,472.9453 L569.5,498.9453 C569.5,508.9453 551.5,508.9453 551.5,508.9453 C551.5,508.9453 533.5,508.9453 533.5,498.9453 L533.5,472.9453 " fill="#FEFECE" filter="url(#fj62vhrdw6p5x)" style="stroke:#000000;stroke-width:1.5;"/><path d="M533.5,472.9453 C533.5,482.9453 551.5,482.9453 551.5,482.9453 C551.5,482.9453 569.5,482.9453 569.5,472.9453 " fill="none" style="stroke:#000000;stroke-width:1.5;"/><rect fill="#FFFFFF" filter="url(#fj62vhrdw6p5x)" height="294.3477" style="stroke:#A80036;stroke-width:1.0;" width="10" x="237.5" y="135.1094"/><rect fill="#FFFFFF" filter="url(#fj62vhrdw6p5x)" height="205.1055" style="stroke:#A80036;stroke-width:1.0;" width="10" x="376" y="195.041"/><rect fill="#FFFFFF" filter="url(#fj62vhrdw6p5x)" height="80.2422" style="stroke:#A80036;stroke-width:1.0;" width="10" x="546.5" y="275.2832"/><polygon fill="#A80036" points="225.5,131.1094,235.5,135.1094,225.5,139.1094,229.5,135.1094" style="stroke:#A80036;stroke-width:1.0;"/><line style="stroke:#A80036;stroke-width:2.0;" x1="74.5" x2="231.5" y1="135.1094" y2="135.1094"/><text fill="#000000" font-family="sans-serif" font-size="13" lengthAdjust="spacing" textLength="50" x="81.5" y="115.0566">Request</text><text fill="#000000" font-family="sans-serif" font-size="13" lengthAdjust="spacing" textLength="35" x="81.5" y="130.3672">Login</text><polygon fill="#A80036" points="364,191.041,374,195.041,364,199.041,368,195.041" style="stroke:#A80036;stroke-width:1.0;"/><line style="stroke:#A80036;stroke-width:2.0;" x1="247.5" x2="370" y1="195.041" y2="195.041"/><text fill="#000000" font-family="sans-serif" font-size="13" lengthAdjust="spacing" textLength="35" x="254.5" y="159.6777">Login</text><text fill="#000000" font-family="sans-serif" font-size="13" lengthAdjust="spacing" textLength="33" x="254.5" y="174.9883">HTTP</text><text fill="#000000" font-family="sans-serif" font-size="13" lengthAdjust="spacing" textLength="50" x="254.5" y="190.2988">Request</text><polygon fill="#A80036" points="534.5,271.2832,544.5,275.2832,534.5,279.2832,538.5,275.2832" style="stroke:#A80036;stroke-width:1.0;"/><line style="stroke:#A80036;stroke-width:2.0;" x1="386" x2="540.5" y1="275.2832" y2="275.2832"/><text fill="#000000" font-family="sans-serif" font-size="13" lengthAdjust="spacing" textLength="39" x="393" y="255.2305">Check</text><text fill="#000000" font-family="sans-serif" font-size="13" lengthAdjust="spacing" textLength="71" x="393" y="270.541">Credentials</text><path d="M561,218.041 L561,299.041 A10,10 0 0 0 571,309.041 L964,309.041 A10,10 0 0 0 974,299.041 L974,218.041 L964,208.041 L571,208.041 A10,10 0 0 0 561,218.041 " fill="#FBFB77" filter="url(#fj62vhrdw6p5x)" style="stroke:#A80036;stroke-width:1.0;"/><path d="M964,208.041 L964,213.041 A5,5 0 0 0 969,218.041 L974,218.041 L964,208.041 " fill="#FBFB77" style="stroke:#A80036;stroke-width:1.0;"/><text fill="#000000" font-family="sans-serif" font-size="13" lengthAdjust="spacing" textLength="322" x="567" y="225.6094">NB: Potential to hold user credential information as</text><text fill="#000000" font-family="sans-serif" font-size="13" lengthAdjust="spacing" textLength="290" x="567" y="240.9199">private data held on the carbon market nodes.</text><text fill="#000000" font-family="sans-serif" font-size="13" lengthAdjust="spacing" textLength="346" x="567" y="256.2305">Hyperledger as of 2.2 supports rich querying of private</text><text fill="#000000" font-family="sans-serif" font-size="13" lengthAdjust="spacing" textLength="388" x="567" y="271.541">data using CouchDB, making the checking of user credentials</text><text fill="#000000" font-family="sans-serif" font-size="13" lengthAdjust="spacing" textLength="104" x="567" y="286.8516">a trivial process.</text><text fill="#000000" font-family="sans-serif" font-size="13" lengthAdjust="spacing" textLength="381" x="567" y="302.1621">Question of how much data to have off-chain and on-chain.</text><polygon fill="#A80036" points="397,351.5254,387,355.5254,397,359.5254,393,355.5254" style="stroke:#A80036;stroke-width:1.0;"/><line style="stroke:#A80036;stroke-width:2.0;stroke-dasharray:2.0,2.0;" x1="391" x2="550.5" y1="355.5254" y2="355.5254"/><text fill="#000000" font-family="sans-serif" font-size="13" lengthAdjust="spacing" textLength="41" x="403" y="335.4727">Return</text><text fill="#000000" font-family="sans-serif" font-size="13" lengthAdjust="spacing" textLength="36" x="403" y="350.7832">result</text><polygon fill="#A80036" points="258.5,396.1465,248.5,400.1465,258.5,404.1465,254.5,400.1465" style="stroke:#A80036;stroke-width:1.0;"/><line style="stroke:#A80036;stroke-width:2.0;stroke-dasharray:2.0,2.0;" x1="252.5" x2="380" y1="400.1465" y2="400.1465"/><text fill="#000000" font-family="sans-serif" font-size="13" lengthAdjust="spacing" textLength="64" x="264.5" y="380.0938">Credential</text><text fill="#000000" font-family="sans-serif" font-size="13" lengthAdjust="spacing" textLength="36" x="264.5" y="395.4043">result</text><polygon fill="#A80036" points="85.5,425.457,75.5,429.457,85.5,433.457,81.5,429.457" style="stroke:#A80036;stroke-width:1.0;"/><line style="stroke:#A80036;stroke-width:2.0;stroke-dasharray:2.0,2.0;" x1="79.5" x2="241.5" y1="429.457" y2="429.457"/><text fill="#000000" font-family="sans-serif" font-size="13" lengthAdjust="spacing" textLength="33" x="91.5" y="424.7148">Done</text><!--MD5=[04b9032e0359c461dbb779c3580f34d3]
@startuml Login
skinparam sequenceArrowThickness 2
skinparam roundcorner 20
skinparam maxmessagesize 60
skinparam sequenceParticipant underline

actor "Hydrogen Producer" as User
participant "Carbon Market Website" as A
participant "HTTP API" as B
database "Registrar Smart Contract CouchDB" as C

User -> A: Request Login
activate A

A -> B: Login HTTP Request
activate B

B -> C: Check Credentials
activate C
note right
NB: Potential to hold user credential information as 
private data held on the carbon market nodes.
Hyperledger as of 2.2 supports rich querying of private 
data using CouchDB, making the checking of user credentials 
a trivial process.
Question of how much data to have off-chain and on-chain.
end note
C - -> B: Return result
deactivate C

B - -> A: Credential result
deactivate B

A - -> User: Done
deactivate A

@enduml

PlantUML version 1.2021.00(Sun Jan 10 21:25:05 AEDT 2021)
(GPL source distribution)
Java Runtime: OpenJDK Runtime Environment
JVM: OpenJDK 64-Bit Server VM
Default Encoding: UTF-8
Language: en
Country: AU
--></g></svg>