<?xml version="1.0" encoding="UTF-8" standalone="no"?><svg xmlns="http://www.w3.org/2000/svg" xmlns:xlink="http://www.w3.org/1999/xlink" contentScriptType="application/ecmascript" contentStyleType="text/css" height="727px" preserveAspectRatio="none" style="width:1164px;height:727px;background:#FFFFFF;" version="1.1" viewBox="0 0 1164 727" width="1164px" zoomAndPan="magnify"><defs><filter height="300%" id="f7fvijze4pb5r" width="300%" x="-1" y="-1"><feGaussianBlur result="blurOut" stdDeviation="2.0"/><feColorMatrix in="blurOut" result="blurOut2" type="matrix" values="0 0 0 0 0 0 0 0 0 0 0 0 0 0 0 0 0 0 .4 0"/><feOffset dx="4.0" dy="4.0" in="blurOut2" result="blurOut3"/><feBlend in="SourceGraphic" in2="blurOut3" mode="normal"/></filter></defs><g><rect fill="#FFFFFF" filter="url(#f7fvijze4pb5r)" height="479.8263" style="stroke:#A80036;stroke-width:1.0;" width="10" x="235" y="142.4799"/><rect fill="#FFFFFF" filter="url(#f7fvijze4pb5r)" height="381.0023" style="stroke:#A80036;stroke-width:1.0;" width="10" x="372" y="209.598"/><rect fill="#FFFFFF" filter="url(#f7fvijze4pb5r)" height="246.7662" style="stroke:#A80036;stroke-width:1.0;" width="10" x="540" y="294.4221"/><rect fill="#FFFFFF" filter="url(#f7fvijze4pb5r)" height="98.6771" style="stroke:#A80036;stroke-width:1.0;" width="10" x="743" y="393.0991"/><line style="stroke:#A80036;stroke-width:1.0;stroke-dasharray:5.0,5.0;" x1="73" x2="73" y1="91.0679" y2="640.3063"/><line style="stroke:#A80036;stroke-width:1.0;stroke-dasharray:5.0,5.0;" x1="240" x2="240" y1="91.0679" y2="640.3063"/><line style="stroke:#A80036;stroke-width:1.0;stroke-dasharray:5.0,5.0;" x1="377" x2="377" y1="91.0679" y2="640.3063"/><line style="stroke:#A80036;stroke-width:1.0;stroke-dasharray:5.0,5.0;" x1="545" x2="545" y1="91.0679" y2="640.3063"/><line style="stroke:#A80036;stroke-width:1.0;stroke-dasharray:5.0,5.0;" x1="748" x2="748" y1="91.0679" y2="640.3063"/><text fill="#000000" font-family="sans-serif" font-size="14" lengthAdjust="spacing" text-decoration="underline" textLength="131" x="5" y="86.9659">Hydrogen Producer</text><ellipse cx="73.5" cy="15" fill="#FEFECE" filter="url(#f7fvijze4pb5r)" rx="8" ry="8" style="stroke:#A80036;stroke-width:2.0;"/><path d="M73.5,23 L73.5,50 M60.5,31 L86.5,31 M73.5,50 L60.5,65 M73.5,50 L86.5,65 " fill="none" filter="url(#f7fvijze4pb5r)" style="stroke:#A80036;stroke-width:2.0;"/><text fill="#000000" font-family="sans-serif" font-size="14" lengthAdjust="spacing" text-decoration="underline" textLength="131" x="5" y="654.2722">Hydrogen Producer</text><ellipse cx="73.5" cy="668.3742" fill="#FEFECE" filter="url(#f7fvijze4pb5r)" rx="8" ry="8" style="stroke:#A80036;stroke-width:2.0;"/><path d="M73.5,676.3742 L73.5,703.3742 M60.5,684.3742 L86.5,684.3742 M73.5,703.3742 L60.5,718.3742 M73.5,703.3742 L86.5,718.3742 " fill="none" filter="url(#f7fvijze4pb5r)" style="stroke:#A80036;stroke-width:2.0;"/><rect fill="#FEFECE" filter="url(#f7fvijze4pb5r)" height="33.0679" rx="10" ry="10" style="stroke:#A80036;stroke-width:1.5;" width="172" x="152" y="53"/><text fill="#000000" font-family="sans-serif" font-size="14" lengthAdjust="spacing" text-decoration="underline" textLength="158" x="159" y="74.9659">Carbon Market Website</text><rect fill="#FEFECE" filter="url(#f7fvijze4pb5r)" height="33.0679" rx="10" ry="10" style="stroke:#A80036;stroke-width:1.5;" width="172" x="152" y="639.3063"/><text fill="#000000" font-family="sans-serif" font-size="14" lengthAdjust="spacing" text-decoration="underline" textLength="158" x="159" y="661.2722">Carbon Market Website</text><rect fill="#FEFECE" filter="url(#f7fvijze4pb5r)" height="33.0679" rx="10" ry="10" style="stroke:#A80036;stroke-width:1.5;" width="74" x="338" y="53"/><text fill="#000000" font-family="sans-serif" font-size="14" lengthAdjust="spacing" text-decoration="underline" textLength="60" x="345" y="74.9659">HTTP API</text><rect fill="#FEFECE" filter="url(#f7fvijze4pb5r)" height="33.0679" rx="10" ry="10" style="stroke:#A80036;stroke-width:1.5;" width="74" x="338" y="639.3063"/><text fill="#000000" font-family="sans-serif" font-size="14" lengthAdjust="spacing" text-decoration="underline" textLength="60" x="345" y="661.2722">HTTP API</text><text fill="#000000" font-family="sans-serif" font-size="14" lengthAdjust="spacing" text-decoration="underline" textLength="232" x="426" y="86.9659">Registrar Smart Contract CouchDB</text><path d="M527,36 C527,26 545,26 545,26 C545,26 563,26 563,36 L563,62 C563,72 545,72 545,72 C545,72 527,72 527,62 L527,36 " fill="#FEFECE" filter="url(#f7fvijze4pb5r)" style="stroke:#000000;stroke-width:1.5;"/><path d="M527,36 C527,46 545,46 545,46 C545,46 563,46 563,36 " fill="none" style="stroke:#000000;stroke-width:1.5;"/><text fill="#000000" font-family="sans-serif" font-size="14" lengthAdjust="spacing" text-decoration="underline" textLength="232" x="426" y="654.2722">Registrar Smart Contract CouchDB</text><path d="M527,668.3742 C527,658.3742 545,658.3742 545,658.3742 C545,658.3742 563,658.3742 563,668.3742 L563,694.3742 C563,704.3742 545,704.3742 545,704.3742 C545,704.3742 527,704.3742 527,694.3742 L527,668.3742 " fill="#FEFECE" filter="url(#f7fvijze4pb5r)" style="stroke:#000000;stroke-width:1.5;"/><path d="M527,668.3742 C527,678.3742 545,678.3742 545,678.3742 C545,678.3742 563,678.3742 563,668.3742 " fill="none" style="stroke:#000000;stroke-width:1.5;"/><text fill="#000000" font-family="sans-serif" font-size="14" lengthAdjust="spacing" text-decoration="underline" textLength="142" x="674" y="86.9659">Cryptographic Wallet</text><path d="M730,36 C730,26 748,26 748,26 C748,26 766,26 766,36 L766,62 C766,72 748,72 748,72 C748,72 730,72 730,62 L730,36 " fill="#FEFECE" filter="url(#f7fvijze4pb5r)" style="stroke:#000000;stroke-width:1.5;"/><path d="M730,36 C730,46 748,46 748,46 C748,46 766,46 766,36 " fill="none" style="stroke:#000000;stroke-width:1.5;"/><text fill="#000000" font-family="sans-serif" font-size="14" lengthAdjust="spacing" text-decoration="underline" textLength="142" x="674" y="654.2722">Cryptographic Wallet</text><path d="M730,668.3742 C730,658.3742 748,658.3742 748,658.3742 C748,658.3742 766,658.3742 766,668.3742 L766,694.3742 C766,704.3742 748,704.3742 748,704.3742 C748,704.3742 730,704.3742 730,694.3742 L730,668.3742 " fill="#FEFECE" filter="url(#f7fvijze4pb5r)" style="stroke:#000000;stroke-width:1.5;"/><path d="M730,668.3742 C730,678.3742 748,678.3742 748,678.3742 C748,678.3742 766,678.3742 766,668.3742 " fill="none" style="stroke:#000000;stroke-width:1.5;"/><rect fill="#FFFFFF" filter="url(#f7fvijze4pb5r)" height="479.8263" style="stroke:#A80036;stroke-width:1.0;" width="10" x="235" y="142.4799"/><rect fill="#FFFFFF" filter="url(#f7fvijze4pb5r)" height="381.0023" style="stroke:#A80036;stroke-width:1.0;" width="10" x="372" y="209.598"/><rect fill="#FFFFFF" filter="url(#f7fvijze4pb5r)" height="246.7662" style="stroke:#A80036;stroke-width:1.0;" width="10" x="540" y="294.4221"/><rect fill="#FFFFFF" filter="url(#f7fvijze4pb5r)" height="98.6771" style="stroke:#A80036;stroke-width:1.0;" width="10" x="743" y="393.0991"/><polygon fill="#A80036" points="223,138.4799,233,142.4799,223,146.4799,227,142.4799" style="stroke:#A80036;stroke-width:1.0;"/><line style="stroke:#A80036;stroke-width:2.0;" x1="73.5" x2="229" y1="142.4799" y2="142.4799"/><text fill="#000000" font-family="sans-serif" font-size="13" lengthAdjust="spacing" textLength="49" x="80.5" y="118.9649">Request</text><text fill="#000000" font-family="sans-serif" font-size="13" lengthAdjust="spacing" textLength="34" x="80.5" y="136.6709">Login</text><polygon fill="#A80036" points="360,205.598,370,209.598,360,213.598,364,209.598" style="stroke:#A80036;stroke-width:1.0;"/><line style="stroke:#A80036;stroke-width:2.0;" x1="245" x2="366" y1="209.598" y2="209.598"/><text fill="#000000" font-family="sans-serif" font-size="13" lengthAdjust="spacing" textLength="34" x="252" y="168.377">Login</text><text fill="#000000" font-family="sans-serif" font-size="13" lengthAdjust="spacing" textLength="32" x="252" y="186.083">HTTP</text><text fill="#000000" font-family="sans-serif" font-size="13" lengthAdjust="spacing" textLength="49" x="252" y="203.789">Request</text><polygon fill="#A80036" points="528,290.4221,538,294.4221,528,298.4221,532,294.4221" style="stroke:#A80036;stroke-width:1.0;"/><line style="stroke:#A80036;stroke-width:2.0;" x1="382" x2="534" y1="294.4221" y2="294.4221"/><text fill="#000000" font-family="sans-serif" font-size="13" lengthAdjust="spacing" textLength="36" x="389" y="235.495">Check</text><text fill="#000000" font-family="sans-serif" font-size="13" lengthAdjust="spacing" textLength="67" x="389" y="253.201">Credentials</text><text fill="#000000" font-family="sans-serif" font-size="13" lengthAdjust="spacing" textLength="45" x="389" y="270.907">in Local</text><text fill="#000000" font-family="sans-serif" font-size="13" lengthAdjust="spacing" textLength="56" x="389" y="288.6131">Database</text><polygon fill="#A80036" points="731,389.0991,741,393.0991,731,397.0991,735,393.0991" style="stroke:#A80036;stroke-width:1.0;"/><line style="stroke:#A80036;stroke-width:2.0;" x1="550" x2="737" y1="393.0991" y2="393.0991"/><text fill="#000000" font-family="sans-serif" font-size="13" lengthAdjust="spacing" textLength="36" x="557" y="369.5841">Check</text><text fill="#000000" font-family="sans-serif" font-size="13" lengthAdjust="spacing" textLength="37" x="557" y="387.2901">Wallet</text><path d="M758,317.4221 L758,430.4221 A10,10 0 0 0 768,440.4221 L1135,440.4221 A10,10 0 0 0 1145,430.4221 L1145,317.4221 L1135,307.4221 L768,307.4221 A10,10 0 0 0 758,317.4221 " fill="#FBFB77" filter="url(#f7fvijze4pb5r)" style="stroke:#A80036;stroke-width:1.0;"/><path d="M1135,307.4221 L1135,312.4221 A5,5 0 0 0 1140,317.4221 L1145,317.4221 L1135,307.4221 " fill="#FBFB77" style="stroke:#A80036;stroke-width:1.0;"/><text fill="#000000" font-family="sans-serif" font-size="13" lengthAdjust="spacing" textLength="305" x="764" y="326.3191">NB: Potential to hold user credential information as</text><text fill="#000000" font-family="sans-serif" font-size="13" lengthAdjust="spacing" textLength="277" x="764" y="344.0251">private data held on the carbon market nodes.</text><text fill="#000000" font-family="sans-serif" font-size="13" lengthAdjust="spacing" textLength="325" x="764" y="361.7311">Hyperledger as of 2.2 supports rich querying of private</text><text fill="#000000" font-family="sans-serif" font-size="13" lengthAdjust="spacing" textLength="363" x="764" y="379.4371">data using CouchDB, making the checking of user credentials</text><text fill="#000000" font-family="sans-serif" font-size="13" lengthAdjust="spacing" textLength="95" x="764" y="397.1431">a trivial process.</text><text fill="#000000" font-family="sans-serif" font-size="13" lengthAdjust="spacing" textLength="353" x="764" y="414.8492">Question of how much data to have off-chain and on-chain.</text><text fill="#000000" font-family="sans-serif" font-size="13" lengthAdjust="spacing" textLength="239" x="764" y="432.5552">Not recommended due to performance.</text><polygon fill="#A80036" points="561,487.7762,551,491.7762,561,495.7762,557,491.7762" style="stroke:#A80036;stroke-width:1.0;"/><line style="stroke:#A80036;stroke-width:2.0;" x1="555" x2="747" y1="491.7762" y2="491.7762"/><text fill="#000000" font-family="sans-serif" font-size="13" lengthAdjust="spacing" textLength="37" x="567" y="468.2612">Wallet</text><text fill="#000000" font-family="sans-serif" font-size="13" lengthAdjust="spacing" textLength="41" x="567" y="485.9672">Return</text><polygon fill="#A80036" points="393,537.1882,383,541.1882,393,545.1882,389,541.1882" style="stroke:#A80036;stroke-width:1.0;"/><line style="stroke:#A80036;stroke-width:2.0;stroke-dasharray:2.0,2.0;" x1="387" x2="544" y1="541.1882" y2="541.1882"/><text fill="#000000" font-family="sans-serif" font-size="13" lengthAdjust="spacing" textLength="41" x="399" y="517.6732">Return</text><text fill="#000000" font-family="sans-serif" font-size="13" lengthAdjust="spacing" textLength="34" x="399" y="535.3792">result</text><polygon fill="#A80036" points="256,586.6003,246,590.6003,256,594.6003,252,590.6003" style="stroke:#A80036;stroke-width:1.0;"/><line style="stroke:#A80036;stroke-width:2.0;stroke-dasharray:2.0,2.0;" x1="250" x2="376" y1="590.6003" y2="590.6003"/><text fill="#000000" font-family="sans-serif" font-size="13" lengthAdjust="spacing" textLength="61" x="262" y="567.0853">Credential</text><text fill="#000000" font-family="sans-serif" font-size="13" lengthAdjust="spacing" textLength="34" x="262" y="584.7913">result</text><polygon fill="#A80036" points="84.5,618.3063,74.5,622.3063,84.5,626.3063,80.5,622.3063" style="stroke:#A80036;stroke-width:1.0;"/><line style="stroke:#A80036;stroke-width:2.0;stroke-dasharray:2.0,2.0;" x1="78.5" x2="239" y1="622.3063" y2="622.3063"/><text fill="#000000" font-family="sans-serif" font-size="13" lengthAdjust="spacing" textLength="32" x="90.5" y="616.4973">Done</text><!--MD5=[2d635800b6a8f253d024ada9eb1efb75]
@startuml Login
skinparam sequenceArrowThickness 2
skinparam roundcorner 20
skinparam maxmessagesize 60
skinparam sequenceParticipant underline

actor "Hydrogen Producer" as User
participant "Carbon Market Website" as A
participant "HTTP API" as B
database "Registrar Smart Contract CouchDB" as C
database "Cryptographic Wallet" as D

User -> A: Request Login
activate A

A -> B: Login HTTP Request
activate B

B -> C: Check Credentials in Local Database
activate C
C -> D: Check Wallet
activate D
note right
NB: Potential to hold user credential information as 
private data held on the carbon market nodes.
Hyperledger as of 2.2 supports rich querying of private 
data using CouchDB, making the checking of user credentials 
a trivial process.
Question of how much data to have off-chain and on-chain.
Not recommended due to performance.
end note
D -> C: Wallet Return
deactivate D
C - -> B: Return result
deactivate C

B - -> A: Credential result
deactivate B

A - -> User: Done
deactivate A

@enduml

PlantUML version 1.2021.7(Sun May 23 22:40:07 AEST 2021)
(GPL source distribution)
Java Runtime: OpenJDK Runtime Environment
JVM: OpenJDK 64-Bit Server VM
Default Encoding: UTF-8
Language: en
Country: US
--></g></svg>