<?xml version="1.0" encoding="UTF-8" standalone="no"?><svg xmlns="http://www.w3.org/2000/svg" xmlns:xlink="http://www.w3.org/1999/xlink" contentScriptType="application/ecmascript" contentStyleType="text/css" height="1148px" preserveAspectRatio="none" style="width:1083px;height:1148px;background:#FFFFFF;" version="1.1" viewBox="0 0 1083 1148" width="1083px" zoomAndPan="magnify"><defs><filter height="300%" id="f1si8rbgmmvtl9" width="300%" x="-1" y="-1"><feGaussianBlur result="blurOut" stdDeviation="2.0"/><feColorMatrix in="blurOut" result="blurOut2" type="matrix" values="0 0 0 0 0 0 0 0 0 0 0 0 0 0 0 0 0 0 .4 0"/><feOffset dx="4.0" dy="4.0" in="blurOut2" result="blurOut3"/><feBlend in="SourceGraphic" in2="blurOut3" mode="normal"/></filter></defs><g><text fill="#000000" font-family="sans-serif" font-size="18" lengthAdjust="spacing" textLength="337" x="373.25" y="31.2419">Carboncoin Direct Coin Purchase (Offer)</text><rect fill="#ADD8E6" height="1098.0825" rx="10" ry="10" style="stroke:#A80036;stroke-width:1.0;" width="481" x="588" y="44.5158"/><text fill="#000000" font-family="sans-serif" font-size="13" font-weight="bold" lengthAdjust="spacing" textLength="232" x="712.5" y="58.4129">Carbon Market Blockchain Channel</text><rect fill="#FFFFFF" filter="url(#f1si8rbgmmvtl9)" height="835.1226" style="stroke:#A80036;stroke-width:1.0;" width="10" x="235" y="200.4078"/><rect fill="#FFFFFF" filter="url(#f1si8rbgmmvtl9)" height="665.4745" style="stroke:#A80036;stroke-width:1.0;" width="10" x="376" y="285.2319"/><rect fill="#FFFFFF" filter="url(#f1si8rbgmmvtl9)" height="49.412" style="stroke:#A80036;stroke-width:1.0;" width="10" x="503" y="334.6439"/><rect fill="#FFFFFF" filter="url(#f1si8rbgmmvtl9)" height="387.7083" style="stroke:#A80036;stroke-width:1.0;" width="10" x="698.5" y="415.762"/><rect fill="#FFFFFF" filter="url(#f1si8rbgmmvtl9)" height="84.8241" style="stroke:#A80036;stroke-width:1.0;" width="10" x="940" y="518.2921"/><line style="stroke:#A80036;stroke-width:1.0;stroke-dasharray:5.0,5.0;" x1="73" x2="73" y1="131.2898" y2="1053.5304"/><line style="stroke:#A80036;stroke-width:1.0;stroke-dasharray:5.0,5.0;" x1="240" x2="240" y1="131.2898" y2="1053.5304"/><line style="stroke:#A80036;stroke-width:1.0;stroke-dasharray:5.0,5.0;" x1="381" x2="381" y1="131.2898" y2="1053.5304"/><line style="stroke:#A80036;stroke-width:1.0;stroke-dasharray:5.0,5.0;" x1="508" x2="508" y1="131.2898" y2="1053.5304"/><line style="stroke:#A80036;stroke-width:1.0;stroke-dasharray:5.0,5.0;" x1="703" x2="703" y1="131.2898" y2="1053.5304"/><line style="stroke:#A80036;stroke-width:1.0;stroke-dasharray:5.0,5.0;" x1="945" x2="945" y1="131.2898" y2="1053.5304"/><text fill="#000000" font-family="sans-serif" font-size="14" lengthAdjust="spacing" text-decoration="underline" textLength="131" x="5" y="127.1878">Hydrogen Producer</text><ellipse cx="73.5" cy="55.2219" fill="#FEFECE" filter="url(#f1si8rbgmmvtl9)" rx="8" ry="8" style="stroke:#A80036;stroke-width:2.0;"/><path d="M73.5,63.2219 L73.5,90.2219 M60.5,71.2219 L86.5,71.2219 M73.5,90.2219 L60.5,105.2219 M73.5,90.2219 L86.5,105.2219 " fill="none" filter="url(#f1si8rbgmmvtl9)" style="stroke:#A80036;stroke-width:2.0;"/><text fill="#000000" font-family="sans-serif" font-size="14" lengthAdjust="spacing" text-decoration="underline" textLength="131" x="5" y="1067.4964">Hydrogen Producer</text><ellipse cx="73.5" cy="1081.5984" fill="#FEFECE" filter="url(#f1si8rbgmmvtl9)" rx="8" ry="8" style="stroke:#A80036;stroke-width:2.0;"/><path d="M73.5,1089.5984 L73.5,1116.5984 M60.5,1097.5984 L86.5,1097.5984 M73.5,1116.5984 L60.5,1131.5984 M73.5,1116.5984 L86.5,1131.5984 " fill="none" filter="url(#f1si8rbgmmvtl9)" style="stroke:#A80036;stroke-width:2.0;"/><rect fill="#FEFECE" filter="url(#f1si8rbgmmvtl9)" height="33.0679" rx="10" ry="10" style="stroke:#A80036;stroke-width:1.5;" width="172" x="152" y="93.2219"/><text fill="#000000" font-family="sans-serif" font-size="14" lengthAdjust="spacing" text-decoration="underline" textLength="158" x="159" y="115.1878">Carbon Market Website</text><rect fill="#FEFECE" filter="url(#f1si8rbgmmvtl9)" height="33.0679" rx="10" ry="10" style="stroke:#A80036;stroke-width:1.5;" width="172" x="152" y="1052.5304"/><text fill="#000000" font-family="sans-serif" font-size="14" lengthAdjust="spacing" text-decoration="underline" textLength="158" x="159" y="1074.4964">Carbon Market Website</text><rect fill="#FEFECE" filter="url(#f1si8rbgmmvtl9)" height="33.0679" rx="10" ry="10" style="stroke:#A80036;stroke-width:1.5;" width="82" x="338" y="93.2219"/><text fill="#000000" font-family="sans-serif" font-size="14" lengthAdjust="spacing" text-decoration="underline" textLength="68" x="345" y="115.1878">HTTPS API</text><rect fill="#FEFECE" filter="url(#f1si8rbgmmvtl9)" height="33.0679" rx="10" ry="10" style="stroke:#A80036;stroke-width:1.5;" width="82" x="338" y="1052.5304"/><text fill="#000000" font-family="sans-serif" font-size="14" lengthAdjust="spacing" text-decoration="underline" textLength="68" x="345" y="1074.4964">HTTPS API</text><text fill="#000000" font-family="sans-serif" font-size="14" lengthAdjust="spacing" text-decoration="underline" textLength="142" x="434" y="127.1878">Cryptographic Wallet</text><path d="M490,76.2219 C490,66.2219 508,66.2219 508,66.2219 C508,66.2219 526,66.2219 526,76.2219 L526,102.2219 C526,112.2219 508,112.2219 508,112.2219 C508,112.2219 490,112.2219 490,102.2219 L490,76.2219 " fill="#FEFECE" filter="url(#f1si8rbgmmvtl9)" style="stroke:#000000;stroke-width:1.5;"/><path d="M490,76.2219 C490,86.2219 508,86.2219 508,86.2219 C508,86.2219 526,86.2219 526,76.2219 " fill="none" style="stroke:#000000;stroke-width:1.5;"/><text fill="#000000" font-family="sans-serif" font-size="14" lengthAdjust="spacing" text-decoration="underline" textLength="142" x="434" y="1067.4964">Cryptographic Wallet</text><path d="M490,1081.5984 C490,1071.5984 508,1071.5984 508,1071.5984 C508,1071.5984 526,1071.5984 526,1081.5984 L526,1107.5984 C526,1117.5984 508,1117.5984 508,1117.5984 C508,1117.5984 490,1117.5984 490,1107.5984 L490,1081.5984 " fill="#FEFECE" filter="url(#f1si8rbgmmvtl9)" style="stroke:#000000;stroke-width:1.5;"/><path d="M490,1081.5984 C490,1091.5984 508,1091.5984 508,1091.5984 C508,1091.5984 526,1091.5984 526,1081.5984 " fill="none" style="stroke:#000000;stroke-width:1.5;"/><rect fill="#FEFECE" filter="url(#f1si8rbgmmvtl9)" height="33.0679" rx="10" ry="10" style="stroke:#A80036;stroke-width:1.5;" width="219" x="592" y="93.2219"/><text fill="#000000" font-family="sans-serif" font-size="14" lengthAdjust="spacing" text-decoration="underline" textLength="205" x="599" y="115.1878">Carbon Market Smart Contract</text><rect fill="#FEFECE" filter="url(#f1si8rbgmmvtl9)" height="33.0679" rx="10" ry="10" style="stroke:#A80036;stroke-width:1.5;" width="219" x="592" y="1052.5304"/><text fill="#000000" font-family="sans-serif" font-size="14" lengthAdjust="spacing" text-decoration="underline" textLength="205" x="599" y="1074.4964">Carbon Market Smart Contract</text><text fill="#000000" font-family="sans-serif" font-size="14" lengthAdjust="spacing" text-decoration="underline" textLength="234" x="825" y="127.1878">Carbon Market On Chain Database</text><path d="M927,76.2219 C927,66.2219 945,66.2219 945,66.2219 C945,66.2219 963,66.2219 963,76.2219 L963,102.2219 C963,112.2219 945,112.2219 945,112.2219 C945,112.2219 927,112.2219 927,102.2219 L927,76.2219 " fill="#FEFECE" filter="url(#f1si8rbgmmvtl9)" style="stroke:#000000;stroke-width:1.5;"/><path d="M927,76.2219 C927,86.2219 945,86.2219 945,86.2219 C945,86.2219 963,86.2219 963,76.2219 " fill="none" style="stroke:#000000;stroke-width:1.5;"/><text fill="#000000" font-family="sans-serif" font-size="14" lengthAdjust="spacing" text-decoration="underline" textLength="234" x="825" y="1067.4964">Carbon Market On Chain Database</text><path d="M927,1081.5984 C927,1071.5984 945,1071.5984 945,1071.5984 C945,1071.5984 963,1071.5984 963,1081.5984 L963,1107.5984 C963,1117.5984 945,1117.5984 945,1117.5984 C945,1117.5984 927,1117.5984 927,1107.5984 L927,1081.5984 " fill="#FEFECE" filter="url(#f1si8rbgmmvtl9)" style="stroke:#000000;stroke-width:1.5;"/><path d="M927,1081.5984 C927,1091.5984 945,1091.5984 945,1091.5984 C945,1091.5984 963,1091.5984 963,1081.5984 " fill="none" style="stroke:#000000;stroke-width:1.5;"/><rect fill="#FFFFFF" filter="url(#f1si8rbgmmvtl9)" height="835.1226" style="stroke:#A80036;stroke-width:1.0;" width="10" x="235" y="200.4078"/><rect fill="#FFFFFF" filter="url(#f1si8rbgmmvtl9)" height="665.4745" style="stroke:#A80036;stroke-width:1.0;" width="10" x="376" y="285.2319"/><rect fill="#FFFFFF" filter="url(#f1si8rbgmmvtl9)" height="49.412" style="stroke:#A80036;stroke-width:1.0;" width="10" x="503" y="334.6439"/><rect fill="#FFFFFF" filter="url(#f1si8rbgmmvtl9)" height="387.7083" style="stroke:#A80036;stroke-width:1.0;" width="10" x="698.5" y="415.762"/><rect fill="#FFFFFF" filter="url(#f1si8rbgmmvtl9)" height="84.8241" style="stroke:#A80036;stroke-width:1.0;" width="10" x="940" y="518.2921"/><polygon fill="#A80036" points="223,196.4078,233,200.4078,223,204.4078,227,200.4078" style="stroke:#A80036;stroke-width:1.0;"/><line style="stroke:#A80036;stroke-width:2.0;" x1="73.5" x2="229" y1="200.4078" y2="200.4078"/><text fill="#000000" font-family="sans-serif" font-size="13" lengthAdjust="spacing" textLength="35" x="80.5" y="159.1868">Direct</text><text fill="#000000" font-family="sans-serif" font-size="13" lengthAdjust="spacing" textLength="37" x="80.5" y="176.8928">Token</text><text fill="#000000" font-family="sans-serif" font-size="13" lengthAdjust="spacing" textLength="55" x="80.5" y="194.5988">Purchase</text><polygon fill="#A80036" points="364,281.2319,374,285.2319,364,289.2319,368,285.2319" style="stroke:#A80036;stroke-width:1.0;"/><line style="stroke:#A80036;stroke-width:2.0;" x1="245" x2="370" y1="285.2319" y2="285.2319"/><text fill="#000000" font-family="sans-serif" font-size="13" lengthAdjust="spacing" textLength="39" x="252" y="226.3048">Create</text><text fill="#000000" font-family="sans-serif" font-size="13" lengthAdjust="spacing" textLength="35" x="252" y="244.0109">Direct</text><text fill="#000000" font-family="sans-serif" font-size="13" lengthAdjust="spacing" textLength="37" x="252" y="261.7169">Token</text><text fill="#000000" font-family="sans-serif" font-size="13" lengthAdjust="spacing" textLength="55" x="252" y="279.4229">Purchase</text><polygon fill="#A80036" points="491,330.6439,501,334.6439,491,338.6439,495,334.6439" style="stroke:#A80036;stroke-width:1.0;"/><line style="stroke:#A80036;stroke-width:2.0;" x1="386" x2="497" y1="334.6439" y2="334.6439"/><text fill="#000000" font-family="sans-serif" font-size="13" lengthAdjust="spacing" textLength="41" x="393" y="311.1289">Gather</text><text fill="#000000" font-family="sans-serif" font-size="13" lengthAdjust="spacing" textLength="67" x="393" y="328.8349">Credentials</text><polygon fill="#A80036" points="397,380.056,387,384.056,397,388.056,393,384.056" style="stroke:#A80036;stroke-width:1.0;"/><line style="stroke:#A80036;stroke-width:2.0;" x1="391" x2="507" y1="384.056" y2="384.056"/><text fill="#000000" font-family="sans-serif" font-size="13" lengthAdjust="spacing" textLength="41" x="403" y="360.5409">Retrun</text><text fill="#000000" font-family="sans-serif" font-size="13" lengthAdjust="spacing" textLength="67" x="403" y="378.247">Credentials</text><polygon fill="#A80036" points="686.5,411.762,696.5,415.762,686.5,419.762,690.5,415.762" style="stroke:#A80036;stroke-width:1.0;"/><line style="stroke:#A80036;stroke-width:2.0;" x1="386" x2="692.5" y1="415.762" y2="415.762"/><text fill="#000000" font-family="sans-serif" font-size="13" lengthAdjust="spacing" textLength="54" x="393" y="409.953">Get Offer</text><polygon fill="#A80036" points="928,514.2921,938,518.2921,928,522.2921,932,518.2921" style="stroke:#A80036;stroke-width:1.0;"/><line style="stroke:#A80036;stroke-width:2.0;" x1="708.5" x2="934" y1="518.2921" y2="518.2921"/><text fill="#000000" font-family="sans-serif" font-size="13" lengthAdjust="spacing" textLength="49" x="715.5" y="441.659">Perform</text><text fill="#000000" font-family="sans-serif" font-size="13" lengthAdjust="spacing" textLength="34" x="715.5" y="459.365">Index</text><text fill="#000000" font-family="sans-serif" font-size="13" lengthAdjust="spacing" textLength="37" x="715.5" y="477.071">Query</text><text fill="#000000" font-family="sans-serif" font-size="13" lengthAdjust="spacing" textLength="53" x="715.5" y="494.777">(warmed</text><text fill="#000000" font-family="sans-serif" font-size="13" lengthAdjust="spacing" textLength="58" x="715.5" y="512.4831">block cut)</text><polygon fill="#A80036" points="719.5,599.1161,709.5,603.1161,719.5,607.1161,715.5,603.1161" style="stroke:#A80036;stroke-width:1.0;"/><line style="stroke:#A80036;stroke-width:2.0;" x1="713.5" x2="944" y1="603.1161" y2="603.1161"/><text fill="#000000" font-family="sans-serif" font-size="13" lengthAdjust="spacing" textLength="33" x="725.5" y="544.1891">Open</text><text fill="#000000" font-family="sans-serif" font-size="13" lengthAdjust="spacing" textLength="43" x="725.5" y="561.8951">Market</text><text fill="#000000" font-family="sans-serif" font-size="13" lengthAdjust="spacing" textLength="30" x="725.5" y="579.6011">Offer</text><text fill="#000000" font-family="sans-serif" font-size="13" lengthAdjust="spacing" textLength="43" x="725.5" y="597.3071">Results</text><line style="stroke:#A80036;stroke-width:2.0;" x1="708.5" x2="750.5" y1="723.3522" y2="723.3522"/><line style="stroke:#A80036;stroke-width:2.0;" x1="750.5" x2="750.5" y1="723.3522" y2="736.3522"/><line style="stroke:#A80036;stroke-width:2.0;" x1="709.5" x2="750.5" y1="736.3522" y2="736.3522"/><polygon fill="#A80036" points="719.5,732.3522,709.5,736.3522,719.5,740.3522,715.5,736.3522" style="stroke:#A80036;stroke-width:1.0;"/><text fill="#000000" font-family="sans-serif" font-size="13" lengthAdjust="spacing" textLength="54" x="715.5" y="629.0131">Calculate</text><text fill="#000000" font-family="sans-serif" font-size="13" lengthAdjust="spacing" textLength="30" x="715.5" y="646.7192">Offer</text><text fill="#000000" font-family="sans-serif" font-size="13" lengthAdjust="spacing" textLength="55" x="715.5" y="664.4252">Based on</text><text fill="#000000" font-family="sans-serif" font-size="13" lengthAdjust="spacing" textLength="26" x="715.5" y="682.1312">Max</text><text fill="#000000" font-family="sans-serif" font-size="13" lengthAdjust="spacing" textLength="33" x="715.5" y="699.8372">Open</text><text fill="#000000" font-family="sans-serif" font-size="13" lengthAdjust="spacing" textLength="43" x="715.5" y="717.5432">Market</text><path d="M785,671.8812 L785,678.8812 A10,10 0 0 0 795,688.8812 L1054,688.8812 A10,10 0 0 0 1064,678.8812 L1064,671.8812 L1054,661.8812 L795,661.8812 A10,10 0 0 0 785,671.8812 " fill="#FBFB77" filter="url(#f1si8rbgmmvtl9)" style="stroke:#A80036;stroke-width:1.0;"/><path d="M1054,661.8812 L1054,666.8812 A5,5 0 0 0 1059,671.8812 L1064,671.8812 L1054,661.8812 " fill="#FBFB77" style="stroke:#A80036;stroke-width:1.0;"/><text fill="#000000" font-family="sans-serif" font-size="13" lengthAdjust="spacing" textLength="258" x="791" y="680.7782">Max Open Market Offer with Margin Added</text><polygon fill="#A80036" points="397,799.4703,387,803.4703,397,807.4703,393,803.4703" style="stroke:#A80036;stroke-width:1.0;"/><line style="stroke:#A80036;stroke-width:2.0;" x1="391" x2="702.5" y1="803.4703" y2="803.4703"/><text fill="#000000" font-family="sans-serif" font-size="13" lengthAdjust="spacing" textLength="41" x="403" y="762.2492">Return</text><text fill="#000000" font-family="sans-serif" font-size="13" lengthAdjust="spacing" textLength="47" x="403" y="779.9553">Chip for</text><text fill="#000000" font-family="sans-serif" font-size="13" lengthAdjust="spacing" textLength="30" x="403" y="797.6613">Offer</text><line style="stroke:#A80036;stroke-width:2.0;" x1="386" x2="428" y1="888.2943" y2="888.2943"/><line style="stroke:#A80036;stroke-width:2.0;" x1="428" x2="428" y1="888.2943" y2="901.2943"/><line style="stroke:#A80036;stroke-width:2.0;" x1="387" x2="428" y1="901.2943" y2="901.2943"/><polygon fill="#A80036" points="397,897.2943,387,901.2943,397,905.2943,393,901.2943" style="stroke:#A80036;stroke-width:1.0;"/><text fill="#000000" font-family="sans-serif" font-size="13" lengthAdjust="spacing" textLength="32" x="393" y="829.3673">Close</text><text fill="#000000" font-family="sans-serif" font-size="13" lengthAdjust="spacing" textLength="52" x="393" y="847.0733">Gateway</text><text fill="#000000" font-family="sans-serif" font-size="13" lengthAdjust="spacing" textLength="57" x="393" y="864.7793">with User</text><text fill="#000000" font-family="sans-serif" font-size="13" lengthAdjust="spacing" textLength="60" x="393" y="882.4853">Certificate</text><polygon fill="#A80036" points="256,946.7064,246,950.7064,256,954.7064,252,950.7064" style="stroke:#A80036;stroke-width:1.0;"/><line style="stroke:#A80036;stroke-width:2.0;" x1="250" x2="380" y1="950.7064" y2="950.7064"/><text fill="#000000" font-family="sans-serif" font-size="13" lengthAdjust="spacing" textLength="41" x="262" y="927.1914">Return</text><text fill="#000000" font-family="sans-serif" font-size="13" lengthAdjust="spacing" textLength="30" x="262" y="944.8974">Offer</text><polygon fill="#A80036" points="84.5,1031.5304,74.5,1035.5304,84.5,1039.5304,80.5,1035.5304" style="stroke:#A80036;stroke-width:1.0;"/><line style="stroke:#A80036;stroke-width:2.0;" x1="78.5" x2="239" y1="1035.5304" y2="1035.5304"/><text fill="#000000" font-family="sans-serif" font-size="13" lengthAdjust="spacing" textLength="50" x="90.5" y="976.6034">Observe</text><text fill="#000000" font-family="sans-serif" font-size="13" lengthAdjust="spacing" textLength="35" x="90.5" y="994.3094">Direct</text><text fill="#000000" font-family="sans-serif" font-size="13" lengthAdjust="spacing" textLength="55" x="90.5" y="1012.0154">Purchase</text><text fill="#000000" font-family="sans-serif" font-size="13" lengthAdjust="spacing" textLength="30" x="90.5" y="1029.7214">Offer</text><!--MD5=[74ea07c734fec2f8024b5e9f71bdeed0]
@startuml directOffer
skinparam sequenceArrowThickness 2
skinparam roundcorner 20
skinparam maxmessagesize 60
skinparam sequenceParticipant underline
title Carboncoin Direct Coin Purchase (Offer)

actor "Hydrogen Producer" as Producer
participant "Carbon Market Website" as Website
participant "HTTPS API" as API
database "Cryptographic Wallet" as Wallet
box "Carbon Market Blockchain Channel" #LightBlue
participant "Carbon Market Smart Contract" as CMSC 
database "Carbon Market On Chain Database" as CMJD

Producer -> Website: Direct Token Purchase
activate Website

Website -> API: Create Direct Token Purchase
activate API

API -> Wallet: Gather Credentials
activate Wallet

Wallet -> API: Retrun Credentials
deactivate Wallet

API -> CMSC: Get Offer
activate CMSC

CMSC -> CMJD: Perform Index Query (warmed block cut)
activate CMJD

CMJD -> CMSC: Open Market Offer Results
deactivate CMJD

CMSC -> CMSC: Calculate Offer Based on Max Open Market
note right
Max Open Market Offer with Margin Added
end note

CMSC -> API: Return Chip for Offer
deactivate CMSC

API -> API: Close Gateway with User Certificate
API -> Website: Return Offer
deactivate API
Website -> Producer: Observe Direct Purchase Offer
deactivate Website

@enduml

PlantUML version 1.2021.7(Sun May 23 22:40:07 AEST 2021)
(GPL source distribution)
Java Runtime: OpenJDK Runtime Environment
JVM: OpenJDK 64-Bit Server VM
Default Encoding: UTF-8
Language: en
Country: US
--></g></svg>