<?xml version="1.0" encoding="utf-8"?>
<!-- Generator: Adobe Illustrator 24.1.1, SVG Export Plug-In . SVG Version: 6.00 Build 0)  -->
<svg version="1.1" id="Layer_1" xmlns="http://www.w3.org/2000/svg" xmlns:xlink="http://www.w3.org/1999/xlink" x="0px" y="0px"
	 viewBox="0 0 352 352" style="enable-background:new 0 0 352 352;" xml:space="preserve">
<style type="text/css">
	.st0{fill:#F2D054;stroke:#C9A626;stroke-width:20;}
	.st1{fill:#333333;}
	.st2{fill:#939393;}
	.st3{enable-background:new    ;}
	.st4{fill:#FFFFFF;}
	.st5{fill:none;stroke:#FFFFFF;stroke-width:7;}
</style>
<g>
	<ellipse id="svg_1" class="st0" cx="175.8" cy="175.7" rx="163.5" ry="163.5"/>
	<path id="svg_2" class="st1" d="M78.5,206.7v60.3h192.8l-16.7-156.6l-46.4,1.1l-10.7,115.3c0,0.5-8.3-44-8.3-45.1
		s-11.9,20.7-11.9,20.1c0,0.5-13.1-27.7-13.1-28.3c0,0.5-46.4,41.9-46.4,41.3c0,0.5-7.1-22.3-7.1-22.8
		C110.7,192.6,78.5,206.7,78.5,206.7L78.5,206.7z"/>
	<ellipse id="svg_4" class="st2" cx="229.1" cy="85.6" rx="12.1" ry="12.1"/>
	<ellipse id="svg_6" class="st2" cx="239.6" cy="53.2" rx="7.2" ry="7.2"/>
	<g class="st3">
		<path class="st4" d="M240.6,128.5c-2.2,5.7-6.3,10.4-12.3,14.3c-6,3.9-12.2,5.8-18.7,5.8c-3,0-5.5-0.7-7.5-2
			c-1.9-1.3-2.9-3-2.9-5.1c0-2.1,0.8-4.3,2.5-6.6c1.5,0.6,3.2,0.8,5.2,0.8c5.4,0,10.3-1.9,14.9-5.6c4.6-3.7,6.8-8.2,6.8-13.5
			c0-8-5.3-12-15.9-12c-14.1,0-27.8,4.8-41.2,14.5c-13.4,9.7-24.2,22.2-32.4,37.6c-8.2,15.4-12.3,31-12.3,46.9
			c0,24.6,11.2,36.8,33.5,36.8c13.9,0,28.7-5.4,44.3-16.1c15.6-10.8,25.9-22.4,31-35c2.6,1.8,3.9,4.2,3.9,7.2
			c0,6.2-4.4,13.9-13.2,23.1c-8.8,9.2-19.9,16.5-33.3,21.9c-13.4,5.5-27,8.2-41,8.2c-32.4,0-48.6-15.1-48.6-45.3
			c0-11.5,2.6-23.4,7.7-35.9c5.1-12.5,12-24.1,20.7-34.8c8.7-10.7,19.6-19.5,32.6-26.4c13-6.9,25.9-10.3,38.6-10.3
			c12.7,0,22.4,2.2,29.2,6.5c6.8,4.3,10.1,9.9,10.1,16.7C242.2,122.7,241.7,125.4,240.6,128.5z"/>
	</g>
	<g class="st3">
		<path class="st5" d="M240.6,128.5c-2.2,5.7-6.3,10.4-12.3,14.3c-6,3.9-12.2,5.8-18.7,5.8c-3,0-5.5-0.7-7.5-2
			c-1.9-1.3-2.9-3-2.9-5.1c0-2.1,0.8-4.3,2.5-6.6c1.5,0.6,3.2,0.8,5.2,0.8c5.4,0,10.3-1.9,14.9-5.6c4.6-3.7,6.8-8.2,6.8-13.5
			c0-8-5.3-12-15.9-12c-14.1,0-27.8,4.8-41.2,14.5c-13.4,9.7-24.2,22.2-32.4,37.6c-8.2,15.4-12.3,31-12.3,46.9
			c0,24.6,11.2,36.8,33.5,36.8c13.9,0,28.7-5.4,44.3-16.1c15.6-10.8,25.9-22.4,31-35c2.6,1.8,3.9,4.2,3.9,7.2
			c0,6.2-4.4,13.9-13.2,23.1c-8.8,9.2-19.9,16.5-33.3,21.9c-13.4,5.5-27,8.2-41,8.2c-32.4,0-48.6-15.1-48.6-45.3
			c0-11.5,2.6-23.4,7.7-35.9c5.1-12.5,12-24.1,20.7-34.8c8.7-10.7,19.6-19.5,32.6-26.4c13-6.9,25.9-10.3,38.6-10.3
			c12.7,0,22.4,2.2,29.2,6.5c6.8,4.3,10.1,9.9,10.1,16.7C242.2,122.7,241.7,125.4,240.6,128.5z"/>
	</g>
</g>
</svg>
