<?xml version="1.0" encoding="UTF-8" standalone="no"?><svg xmlns="http://www.w3.org/2000/svg" xmlns:xlink="http://www.w3.org/1999/xlink" contentScriptType="application/ecmascript" contentStyleType="text/css" height="1064px" preserveAspectRatio="none" style="width:1062px;height:1064px;background:#FFFFFF;" version="1.1" viewBox="0 0 1062 1064" width="1062px" zoomAndPan="magnify"><defs><filter height="300%" id="f12e659pu8hlhp" width="300%" x="-1" y="-1"><feGaussianBlur result="blurOut" stdDeviation="2.0"/><feColorMatrix in="blurOut" result="blurOut2" type="matrix" values="0 0 0 0 0 0 0 0 0 0 0 0 0 0 0 0 0 0 .4 0"/><feOffset dx="4.0" dy="4.0" in="blurOut2" result="blurOut3"/><feBlend in="SourceGraphic" in2="blurOut3" mode="normal"/></filter></defs><g><text fill="#000000" font-family="sans-serif" font-size="18" lengthAdjust="spacing" textLength="363" x="347.5" y="31.2419">Carboncoin Direct Coin Purchase (Redeem)</text><rect fill="#ADD8E6" height="1013.8283" rx="10" ry="10" style="stroke:#A80036;stroke-width:1.0;" width="454" x="588" y="44.5158"/><text fill="#000000" font-family="sans-serif" font-size="13" font-weight="bold" lengthAdjust="spacing" textLength="232" x="699" y="58.4129">Carbon Market Blockchain Channel</text><rect fill="#FFFFFF" filter="url(#f12e659pu8hlhp)" height="752.5744" style="stroke:#A80036;stroke-width:1.0;" width="10" x="235" y="198.7018"/><rect fill="#FFFFFF" filter="url(#f12e659pu8hlhp)" height="565.2203" style="stroke:#A80036;stroke-width:1.0;" width="10" x="376" y="283.5259"/><rect fill="#FFFFFF" filter="url(#f12e659pu8hlhp)" height="49.412" style="stroke:#A80036;stroke-width:1.0;" width="10" x="503" y="332.9379"/><rect fill="#FFFFFF" filter="url(#f12e659pu8hlhp)" height="224.63" style="stroke:#A80036;stroke-width:1.0;" width="10" x="698.5" y="449.468"/><rect fill="#FFFFFF" filter="url(#f12e659pu8hlhp)" height="67.118" style="stroke:#A80036;stroke-width:1.0;" width="10" x="926.5" y="507.88"/><rect fill="#FFFFFF" filter="url(#f12e659pu8hlhp)" height="202.63" rx="10" ry="10" style="stroke:#000000;stroke-width:2.0;" width="720" x="328" y="464.468"/><rect fill="#FFFFFF" height="84.0999" style="stroke:none;stroke-width:1.0;" width="720" x="328" y="582.9981"/><line style="stroke:#A80036;stroke-width:1.0;stroke-dasharray:5.0,5.0;" x1="73" x2="73" y1="129.5838" y2="969.2762"/><line style="stroke:#A80036;stroke-width:1.0;stroke-dasharray:5.0,5.0;" x1="240" x2="240" y1="129.5838" y2="969.2762"/><line style="stroke:#A80036;stroke-width:1.0;stroke-dasharray:5.0,5.0;" x1="381" x2="381" y1="129.5838" y2="969.2762"/><line style="stroke:#A80036;stroke-width:1.0;stroke-dasharray:5.0,5.0;" x1="508" x2="508" y1="129.5838" y2="969.2762"/><line style="stroke:#A80036;stroke-width:1.0;stroke-dasharray:5.0,5.0;" x1="703" x2="703" y1="129.5838" y2="969.2762"/><line style="stroke:#A80036;stroke-width:1.0;stroke-dasharray:5.0,5.0;" x1="931" x2="931" y1="129.5838" y2="969.2762"/><text fill="#000000" font-family="sans-serif" font-size="14" lengthAdjust="spacing" text-decoration="underline" textLength="131" x="5" y="125.4818">Hydrogen Producer</text><ellipse cx="73.5" cy="53.5158" fill="#FEFECE" filter="url(#f12e659pu8hlhp)" rx="8" ry="8" style="stroke:#A80036;stroke-width:2.0;"/><path d="M73.5,61.5158 L73.5,88.5158 M60.5,69.5158 L86.5,69.5158 M73.5,88.5158 L60.5,103.5158 M73.5,88.5158 L86.5,103.5158 " fill="none" filter="url(#f12e659pu8hlhp)" style="stroke:#A80036;stroke-width:2.0;"/><text fill="#000000" font-family="sans-serif" font-size="14" lengthAdjust="spacing" text-decoration="underline" textLength="131" x="5" y="983.2422">Hydrogen Producer</text><ellipse cx="73.5" cy="997.3441" fill="#FEFECE" filter="url(#f12e659pu8hlhp)" rx="8" ry="8" style="stroke:#A80036;stroke-width:2.0;"/><path d="M73.5,1005.3441 L73.5,1032.3441 M60.5,1013.3441 L86.5,1013.3441 M73.5,1032.3441 L60.5,1047.3441 M73.5,1032.3441 L86.5,1047.3441 " fill="none" filter="url(#f12e659pu8hlhp)" style="stroke:#A80036;stroke-width:2.0;"/><rect fill="#FEFECE" filter="url(#f12e659pu8hlhp)" height="33.0679" rx="10" ry="10" style="stroke:#A80036;stroke-width:1.5;" width="172" x="152" y="91.5158"/><text fill="#000000" font-family="sans-serif" font-size="14" lengthAdjust="spacing" text-decoration="underline" textLength="158" x="159" y="113.4818">Carbon Market Website</text><rect fill="#FEFECE" filter="url(#f12e659pu8hlhp)" height="33.0679" rx="10" ry="10" style="stroke:#A80036;stroke-width:1.5;" width="172" x="152" y="968.2762"/><text fill="#000000" font-family="sans-serif" font-size="14" lengthAdjust="spacing" text-decoration="underline" textLength="158" x="159" y="990.2422">Carbon Market Website</text><rect fill="#FEFECE" filter="url(#f12e659pu8hlhp)" height="33.0679" rx="10" ry="10" style="stroke:#A80036;stroke-width:1.5;" width="82" x="338" y="91.5158"/><text fill="#000000" font-family="sans-serif" font-size="14" lengthAdjust="spacing" text-decoration="underline" textLength="68" x="345" y="113.4818">HTTPS API</text><rect fill="#FEFECE" filter="url(#f12e659pu8hlhp)" height="33.0679" rx="10" ry="10" style="stroke:#A80036;stroke-width:1.5;" width="82" x="338" y="968.2762"/><text fill="#000000" font-family="sans-serif" font-size="14" lengthAdjust="spacing" text-decoration="underline" textLength="68" x="345" y="990.2422">HTTPS API</text><text fill="#000000" font-family="sans-serif" font-size="14" lengthAdjust="spacing" text-decoration="underline" textLength="142" x="434" y="125.4818">Cryptographic Wallet</text><path d="M490,74.5158 C490,64.5158 508,64.5158 508,64.5158 C508,64.5158 526,64.5158 526,74.5158 L526,100.5158 C526,110.5158 508,110.5158 508,110.5158 C508,110.5158 490,110.5158 490,100.5158 L490,74.5158 " fill="#FEFECE" filter="url(#f12e659pu8hlhp)" style="stroke:#000000;stroke-width:1.5;"/><path d="M490,74.5158 C490,84.5158 508,84.5158 508,84.5158 C508,84.5158 526,84.5158 526,74.5158 " fill="none" style="stroke:#000000;stroke-width:1.5;"/><text fill="#000000" font-family="sans-serif" font-size="14" lengthAdjust="spacing" text-decoration="underline" textLength="142" x="434" y="983.2422">Cryptographic Wallet</text><path d="M490,997.3441 C490,987.3441 508,987.3441 508,987.3441 C508,987.3441 526,987.3441 526,997.3441 L526,1023.3441 C526,1033.3441 508,1033.3441 508,1033.3441 C508,1033.3441 490,1033.3441 490,1023.3441 L490,997.3441 " fill="#FEFECE" filter="url(#f12e659pu8hlhp)" style="stroke:#000000;stroke-width:1.5;"/><path d="M490,997.3441 C490,1007.3441 508,1007.3441 508,1007.3441 C508,1007.3441 526,1007.3441 526,997.3441 " fill="none" style="stroke:#000000;stroke-width:1.5;"/><rect fill="#FEFECE" filter="url(#f12e659pu8hlhp)" height="33.0679" rx="10" ry="10" style="stroke:#A80036;stroke-width:1.5;" width="219" x="592" y="91.5158"/><text fill="#000000" font-family="sans-serif" font-size="14" lengthAdjust="spacing" text-decoration="underline" textLength="205" x="599" y="113.4818">Carbon Market Smart Contract</text><rect fill="#FEFECE" filter="url(#f12e659pu8hlhp)" height="33.0679" rx="10" ry="10" style="stroke:#A80036;stroke-width:1.5;" width="219" x="592" y="968.2762"/><text fill="#000000" font-family="sans-serif" font-size="14" lengthAdjust="spacing" text-decoration="underline" textLength="205" x="599" y="990.2422">Carbon Market Smart Contract</text><rect fill="#FEFECE" filter="url(#f12e659pu8hlhp)" height="33.0679" rx="10" ry="10" style="stroke:#A80036;stroke-width:1.5;" width="209" x="825" y="91.5158"/><text fill="#000000" font-family="sans-serif" font-size="14" lengthAdjust="spacing" text-decoration="underline" textLength="195" x="832" y="113.4818">Carbon Market Coin Contract</text><rect fill="#FEFECE" filter="url(#f12e659pu8hlhp)" height="33.0679" rx="10" ry="10" style="stroke:#A80036;stroke-width:1.5;" width="209" x="825" y="968.2762"/><text fill="#000000" font-family="sans-serif" font-size="14" lengthAdjust="spacing" text-decoration="underline" textLength="195" x="832" y="990.2422">Carbon Market Coin Contract</text><rect fill="#FFFFFF" filter="url(#f12e659pu8hlhp)" height="752.5744" style="stroke:#A80036;stroke-width:1.0;" width="10" x="235" y="198.7018"/><rect fill="#FFFFFF" filter="url(#f12e659pu8hlhp)" height="565.2203" style="stroke:#A80036;stroke-width:1.0;" width="10" x="376" y="283.5259"/><rect fill="#FFFFFF" filter="url(#f12e659pu8hlhp)" height="49.412" style="stroke:#A80036;stroke-width:1.0;" width="10" x="503" y="332.9379"/><rect fill="#FFFFFF" filter="url(#f12e659pu8hlhp)" height="224.63" style="stroke:#A80036;stroke-width:1.0;" width="10" x="698.5" y="449.468"/><rect fill="#FFFFFF" filter="url(#f12e659pu8hlhp)" height="67.118" style="stroke:#A80036;stroke-width:1.0;" width="10" x="926.5" y="507.88"/><polygon fill="#A80036" points="223,194.7018,233,198.7018,223,202.7018,227,198.7018" style="stroke:#A80036;stroke-width:1.0;"/><line style="stroke:#A80036;stroke-width:2.0;" x1="73.5" x2="229" y1="198.7018" y2="198.7018"/><text fill="#000000" font-family="sans-serif" font-size="13" lengthAdjust="spacing" textLength="35" x="80.5" y="157.4808">Direct</text><text fill="#000000" font-family="sans-serif" font-size="13" lengthAdjust="spacing" textLength="37" x="80.5" y="175.1868">Token</text><text fill="#000000" font-family="sans-serif" font-size="13" lengthAdjust="spacing" textLength="55" x="80.5" y="192.8928">Purchase</text><polygon fill="#A80036" points="364,279.5259,374,283.5259,364,287.5259,368,283.5259" style="stroke:#A80036;stroke-width:1.0;"/><line style="stroke:#A80036;stroke-width:2.0;" x1="245" x2="370" y1="283.5259" y2="283.5259"/><text fill="#000000" font-family="sans-serif" font-size="13" lengthAdjust="spacing" textLength="49" x="252" y="224.5988">Redeem</text><text fill="#000000" font-family="sans-serif" font-size="13" lengthAdjust="spacing" textLength="35" x="252" y="242.3048">Direct</text><text fill="#000000" font-family="sans-serif" font-size="13" lengthAdjust="spacing" textLength="37" x="252" y="260.0109">Token</text><text fill="#000000" font-family="sans-serif" font-size="13" lengthAdjust="spacing" textLength="55" x="252" y="277.7169">Purchase</text><polygon fill="#A80036" points="491,328.9379,501,332.9379,491,336.9379,495,332.9379" style="stroke:#A80036;stroke-width:1.0;"/><line style="stroke:#A80036;stroke-width:2.0;" x1="386" x2="497" y1="332.9379" y2="332.9379"/><text fill="#000000" font-family="sans-serif" font-size="13" lengthAdjust="spacing" textLength="41" x="393" y="309.4229">Gather</text><text fill="#000000" font-family="sans-serif" font-size="13" lengthAdjust="spacing" textLength="67" x="393" y="327.1289">Credentials</text><polygon fill="#A80036" points="397,378.3499,387,382.3499,397,386.3499,393,382.3499" style="stroke:#A80036;stroke-width:1.0;"/><line style="stroke:#A80036;stroke-width:2.0;" x1="391" x2="507" y1="382.3499" y2="382.3499"/><text fill="#000000" font-family="sans-serif" font-size="13" lengthAdjust="spacing" textLength="41" x="403" y="358.8349">Retrun</text><text fill="#000000" font-family="sans-serif" font-size="13" lengthAdjust="spacing" textLength="67" x="403" y="376.5409">Credentials</text><polygon fill="#A80036" points="686.5,445.468,696.5,449.468,686.5,453.468,690.5,449.468" style="stroke:#A80036;stroke-width:1.0;"/><line style="stroke:#A80036;stroke-width:2.0;" x1="386" x2="692.5" y1="449.468" y2="449.468"/><text fill="#000000" font-family="sans-serif" font-size="13" lengthAdjust="spacing" textLength="54" x="393" y="408.247">Get Offer</text><text fill="#000000" font-family="sans-serif" font-size="13" lengthAdjust="spacing" textLength="17" x="393" y="425.953">for</text><text fill="#000000" font-family="sans-serif" font-size="13" lengthAdjust="spacing" textLength="55" x="393" y="443.659">Producer</text><path d="M338,464.468 L391,464.468 L391,473.468 L381,483.468 L328,483.468 L328,474.468 " fill="#EEEEEE" style="stroke:#000000;stroke-width:1.0;"/><rect fill="none" height="202.63" rx="10" ry="10" style="stroke:#000000;stroke-width:2.0;" width="720" x="328" y="464.468"/><text fill="#000000" font-family="sans-serif" font-size="13" font-weight="bold" lengthAdjust="spacing" textLength="18" x="343" y="479.365">alt</text><text fill="#000000" font-family="sans-serif" font-size="11" font-weight="bold" lengthAdjust="spacing" textLength="83" x="406" y="478.2269">[Offer Present]</text><polygon fill="#A80036" points="914.5,503.88,924.5,507.88,914.5,511.88,918.5,507.88" style="stroke:#A80036;stroke-width:1.0;"/><line style="stroke:#A80036;stroke-width:2.0;" x1="708.5" x2="920.5" y1="507.88" y2="507.88"/><text fill="#000000" font-family="sans-serif" font-size="13" lengthAdjust="spacing" textLength="58" x="715.5" y="502.071">Mint Coin</text><polygon fill="#A80036" points="719.5,570.9981,709.5,574.9981,719.5,578.9981,715.5,574.9981" style="stroke:#A80036;stroke-width:1.0;"/><line style="stroke:#A80036;stroke-width:2.0;" x1="713.5" x2="930.5" y1="574.9981" y2="574.9981"/><text fill="#000000" font-family="sans-serif" font-size="13" lengthAdjust="spacing" textLength="41" x="725.5" y="533.777">Return</text><text fill="#000000" font-family="sans-serif" font-size="13" lengthAdjust="spacing" textLength="47" x="725.5" y="551.4831">Minting</text><text fill="#000000" font-family="sans-serif" font-size="13" lengthAdjust="spacing" textLength="37" x="725.5" y="569.1891">Result</text><line style="stroke:#000000;stroke-width:1.0;stroke-dasharray:2.0,2.0;" x1="328" x2="1048" y1="583.9981" y2="583.9981"/><text fill="#000000" font-family="sans-serif" font-size="11" font-weight="bold" lengthAdjust="spacing" textLength="107" x="333" y="595.757">[Offer Not Present]</text><polygon fill="#A80036" points="397,655.098,387,659.098,397,663.098,393,659.098" style="stroke:#A80036;stroke-width:1.0;"/><line style="stroke:#A80036;stroke-width:2.0;" x1="391" x2="697.5" y1="659.098" y2="659.098"/><text fill="#000000" font-family="sans-serif" font-size="13" lengthAdjust="spacing" textLength="28" x="403" y="617.877">User</text><text fill="#000000" font-family="sans-serif" font-size="13" lengthAdjust="spacing" textLength="52" x="403" y="635.583">Requires</text><text fill="#000000" font-family="sans-serif" font-size="13" lengthAdjust="spacing" textLength="60" x="403" y="653.289">Offer Chip</text><line style="stroke:#A80036;stroke-width:2.0;" x1="386" x2="428" y1="750.9221" y2="750.9221"/><line style="stroke:#A80036;stroke-width:2.0;" x1="428" x2="428" y1="750.9221" y2="763.9221"/><line style="stroke:#A80036;stroke-width:2.0;" x1="387" x2="428" y1="763.9221" y2="763.9221"/><polygon fill="#A80036" points="397,759.9221,387,763.9221,397,767.9221,393,763.9221" style="stroke:#A80036;stroke-width:1.0;"/><text fill="#000000" font-family="sans-serif" font-size="13" lengthAdjust="spacing" textLength="32" x="393" y="691.995">Close</text><text fill="#000000" font-family="sans-serif" font-size="13" lengthAdjust="spacing" textLength="52" x="393" y="709.701">Gateway</text><text fill="#000000" font-family="sans-serif" font-size="13" lengthAdjust="spacing" textLength="57" x="393" y="727.4071">with User</text><text fill="#000000" font-family="sans-serif" font-size="13" lengthAdjust="spacing" textLength="60" x="393" y="745.1131">Certificate</text><polygon fill="#A80036" points="256,844.7461,246,848.7461,256,852.7461,252,848.7461" style="stroke:#A80036;stroke-width:1.0;"/><line style="stroke:#A80036;stroke-width:2.0;" x1="250" x2="380" y1="848.7461" y2="848.7461"/><text fill="#000000" font-family="sans-serif" font-size="13" lengthAdjust="spacing" textLength="41" x="262" y="789.8191">Return</text><text fill="#000000" font-family="sans-serif" font-size="13" lengthAdjust="spacing" textLength="30" x="262" y="807.5251">Offer</text><text fill="#000000" font-family="sans-serif" font-size="13" lengthAdjust="spacing" textLength="55" x="262" y="825.2311">Purchase</text><text fill="#000000" font-family="sans-serif" font-size="13" lengthAdjust="spacing" textLength="37" x="262" y="842.9371">Result</text><polygon fill="#A80036" points="84.5,947.2762,74.5,951.2762,84.5,955.2762,80.5,951.2762" style="stroke:#A80036;stroke-width:1.0;"/><line style="stroke:#A80036;stroke-width:2.0;" x1="78.5" x2="239" y1="951.2762" y2="951.2762"/><text fill="#000000" font-family="sans-serif" font-size="13" lengthAdjust="spacing" textLength="50" x="90.5" y="874.6432">Observe</text><text fill="#000000" font-family="sans-serif" font-size="13" lengthAdjust="spacing" textLength="35" x="90.5" y="892.3492">Direct</text><text fill="#000000" font-family="sans-serif" font-size="13" lengthAdjust="spacing" textLength="55" x="90.5" y="910.0552">Purchase</text><text fill="#000000" font-family="sans-serif" font-size="13" lengthAdjust="spacing" textLength="30" x="90.5" y="927.7612">Offer</text><text fill="#000000" font-family="sans-serif" font-size="13" lengthAdjust="spacing" textLength="37" x="90.5" y="945.4672">Result</text><!--MD5=[86d6e49ba153b619427592118d315782]
@startuml directOfferRedeem
skinparam sequenceArrowThickness 2
skinparam roundcorner 20
skinparam maxmessagesize 60
skinparam sequenceParticipant underline
title Carboncoin Direct Coin Purchase (Redeem)

actor "Hydrogen Producer" as Producer
participant "Carbon Market Website" as Website
participant "HTTPS API" as API
database "Cryptographic Wallet" as Wallet
box "Carbon Market Blockchain Channel" #LightBlue
participant "Carbon Market Smart Contract" as CMSC 
participant "Carbon Market Coin Contract" as CMCC

Producer -> Website: Direct Token Purchase
activate Website

Website -> API: Redeem Direct Token Purchase
activate API

API -> Wallet: Gather Credentials
activate Wallet

Wallet -> API: Retrun Credentials
deactivate Wallet

API -> CMSC: Get Offer for Producer
activate CMSC

alt Offer Present
    CMSC -> CMCC: Mint Coin
    activate CMCC
    CMCC -> CMSC: Return Minting Result
    deactivate CMCC
else Offer Not Present
    CMSC -> API: User Requires Offer Chip
end

deactivate CMSC

deactivate CMSC

API -> API: Close Gateway with User Certificate
API -> Website: Return Offer Purchase Result
deactivate API
Website -> Producer: Observe Direct Purchase Offer Result
deactivate Website

@enduml

PlantUML version 1.2021.7(Sun May 23 22:40:07 AEST 2021)
(GPL source distribution)
Java Runtime: OpenJDK Runtime Environment
JVM: OpenJDK 64-Bit Server VM
Default Encoding: UTF-8
Language: en
Country: US
--></g></svg>