<?xml version="1.0" encoding="UTF-8" standalone="no"?><svg xmlns="http://www.w3.org/2000/svg" xmlns:xlink="http://www.w3.org/1999/xlink" contentScriptType="application/ecmascript" contentStyleType="text/css" height="1175px" preserveAspectRatio="none" style="width:862px;height:1175px;" version="1.1" viewBox="0 0 862 1175" width="862px" zoomAndPan="magnify"><defs><filter height="300%" id="fi4yhzzicr1im" width="300%" x="-1" y="-1"><feGaussianBlur result="blurOut" stdDeviation="2.0"/><feColorMatrix in="blurOut" result="blurOut2" type="matrix" values="0 0 0 0 0 0 0 0 0 0 0 0 0 0 0 0 0 0 .4 0"/><feOffset dx="4.0" dy="4.0" in="blurOut2" result="blurOut3"/><feBlend in="SourceGraphic" in2="blurOut3" mode="normal"/></filter></defs><g><!--MD5=[7dd4f529630c75dee7ed3571ed2729dd]
cluster Carbon Market Channel--><polygon fill="#FFFFFF" filter="url(#fi4yhzzicr1im)" points="222,6,397,6,404,28.4883,845,28.4883,845,1156,222,1156,222,6" style="stroke:#000000;stroke-width:1.5;"/><line style="stroke:#000000;stroke-width:1.5;" x1="222" x2="404" y1="28.4883" y2="28.4883"/><text fill="#000000" font-family="sans-serif" font-size="14" font-weight="bold" lengthAdjust="spacing" textLength="169" x="226" y="21.5352">Carbon Market Channel</text><ellipse cx="376.2247" cy="714.9449" fill="#FEFECE" filter="url(#fi4yhzzicr1im)" rx="95.2247" ry="21.4449" style="stroke:#A80036;stroke-width:1.5;"/><text fill="#000000" font-family="sans-serif" font-size="14" lengthAdjust="spacing" textLength="153" x="299.7247" y="718.236">Direct Token Purchase</text><ellipse cx="376.0312" cy="962.0062" fill="#FEFECE" filter="url(#fi4yhzzicr1im)" rx="85.5312" ry="19.5062" style="stroke:#A80036;stroke-width:1.5;"/><text fill="#000000" font-family="sans-serif" font-size="14" lengthAdjust="spacing" textLength="131" x="310.5312" y="965.2973">Set Price Per Token</text><ellipse cx="375.899" cy="152.1798" fill="#FEFECE" filter="url(#fi4yhzzicr1im)" rx="86.399" ry="19.6798" style="stroke:#A80036;stroke-width:1.5;"/><text fill="#000000" font-family="sans-serif" font-size="14" lengthAdjust="spacing" textLength="133" x="309.399" y="155.4708">Sell Carbon Tokens</text><ellipse cx="376.1409" cy="431.0282" fill="#FEFECE" filter="url(#fi4yhzzicr1im)" rx="105.6409" ry="23.5282" style="stroke:#A80036;stroke-width:1.5;"/><text fill="#000000" font-family="sans-serif" font-size="14" lengthAdjust="spacing" textLength="176" x="288.1409" y="434.3192">View Market Token Offers</text><ellipse cx="375.9496" cy="801.9899" fill="#FEFECE" filter="url(#fi4yhzzicr1im)" rx="137.9496" ry="29.9899" style="stroke:#A80036;stroke-width:1.5;"/><text fill="#000000" font-family="sans-serif" font-size="14" lengthAdjust="spacing" textLength="245" x="253.4496" y="805.2809">View Unspent Hydrogen Certificates</text><ellipse cx="375.7698" cy="886.854" fill="#FEFECE" filter="url(#fi4yhzzicr1im)" rx="87.2698" ry="19.854" style="stroke:#A80036;stroke-width:1.5;"/><text fill="#000000" font-family="sans-serif" font-size="14" lengthAdjust="spacing" textLength="135" x="308.2698" y="890.145">View Token Balance</text><ellipse cx="376.0197" cy="61.2039" fill="#FEFECE" filter="url(#fi4yhzzicr1im)" rx="89.0197" ry="20.2039" style="stroke:#A80036;stroke-width:1.5;"/><text fill="#000000" font-family="sans-serif" font-size="14" lengthAdjust="spacing" textLength="139" x="306.5197" y="64.495">Set Quantity Offered</text><ellipse cx="376.0312" cy="243.0062" fill="#FEFECE" filter="url(#fi4yhzzicr1im)" rx="85.5312" ry="19.5062" style="stroke:#A80036;stroke-width:1.5;"/><text fill="#000000" font-family="sans-serif" font-size="14" lengthAdjust="spacing" textLength="131" x="310.5312" y="246.2973">Set Price Per Token</text><ellipse cx="376.2494" cy="326.8499" fill="#FEFECE" filter="url(#fi4yhzzicr1im)" rx="132.2494" ry="28.8499" style="stroke:#A80036;stroke-width:1.5;"/><text fill="#000000" font-family="sans-serif" font-size="14" lengthAdjust="spacing" textLength="233" x="259.7494" y="330.1409">Filter on Seller Carbon Reputation</text><ellipse cx="376.0143" cy="531.0029" fill="#FEFECE" filter="url(#fi4yhzzicr1im)" rx="113.0143" ry="25.0029" style="stroke:#A80036;stroke-width:1.5;"/><text fill="#000000" font-family="sans-serif" font-size="14" lengthAdjust="spacing" textLength="192" x="280.0143" y="534.2939">Purchase Tokens from Offer</text><ellipse cx="375.9421" cy="633.1884" fill="#FEFECE" filter="url(#fi4yhzzicr1im)" rx="113.9421" ry="25.1884" style="stroke:#A80036;stroke-width:1.5;"/><text fill="#000000" font-family="sans-serif" font-size="14" lengthAdjust="spacing" textLength="194" x="278.9421" y="636.4794">Specify Quantity to Purchase</text><ellipse cx="376.1648" cy="1121.233" fill="#FEFECE" filter="url(#fi4yhzzicr1im)" rx="81.6648" ry="18.733" style="stroke:#A80036;stroke-width:1.5;"/><text fill="#000000" font-family="sans-serif" font-size="14" lengthAdjust="spacing" textLength="122" x="315.1648" y="1124.524">Submit Certificate</text><ellipse cx="375.8433" cy="1034.0687" fill="#FEFECE" filter="url(#fi4yhzzicr1im)" rx="73.3433" ry="17.0687" style="stroke:#A80036;stroke-width:1.5;"/><text fill="#000000" font-family="sans-serif" font-size="14" lengthAdjust="spacing" textLength="102" x="324.7256" y="1037.3922">Deduct Tokens</text><ellipse cx="727.5363" cy="431.2073" fill="#FEFECE" filter="url(#fi4yhzzicr1im)" rx="101.5363" ry="22.7073" style="stroke:#A80036;stroke-width:1.5;"/><text fill="#000000" font-family="sans-serif" font-size="14" lengthAdjust="spacing" textLength="167" x="644.0363" y="434.4983">Filter on Price Per Token</text><ellipse cx="727.2871" cy="715.0574" fill="#FEFECE" filter="url(#fi4yhzzicr1im)" rx="78.2871" ry="18.0574" style="stroke:#A80036;stroke-width:1.5;"/><text fill="#000000" font-family="sans-serif" font-size="14" lengthAdjust="spacing" textLength="114" x="670.2871" y="718.3484">Specifiy Quantity</text><!--MD5=[f69422155b3557745ff04b562dc97981]
entity hp--><ellipse cx="90.5" cy="684" fill="#FEFECE" filter="url(#fi4yhzzicr1im)" rx="8" ry="8" style="stroke:#A80036;stroke-width:1.5;"/><path d="M90.5,692 L90.5,719 M77.5,700 L103.5,700 M90.5,719 L77.5,734 M90.5,719 L103.5,734 " fill="none" filter="url(#fi4yhzzicr1im)" style="stroke:#A80036;stroke-width:1.5;"/><text fill="#000000" font-family="sans-serif" font-size="14" lengthAdjust="spacing" textLength="133" x="24" y="753.0352">Hydrogen Producer</text><!--MD5=[99c5416311fbf9d118be657efd773f39]
entity ma--><ellipse cx="90.5" cy="931" fill="#FEFECE" filter="url(#fi4yhzzicr1im)" rx="8" ry="8" style="stroke:#A80036;stroke-width:1.5;"/><path d="M90.5,939 L90.5,966 M77.5,947 L103.5,947 M90.5,966 L77.5,981 M90.5,966 L103.5,981 " fill="none" filter="url(#fi4yhzzicr1im)" style="stroke:#A80036;stroke-width:1.5;"/><text fill="#000000" font-family="sans-serif" font-size="14" lengthAdjust="spacing" textLength="146" x="17.5" y="1000.0352">Market Administrator</text><!--MD5=[a9f1db7c946eb6cf0947375227459598]
entity BlockCert--><ellipse cx="90.5" cy="1097.9883" fill="#FEFECE" filter="url(#fi4yhzzicr1im)" rx="8" ry="8" style="stroke:#A80036;stroke-width:1.5;"/><path d="M90.5,1105.9883 L90.5,1132.9883 M77.5,1113.9883 L103.5,1113.9883 M90.5,1132.9883 L77.5,1147.9883 M90.5,1132.9883 L103.5,1147.9883 " fill="none" filter="url(#fi4yhzzicr1im)" style="stroke:#A80036;stroke-width:1.5;"/><text fill="#000000" font-family="sans-serif" font-size="14" lengthAdjust="spacing" textLength="127" x="27" y="1167.0234">Hyrdogen Certifier</text><text fill="#000000" font-family="sans-serif" font-size="14" font-style="italic" lengthAdjust="spacing" textLength="169" x="6" y="1085.5352">«Blockchain Application»</text><!--MD5=[d73a34809e49c64c0a71da66f63e9867]
link UC3 to UC7--><path d="M376,132.25 C376,118.75 376,100.74 376,86.2 " fill="none" id="UC3-to-UC7" style="stroke:#A80036;stroke-width:1.0;stroke-dasharray:7.0,7.0;"/><polygon fill="#A80036" points="376,81.02,372,90.02,376,86.02,380,90.02,376,81.02" style="stroke:#A80036;stroke-width:1.0;"/><text fill="#000000" font-family="sans-serif" font-size="13" lengthAdjust="spacing" textLength="46" x="341.5" y="111.8184">include</text><!--MD5=[dc91f5f9e426b3f4d06ae2005575c5af]
reverse link UC8 to UC3--><path d="M376,218.05 C376,203.46 376,185.29 376,171.71 " fill="none" id="UC8-backto-UC3" style="stroke:#A80036;stroke-width:1.0;stroke-dasharray:7.0,7.0;"/><polygon fill="#A80036" points="376,223.25,380,214.25,376,218.25,372,214.25,376,223.25" style="stroke:#A80036;stroke-width:1.0;"/><text fill="#000000" font-family="sans-serif" font-size="13" lengthAdjust="spacing" textLength="46" x="341.5" y="202.5684">include</text><!--MD5=[553f9b986593943f6e01085dcf166857]
link UC4 to UC9--><path d="M376,407.4 C376,393.72 376,376.27 376,361.12 " fill="none" id="UC4-to-UC9" style="stroke:#A80036;stroke-width:1.0;stroke-dasharray:7.0,7.0;"/><polygon fill="#A80036" points="376,356.08,372,365.08,376,361.08,380,365.08,376,356.08" style="stroke:#A80036;stroke-width:1.0;"/><text fill="#000000" font-family="sans-serif" font-size="13" lengthAdjust="spacing" textLength="50" x="339.5" y="386.8184">extends</text><!--MD5=[4749493dc3dcd2eeeaa37a4babe4c080]
reverse link UC10 to UC4--><path d="M376,500.46 C376,485.68 376,468.23 376,454.51 " fill="none" id="UC10-backto-UC4" style="stroke:#A80036;stroke-width:1.0;stroke-dasharray:7.0,7.0;"/><polygon fill="#A80036" points="376,505.77,380,496.77,376,500.77,372,496.77,376,505.77" style="stroke:#A80036;stroke-width:1.0;"/><text fill="#000000" font-family="sans-serif" font-size="13" lengthAdjust="spacing" textLength="50" x="339.5" y="485.3184">extends</text><!--MD5=[30592de8d542e4a8acc8bb3d612509f7]
link UC4 to UC14--><path d="M481.86,431 C525.81,431 576.82,431 620.85,431 " fill="none" id="UC4-to-UC14" style="stroke:#A80036;stroke-width:1.0;stroke-dasharray:7.0,7.0;"/><polygon fill="#A80036" points="625.91,431,616.91,427,620.91,431,616.91,435,625.91,431" style="stroke:#A80036;stroke-width:1.0;"/><text fill="#000000" font-family="sans-serif" font-size="13" lengthAdjust="spacing" textLength="50" x="545" y="427.5684">extends</text><!--MD5=[9a11b407ae1929f93f11f8f8c3b03b1b]
reverse link UC11 to UC10--><path d="M376,602.49 C376,587.75 376,570.26 376,556.28 " fill="none" id="UC11-backto-UC10" style="stroke:#A80036;stroke-width:1.0;stroke-dasharray:7.0,7.0;"/><polygon fill="#A80036" points="376,607.79,380,598.79,376,602.79,372,598.79,376,607.79" style="stroke:#A80036;stroke-width:1.0;"/><text fill="#000000" font-family="sans-serif" font-size="13" lengthAdjust="spacing" textLength="46" x="341.5" y="587.0684">include</text><!--MD5=[a5bfe2ac6b84bb6fdfcbbfef96600d0f]
link UC12 to UC13--><path d="M376,1102.12 C376,1088.59 376,1070.32 376,1056.11 " fill="none" id="UC12-to-UC13" style="stroke:#A80036;stroke-width:1.0;stroke-dasharray:7.0,7.0;"/><polygon fill="#A80036" points="376,1051.07,372,1060.07,376,1056.07,380,1060.07,376,1051.07" style="stroke:#A80036;stroke-width:1.0;"/><text fill="#000000" font-family="sans-serif" font-size="13" lengthAdjust="spacing" textLength="46" x="341.5" y="1081.8184">include</text><!--MD5=[c489439244c07e621a4ed36251f0fc3b]
link UC1 to UC15--><path d="M471.12,715 C524.87,715 591.66,715 643.46,715 " fill="none" id="UC1-to-UC15" style="stroke:#A80036;stroke-width:1.0;stroke-dasharray:7.0,7.0;"/><polygon fill="#A80036" points="648.74,715,639.74,711,643.74,715,639.74,719,648.74,715" style="stroke:#A80036;stroke-width:1.0;"/><text fill="#000000" font-family="sans-serif" font-size="13" lengthAdjust="spacing" textLength="46" x="547" y="711.5684">include</text><!--MD5=[33535c6723aeee72686c258552f40777]
link hp to UC1--><path d="M157.25,715 C192.4,715 236.39,715 275.62,715 " fill="none" id="hp-to-UC1" style="stroke:#A80036;stroke-width:1.0;"/><polygon fill="#A80036" points="280.87,715,271.87,711,275.87,715,271.87,719,280.87,715" style="stroke:#A80036;stroke-width:1.0;"/><!--MD5=[f937f76690e01e02d65618c24c9eb22d]
link hp to UC3--><path d="M96.21,674.21 C109.48,566.05 150.37,275.45 214,206 C234.8,183.29 265.44,170.13 294.41,162.49 " fill="none" id="hp-to-UC3" style="stroke:#A80036;stroke-width:1.0;"/><polygon fill="#A80036" points="299.42,161.22,289.7127,159.5559,294.5735,162.4495,291.6799,167.3103,299.42,161.22" style="stroke:#A80036;stroke-width:1.0;"/><!--MD5=[a96956148912477b872c4f9c3b2372b8]
link hp to UC4--><path d="M103.37,674.34 C120.1,623.84 155.32,538.24 214,488 C235.84,469.3 264.23,456.59 291.08,448.01 " fill="none" id="hp-to-UC4" style="stroke:#A80036;stroke-width:1.0;"/><polygon fill="#A80036" points="296.08,446.46,286.2977,445.3165,291.3061,447.9465,288.6761,452.9548,296.08,446.46" style="stroke:#A80036;stroke-width:1.0;"/><!--MD5=[c0d37fd2dbf3be32019634635ae716de]
link hp to UC5--><path d="M157.23,736.17 C175.58,742.02 195.55,748.31 214,754 C237.94,761.38 263.94,769.21 287.92,776.36 " fill="none" id="hp-to-UC5" style="stroke:#A80036;stroke-width:1.0;"/><polygon fill="#A80036" points="293.01,777.87,285.5126,771.4833,288.215,776.453,283.2454,779.1553,293.01,777.87" style="stroke:#A80036;stroke-width:1.0;"/><!--MD5=[336d9ddd5cfb092fad335306f46e85e7]
link hp to UC6--><path d="M118.39,755.68 C140.52,785.94 174.59,825.86 214,849 C237.45,862.77 265.58,871.55 291.72,877.15 " fill="none" id="hp-to-UC6" style="stroke:#A80036;stroke-width:1.0;"/><polygon fill="#A80036" points="296.92,878.23,288.9176,872.4887,292.0238,877.2165,287.296,880.3227,296.92,878.23" style="stroke:#A80036;stroke-width:1.0;"/><!--MD5=[73fc1b3a1e7797efe518f0ee3058fa05]
link ma to UC2--><path d="M163.77,962 C200.67,962 245.91,962 285.04,962 " fill="none" id="ma-to-UC2" style="stroke:#A80036;stroke-width:1.0;"/><polygon fill="#A80036" points="290.27,962,281.27,958,285.27,962,281.27,966,290.27,962" style="stroke:#A80036;stroke-width:1.0;"/><!--MD5=[c08d61aa21300415cf0c019b84949570]
link BlockCert to UC12--><path d="M175.03,1121 C210.83,1121 252.64,1121 288.74,1121 " fill="none" id="BlockCert-to-UC12" style="stroke:#A80036;stroke-width:1.0;"/><polygon fill="#A80036" points="294.02,1121,285.02,1117,289.02,1121,285.02,1125,294.02,1121" style="stroke:#A80036;stroke-width:1.0;"/><!--MD5=[7e632f6072435f6efd752c77edacff5f]
@startuml CarbonMarket
left to right direction
actor "Hydrogen Producer" as hp
actor "Market Administrator" as ma
:Hyrdogen Certifier: as BlockCert << Blockchain Application >>
package "Carbon Market Channel" {
  usecase "Direct Token Purchase" as UC1
  usecase "Set Price Per Token" as UC2
  usecase "Sell Carbon Tokens" as UC3
  usecase "View Market Token Offers" as UC4
  usecase "View Unspent Hydrogen Certificates" as UC5
  usecase "View Token Balance" as UC6
  usecase "Set Quantity Offered" as UC7
  usecase "Set Price Per Token" as UC8
  usecase "Filter on Seller Carbon Reputation" as UC9
  usecase UC10 as "Purchase Tokens from Offer"
  usecase UC11 as "Specify Quantity to Purchase"
  usecase UC12 as "Submit Certificate"
  usecase UC13 as "Deduct Tokens"
  usecase UC14 as "Filter on Price Per Token"
  usecase UC15 as "Specifiy Quantity"
  (UC3) .> (UC7) : include
  (UC3) .l.> (UC8) : include
  (UC4) .> (UC9) : extends
  (UC4) .l.> (UC10) : extends
  (UC4) .down.> (UC14) : extends
  (UC10) .l.> (UC11) : include
  (UC12) .r.> (UC13) : include
  (UC1) .down.> (UC15) : include
}
hp - -> UC1
hp - -> UC3
hp - -> UC4
hp - -> UC5
hp - -> UC6
ma - -> UC2
BlockCert - -> UC12
@enduml

PlantUML version 1.2021.00(Sun Jan 10 21:25:05 AEDT 2021)
(GPL source distribution)
Java Runtime: OpenJDK Runtime Environment
JVM: OpenJDK 64-Bit Server VM
Default Encoding: UTF-8
Language: en
Country: AU
--></g></svg>