<?xml version="1.0" encoding="UTF-8" standalone="no"?><svg xmlns="http://www.w3.org/2000/svg" xmlns:xlink="http://www.w3.org/1999/xlink" contentScriptType="application/ecmascript" contentStyleType="text/css" height="1204px" preserveAspectRatio="none" style="width:851px;height:1204px;" version="1.1" viewBox="0 0 851 1204" width="851px" zoomAndPan="magnify"><defs><filter height="300%" id="f1cpfyy8sh32y7" width="300%" x="-1" y="-1"><feGaussianBlur result="blurOut" stdDeviation="2.0"/><feColorMatrix in="blurOut" result="blurOut2" type="matrix" values="0 0 0 0 0 0 0 0 0 0 0 0 0 0 0 0 0 0 .4 0"/><feOffset dx="4.0" dy="4.0" in="blurOut2" result="blurOut3"/><feBlend in="SourceGraphic" in2="blurOut3" mode="normal"/></filter></defs><g><!--MD5=[a66ccafea5ecf6ca0acca6c30b35683d]
cluster Carbon Market--><polygon fill="#FFFFFF" filter="url(#f1cpfyy8sh32y7)" points="209,6.602,319,6.602,326,31.6699,834,31.6699,834,1184.602,209,1184.602,209,6.602" style="stroke:#000000;stroke-width:1.5;"/><line style="stroke:#000000;stroke-width:1.5;" x1="209" x2="326" y1="31.6699" y2="31.6699"/><text fill="#000000" font-family="sans-serif" font-size="14" font-weight="bold" lengthAdjust="spacing" textLength="104" x="213" y="23.5679">Carbon Market</text><ellipse cx="363.4679" cy="735.5956" fill="#FEFECE" filter="url(#f1cpfyy8sh32y7)" rx="97.9679" ry="21.9936" style="stroke:#A80036;stroke-width:1.5;"/><text fill="#000000" font-family="sans-serif" font-size="14" lengthAdjust="spacing" textLength="150" x="285.4679" y="740.3285">Direct Token Purchase</text><ellipse cx="363.6621" cy="984.8344" fill="#FEFECE" filter="url(#f1cpfyy8sh32y7)" rx="89.1621" ry="20.2324" style="stroke:#A80036;stroke-width:1.5;"/><text fill="#000000" font-family="sans-serif" font-size="14" lengthAdjust="spacing" textLength="128" x="296.6621" y="989.5674">Set Price Per Token</text><ellipse cx="363.6621" cy="160.8344" fill="#FEFECE" filter="url(#f1cpfyy8sh32y7)" rx="89.1621" ry="20.2324" style="stroke:#A80036;stroke-width:1.5;"/><text fill="#000000" font-family="sans-serif" font-size="14" lengthAdjust="spacing" textLength="128" x="296.6621" y="165.5674">Sell Carbon Tokens</text><ellipse cx="363.6917" cy="445.4403" fill="#FEFECE" filter="url(#f1cpfyy8sh32y7)" rx="107.1917" ry="23.8383" style="stroke:#A80036;stroke-width:1.5;"/><text fill="#000000" font-family="sans-serif" font-size="14" lengthAdjust="spacing" textLength="172" x="274.6917" y="450.1733">View Market Token Offers</text><ellipse cx="363.6518" cy="822.7323" fill="#FEFECE" filter="url(#f1cpfyy8sh32y7)" rx="138.6518" ry="30.1304" style="stroke:#A80036;stroke-width:1.5;"/><text fill="#000000" font-family="sans-serif" font-size="14" lengthAdjust="spacing" textLength="242" x="242.6518" y="826.1643">View Unspent Hydrogen Certificates</text><ellipse cx="363.7263" cy="908.6472" fill="#FEFECE" filter="url(#f1cpfyy8sh32y7)" rx="90.7263" ry="20.5453" style="stroke:#A80036;stroke-width:1.5;"/><text fill="#000000" font-family="sans-serif" font-size="14" lengthAdjust="spacing" textLength="132" x="294.7263" y="913.3802">View Token Balance</text><ellipse cx="363.505" cy="65.703" fill="#FEFECE" filter="url(#f1cpfyy8sh32y7)" rx="93.505" ry="21.101" style="stroke:#A80036;stroke-width:1.5;"/><text fill="#000000" font-family="sans-serif" font-size="14" lengthAdjust="spacing" textLength="139" x="291.005" y="70.4359">Set Quantity Offered</text><ellipse cx="363.6621" cy="254.8344" fill="#FEFECE" filter="url(#f1cpfyy8sh32y7)" rx="89.1621" ry="20.2324" style="stroke:#A80036;stroke-width:1.5;"/><text fill="#000000" font-family="sans-serif" font-size="14" lengthAdjust="spacing" textLength="128" x="296.6621" y="259.5674">Set Price Per Token</text><ellipse cx="363.6218" cy="338.4263" fill="#FEFECE" filter="url(#f1cpfyy8sh32y7)" rx="132.1218" ry="28.8244" style="stroke:#A80036;stroke-width:1.5;"/><text fill="#000000" font-family="sans-serif" font-size="14" lengthAdjust="spacing" textLength="228" x="249.5494" y="341.8948">Filter on Seller Carbon Reputation</text><ellipse cx="363.6031" cy="548.8226" fill="#FEFECE" filter="url(#f1cpfyy8sh32y7)" rx="114.1031" ry="25.2206" style="stroke:#A80036;stroke-width:1.5;"/><text fill="#000000" font-family="sans-serif" font-size="14" lengthAdjust="spacing" textLength="188" x="266.6031" y="553.5556">Purchase Tokens from Offer</text><ellipse cx="363.2923" cy="652.7604" fill="#FEFECE" filter="url(#f1cpfyy8sh32y7)" rx="116.2923" ry="25.6585" style="stroke:#A80036;stroke-width:1.5;"/><text fill="#000000" font-family="sans-serif" font-size="14" lengthAdjust="spacing" textLength="193" x="263.7923" y="657.4934">Specify Quantity to Purchase</text><ellipse cx="363.4695" cy="1148.7959" fill="#FEFECE" filter="url(#f1cpfyy8sh32y7)" rx="86.4695" ry="19.6939" style="stroke:#A80036;stroke-width:1.5;"/><text fill="#000000" font-family="sans-serif" font-size="14" lengthAdjust="spacing" textLength="121" x="299.9695" y="1153.5288">Submit Certificate</text><ellipse cx="363.4397" cy="1057.6899" fill="#FEFECE" filter="url(#f1cpfyy8sh32y7)" rx="78.4397" ry="18.0879" style="stroke:#A80036;stroke-width:1.5;"/><text fill="#000000" font-family="sans-serif" font-size="14" lengthAdjust="spacing" textLength="99" x="310.9397" y="1062.4229">Deduct Tokens</text><ellipse cx="714.9545" cy="445.5929" fill="#FEFECE" filter="url(#f1cpfyy8sh32y7)" rx="102.9545" ry="22.9909" style="stroke:#A80036;stroke-width:1.5;"/><text fill="#000000" font-family="sans-serif" font-size="14" lengthAdjust="spacing" textLength="162" x="630.9545" y="450.3259">Filter on Price Per Token</text><ellipse cx="714.8387" cy="735.7697" fill="#FEFECE" filter="url(#f1cpfyy8sh32y7)" rx="83.8387" ry="19.1677" style="stroke:#A80036;stroke-width:1.5;"/><text fill="#000000" font-family="sans-serif" font-size="14" lengthAdjust="spacing" textLength="114" x="654.8387" y="740.5027">Specifiy Quantity</text><!--MD5=[f69422155b3557745ff04b562dc97981]
entity hp--><ellipse cx="84" cy="703.102" fill="#FEFECE" filter="url(#f1cpfyy8sh32y7)" rx="8" ry="8" style="stroke:#A80036;stroke-width:1.5;"/><path d="M84,711.102 L84,738.102 M71,719.102 L97,719.102 M84,738.102 L71,753.102 M84,738.102 L97,753.102 " fill="none" filter="url(#f1cpfyy8sh32y7)" style="stroke:#A80036;stroke-width:1.5;"/><text fill="#000000" font-family="sans-serif" font-size="14" lengthAdjust="spacing" textLength="131" x="18.5" y="773.5679">Hydrogen Producer</text><!--MD5=[99c5416311fbf9d118be657efd773f39]
entity ma--><ellipse cx="84" cy="952.102" fill="#FEFECE" filter="url(#f1cpfyy8sh32y7)" rx="8" ry="8" style="stroke:#A80036;stroke-width:1.5;"/><path d="M84,960.102 L84,987.102 M71,968.102 L97,968.102 M84,987.102 L71,1002.102 M84,987.102 L97,1002.102 " fill="none" filter="url(#f1cpfyy8sh32y7)" style="stroke:#A80036;stroke-width:1.5;"/><text fill="#000000" font-family="sans-serif" font-size="14" lengthAdjust="spacing" textLength="144" x="12" y="1022.5679">Market Administrator</text><!--MD5=[a9f1db7c946eb6cf0947375227459598]
entity BlockCert--><ellipse cx="84" cy="1125.6699" fill="#FEFECE" filter="url(#f1cpfyy8sh32y7)" rx="8" ry="8" style="stroke:#A80036;stroke-width:1.5;"/><path d="M84,1133.6699 L84,1160.6699 M71,1141.6699 L97,1141.6699 M84,1160.6699 L71,1175.6699 M84,1160.6699 L97,1175.6699 " fill="none" filter="url(#f1cpfyy8sh32y7)" style="stroke:#A80036;stroke-width:1.5;"/><text fill="#000000" font-family="sans-serif" font-size="14" lengthAdjust="spacing" textLength="125" x="21.5" y="1196.1358">Hyrdogen Certifier</text><text fill="#000000" font-family="sans-serif" font-size="14" font-style="italic" lengthAdjust="spacing" textLength="156" x="6" y="1112.0679">«Blockchain Application»</text><!--MD5=[d73a34809e49c64c0a71da66f63e9867]
link UC3 to UC7--><path d="M363.5,140.452 C363.5,126.262 363.5,107.132 363.5,91.762 " fill="none" id="UC3-to-UC7" style="stroke:#A80036;stroke-width:1.0;stroke-dasharray:7.0,7.0;"/><polygon fill="#A80036" points="363.5,86.712,359.5,95.712,363.5,91.712,367.5,95.712,363.5,86.712" style="stroke:#A80036;stroke-width:1.0;"/><text fill="#000000" font-family="sans-serif" font-size="13" lengthAdjust="spacing" textLength="43" x="329.5" y="118.999">include</text><!--MD5=[dc91f5f9e426b3f4d06ae2005575c5af]
reverse link UC8 to UC3--><path d="M363.5,229.192 C363.5,213.942 363.5,194.812 363.5,180.632 " fill="none" id="UC8-backto-UC3" style="stroke:#A80036;stroke-width:1.0;stroke-dasharray:7.0,7.0;"/><polygon fill="#A80036" points="363.5,234.202,367.5,225.202,363.5,229.202,359.5,225.202,363.5,234.202" style="stroke:#A80036;stroke-width:1.0;"/><text fill="#000000" font-family="sans-serif" font-size="13" lengthAdjust="spacing" textLength="43" x="329.5" y="212.999">include</text><!--MD5=[553f9b986593943f6e01085dcf166857]
link UC4 to UC9--><path d="M363.5,421.592 C363.5,407.302 363.5,388.952 363.5,373.132 " fill="none" id="UC4-to-UC9" style="stroke:#A80036;stroke-width:1.0;stroke-dasharray:7.0,7.0;"/><polygon fill="#A80036" points="363.5,367.872,359.5,376.872,363.5,372.872,367.5,376.872,363.5,367.872" style="stroke:#A80036;stroke-width:1.0;"/><text fill="#000000" font-family="sans-serif" font-size="13" lengthAdjust="spacing" textLength="48" x="327" y="399.999">extends</text><!--MD5=[4749493dc3dcd2eeeaa37a4babe4c080]
reverse link UC10 to UC4--><path d="M363.5,518.292 C363.5,502.842 363.5,484.312 363.5,469.832 " fill="none" id="UC10-backto-UC4" style="stroke:#A80036;stroke-width:1.0;stroke-dasharray:7.0,7.0;"/><polygon fill="#A80036" points="363.5,523.402,367.5,514.402,363.5,518.402,359.5,514.402,363.5,523.402" style="stroke:#A80036;stroke-width:1.0;"/><text fill="#000000" font-family="sans-serif" font-size="13" lengthAdjust="spacing" textLength="48" x="327" y="501.999">extends</text><!--MD5=[30592de8d542e4a8acc8bb3d612509f7]
link UC4 to UC14--><path d="M470.79,445.602 C513.82,445.602 563.44,445.602 606.59,445.602 " fill="none" id="UC4-to-UC14" style="stroke:#A80036;stroke-width:1.0;stroke-dasharray:7.0,7.0;"/><polygon fill="#A80036" points="611.82,445.602,602.82,441.602,606.82,445.602,602.82,449.602,611.82,445.602" style="stroke:#A80036;stroke-width:1.0;"/><text fill="#000000" font-family="sans-serif" font-size="13" lengthAdjust="spacing" textLength="48" x="533" y="441.499">extends</text><!--MD5=[9a11b407ae1929f93f11f8f8c3b03b1b]
reverse link UC11 to UC10--><path d="M363.5,621.812 C363.5,606.462 363.5,588.132 363.5,573.652 " fill="none" id="UC11-backto-UC10" style="stroke:#A80036;stroke-width:1.0;stroke-dasharray:7.0,7.0;"/><polygon fill="#A80036" points="363.5,626.892,367.5,617.892,363.5,621.892,359.5,617.892,363.5,626.892" style="stroke:#A80036;stroke-width:1.0;"/><text fill="#000000" font-family="sans-serif" font-size="13" lengthAdjust="spacing" textLength="43" x="329.5" y="605.749">include</text><!--MD5=[a5bfe2ac6b84bb6fdfcbbfef96600d0f]
link UC12 to UC13--><path d="M363.5,1128.852 C363.5,1114.792 363.5,1095.842 363.5,1081.022 " fill="none" id="UC12-to-UC13" style="stroke:#A80036;stroke-width:1.0;stroke-dasharray:7.0,7.0;"/><polygon fill="#A80036" points="363.5,1075.762,359.5,1084.762,363.5,1080.762,367.5,1084.762,363.5,1075.762" style="stroke:#A80036;stroke-width:1.0;"/><text fill="#000000" font-family="sans-serif" font-size="13" lengthAdjust="spacing" textLength="43" x="329.5" y="1107.749">include</text><!--MD5=[c489439244c07e621a4ed36251f0fc3b]
link UC1 to UC15--><path d="M461.86,735.602 C513.21,735.602 575.75,735.602 625.69,735.602 " fill="none" id="UC1-to-UC15" style="stroke:#A80036;stroke-width:1.0;stroke-dasharray:7.0,7.0;"/><polygon fill="#A80036" points="630.79,735.602,621.79,731.602,625.79,735.602,621.79,739.602,630.79,735.602" style="stroke:#A80036;stroke-width:1.0;"/><text fill="#000000" font-family="sans-serif" font-size="13" lengthAdjust="spacing" textLength="43" x="535.5" y="731.499">include</text><!--MD5=[33535c6723aeee72686c258552f40777]
link hp to UC1--><path d="M149.71,735.602 C182.45,735.602 222.98,735.602 259.84,735.602 " fill="none" id="hp-to-UC1" style="stroke:#A80036;stroke-width:1.0;"/><polygon fill="#A80036" points="265.26,735.602,256.26,731.602,260.26,735.602,256.26,739.602,265.26,735.602" style="stroke:#A80036;stroke-width:1.0;"/><!--MD5=[f937f76690e01e02d65618c24c9eb22d]
link hp to UC3--><path d="M89.17,693.272 C100.89,582.522 137.46,287.822 201,216.602 C221.54,193.572 252.04,180.012 281.02,172.032 " fill="none" id="hp-to-UC3" style="stroke:#A80036;stroke-width:1.0;"/><polygon fill="#A80036" points="286.03,170.702,276.3038,169.1524,281.1984,171.9885,278.3623,176.8831,286.03,170.702" style="stroke:#A80036;stroke-width:1.0;"/><!--MD5=[a96956148912477b872c4f9c3b2372b8]
link hp to UC4--><path d="M96.02,693.232 C111.39,642.082 144,556.582 201,505.602 C222.93,485.982 251.86,472.582 279.16,463.522 " fill="none" id="hp-to-UC4" style="stroke:#A80036;stroke-width:1.0;"/><polygon fill="#A80036" points="284.24,461.882,274.445,460.8536,279.4839,463.4245,276.913,468.4634,284.24,461.882" style="stroke:#A80036;stroke-width:1.0;"/><!--MD5=[c0d37fd2dbf3be32019634635ae716de]
link hp to UC5--><path d="M149.6,757.772 C166.3,763.382 184.29,769.312 201,774.602 C224.82,782.142 250.73,790.002 274.67,797.112 " fill="none" id="hp-to-UC5" style="stroke:#A80036;stroke-width:1.0;"/><polygon fill="#A80036" points="279.75,798.622,272.2702,792.2148,274.9589,797.1918,269.9819,799.8805,279.75,798.622" style="stroke:#A80036;stroke-width:1.0;"/><!--MD5=[336d9ddd5cfb092fad335306f46e85e7]
link hp to UC6--><path d="M111.1,777.812 C131.85,807.852 163.55,846.792 201,869.602 C223.86,883.532 251.38,892.482 277.16,898.242 " fill="none" id="hp-to-UC6" style="stroke:#A80036;stroke-width:1.0;"/><polygon fill="#A80036" points="282.29,899.352,274.3395,893.5391,277.4031,898.2946,272.6476,901.3582,282.29,899.352" style="stroke:#A80036;stroke-width:1.0;"/><!--MD5=[73fc1b3a1e7797efe518f0ee3058fa05]
link ma to UC2--><path d="M156.1,984.602 C190.46,984.602 232.15,984.602 269.05,984.602 " fill="none" id="ma-to-UC2" style="stroke:#A80036;stroke-width:1.0;"/><polygon fill="#A80036" points="274.45,984.602,265.45,980.602,269.45,984.602,265.45,988.602,274.45,984.602" style="stroke:#A80036;stroke-width:1.0;"/><!--MD5=[c08d61aa21300415cf0c019b84949570]
link BlockCert to UC12--><path d="M162.3,1148.602 C196.23,1148.602 236.31,1148.602 271.66,1148.602 " fill="none" id="BlockCert-to-UC12" style="stroke:#A80036;stroke-width:1.0;"/><polygon fill="#A80036" points="276.84,1148.602,267.84,1144.602,271.84,1148.602,267.84,1152.602,276.84,1148.602" style="stroke:#A80036;stroke-width:1.0;"/><!--MD5=[a348b0a2dcf3b7cbec85d42fabae80bf]
@startuml CarbonMarket
left to right direction
actor "Hydrogen Producer" as hp
actor "Market Administrator" as ma
:Hyrdogen Certifier: as BlockCert << Blockchain Application >>
package "Carbon Market" {
  usecase "Direct Token Purchase" as UC1
  usecase "Set Price Per Token" as UC2
  usecase "Sell Carbon Tokens" as UC3
  usecase "View Market Token Offers" as UC4
  usecase "View Unspent Hydrogen Certificates" as UC5
  usecase "View Token Balance" as UC6
  usecase "Set Quantity Offered" as UC7
  usecase "Set Price Per Token" as UC8
  usecase "Filter on Seller Carbon Reputation" as UC9
  usecase UC10 as "Purchase Tokens from Offer"
  usecase UC11 as "Specify Quantity to Purchase"
  usecase UC12 as "Submit Certificate"
  usecase UC13 as "Deduct Tokens"
  usecase UC14 as "Filter on Price Per Token"
  usecase UC15 as "Specifiy Quantity"
  (UC3) .> (UC7) : include
  (UC3) .l.> (UC8) : include
  (UC4) .> (UC9) : extends
  (UC4) .l.> (UC10) : extends
  (UC4) .down.> (UC14) : extends
  (UC10) .l.> (UC11) : include
  (UC12) .r.> (UC13) : include
  (UC1) .down.> (UC15) : include
}
hp - -> UC1
hp - -> UC3
hp - -> UC4
hp - -> UC5
hp - -> UC6
ma - -> UC2
BlockCert - -> UC12
@enduml

PlantUML version 1.2021.00(Sun Jan 10 21:25:05 AEDT 2021)
(GPL source distribution)
Java Runtime: OpenJDK Runtime Environment
JVM: OpenJDK 64-Bit Server VM
Default Encoding: UTF-8
Language: en
Country: US
--></g></svg>