<?xml version="1.0" encoding="UTF-8" standalone="no"?><svg xmlns="http://www.w3.org/2000/svg" xmlns:xlink="http://www.w3.org/1999/xlink" contentScriptType="application/ecmascript" contentStyleType="text/css" height="236px" preserveAspectRatio="none" style="width:839px;height:236px;" version="1.1" viewBox="0 0 839 236" width="839px" zoomAndPan="magnify"><defs><filter height="300%" id="fvr5r1e4aglpe" width="300%" x="-1" y="-1"><feGaussianBlur result="blurOut" stdDeviation="2.0"/><feColorMatrix in="blurOut" result="blurOut2" type="matrix" values="0 0 0 0 0 0 0 0 0 0 0 0 0 0 0 0 0 0 .4 0"/><feOffset dx="4.0" dy="4.0" in="blurOut2" result="blurOut3"/><feBlend in="SourceGraphic" in2="blurOut3" mode="normal"/></filter></defs><g><!--MD5=[612d96ab1fbf90d37d6365ca787e507c]
cluster Off-Chain Infrastructure--><polygon fill="#FFFFFF" filter="url(#fvr5r1e4aglpe)" points="342,6,526,6,533,28.4883,536,28.4883,536,103,342,103,342,6" style="stroke:#000000;stroke-width:1.5;"/><line style="stroke:#000000;stroke-width:1.5;" x1="342" x2="533" y1="28.4883" y2="28.4883"/><text fill="#000000" font-family="sans-serif" font-size="14" font-weight="bold" lengthAdjust="spacing" textLength="178" x="346" y="21.5352">Off-Chain Infrastructure</text><!--MD5=[a2c151f3d566c2531030f739965b5fc8]
cluster On-Chain Smart Contracts--><polygon fill="#FFFFFF" filter="url(#fvr5r1e4aglpe)" points="16,137,26,127,822,127,822,219,812,229,16,229,16,137" style="stroke:#000000;stroke-width:1.5;"/><line style="stroke:#000000;stroke-width:1.5;" x1="812" x2="822" y1="137" y2="127"/><line style="stroke:#000000;stroke-width:1.5;" x1="16" x2="812" y1="137" y2="137"/><line style="stroke:#000000;stroke-width:1.5;" x1="812" x2="812" y1="137" y2="229"/><text fill="#000000" font-family="sans-serif" font-size="14" font-weight="bold" lengthAdjust="spacing" textLength="192" x="319" y="153.5352">On-Chain Smart Contracts</text><!--MD5=[30c15ae2333db8fd07d0271e38118188]
entity H--><rect fill="#FEFECE" filter="url(#fvr5r1e4aglpe)" height="46.4883" style="stroke:#A80036;stroke-width:1.5;" width="123" x="377.5" y="41"/><rect fill="#FEFECE" height="10" style="stroke:#A80036;stroke-width:1.5;" width="15" x="480.5" y="46"/><rect fill="#FEFECE" height="2" style="stroke:#A80036;stroke-width:1.5;" width="4" x="478.5" y="48"/><rect fill="#FEFECE" height="2" style="stroke:#A80036;stroke-width:1.5;" width="4" x="478.5" y="52"/><text fill="#000000" font-family="sans-serif" font-size="14" lengthAdjust="spacing" textLength="83" x="392.5" y="74.5352">HTTP Server</text><!--MD5=[ca4fca654d8994778fee589c6b3ae58e]
entity R--><rect fill="#FEFECE" filter="url(#fvr5r1e4aglpe)" height="46.4883" style="stroke:#A80036;stroke-width:1.5;" width="209" x="596.5" y="167"/><rect fill="#FEFECE" height="10" style="stroke:#A80036;stroke-width:1.5;" width="15" x="785.5" y="172"/><rect fill="#FEFECE" height="2" style="stroke:#A80036;stroke-width:1.5;" width="4" x="783.5" y="174"/><rect fill="#FEFECE" height="2" style="stroke:#A80036;stroke-width:1.5;" width="4" x="783.5" y="178"/><text fill="#000000" font-family="sans-serif" font-size="14" lengthAdjust="spacing" textLength="169" x="611.5" y="200.5352">Registrar Smart Contract</text><!--MD5=[87439e3fb2bd72484276c19727d934ee]
entity CT--><rect fill="#FEFECE" filter="url(#fvr5r1e4aglpe)" height="46.4883" style="stroke:#A80036;stroke-width:1.5;" width="245" x="316.5" y="167"/><rect fill="#FEFECE" height="10" style="stroke:#A80036;stroke-width:1.5;" width="15" x="541.5" y="172"/><rect fill="#FEFECE" height="2" style="stroke:#A80036;stroke-width:1.5;" width="4" x="539.5" y="174"/><rect fill="#FEFECE" height="2" style="stroke:#A80036;stroke-width:1.5;" width="4" x="539.5" y="178"/><text fill="#000000" font-family="sans-serif" font-size="14" lengthAdjust="spacing" textLength="205" x="331.5" y="200.5352">Carbon Token Smart Contract</text><!--MD5=[99f3cfe8ce18ee9cb444babb539f6fb5]
entity CM--><rect fill="#FEFECE" filter="url(#fvr5r1e4aglpe)" height="46.4883" style="stroke:#A80036;stroke-width:1.5;" width="249" x="32.5" y="167"/><rect fill="#FEFECE" height="10" style="stroke:#A80036;stroke-width:1.5;" width="15" x="261.5" y="172"/><rect fill="#FEFECE" height="2" style="stroke:#A80036;stroke-width:1.5;" width="4" x="259.5" y="174"/><rect fill="#FEFECE" height="2" style="stroke:#A80036;stroke-width:1.5;" width="4" x="259.5" y="178"/><text fill="#000000" font-family="sans-serif" font-size="14" lengthAdjust="spacing" textLength="209" x="47.5" y="200.5352">Carbon Market Smart Contract</text><!--MD5=[f9548dcc2967d99034ead7788d290119]
link H to CT--><path d="M439,87.17 C439,107.93 439,139.04 439,161.4 " fill="none" id="H-to-CT" style="stroke:#A80036;stroke-width:1.0;"/><polygon fill="#A80036" points="439,166.61,443,157.61,439,161.61,435,157.61,439,166.61" style="stroke:#A80036;stroke-width:1.0;"/><!--MD5=[98f1300cd1b4696c247e688cfb750ef7]
link H to CM--><path d="M378.22,87.08 C353.44,96.44 324.65,107.76 299,119 C266.87,133.08 231.49,150.52 204.08,164.47 " fill="none" id="H-to-CM" style="stroke:#A80036;stroke-width:1.0;"/><polygon fill="#A80036" points="199.4,166.85,209.235,166.3274,203.8549,164.5797,205.6026,159.1996,199.4,166.85" style="stroke:#A80036;stroke-width:1.0;"/><!--MD5=[4467dd6180ba4a0a5304b925b325cd2a]
link H to R--><path d="M500.84,86.53 C525.52,95.72 553.95,107.07 579,119 C607.33,132.49 637.96,150.08 661.44,164.25 " fill="none" id="H-to-R" style="stroke:#A80036;stroke-width:1.0;"/><polygon fill="#A80036" points="665.74,166.85,660.1003,158.7757,661.4588,164.267,655.9675,165.6256,665.74,166.85" style="stroke:#A80036;stroke-width:1.0;"/><!--MD5=[0b71cdbb82f974d749996b537e14201c]
@startuml SmartContract

package "Off-Chain Infrastructure" {
  [HTTP Server] as H
}

node "On-Chain Smart Contracts" {
  [Registrar Smart Contract] as R
  [Carbon Token Smart Contract] as CT
  [Carbon Market Smart Contract] as CM
}

H - -> CT
H - -> CM
H - -> R
@enduml

PlantUML version 1.2021.00(Sun Jan 10 21:25:05 AEDT 2021)
(GPL source distribution)
Java Runtime: OpenJDK Runtime Environment
JVM: OpenJDK 64-Bit Server VM
Default Encoding: UTF-8
Language: en
Country: AU
--></g></svg>