<?xml version="1.0" encoding="UTF-8" standalone="no"?><svg xmlns="http://www.w3.org/2000/svg" xmlns:xlink="http://www.w3.org/1999/xlink" contentScriptType="application/ecmascript" contentStyleType="text/css" height="573px" preserveAspectRatio="none" style="width:915px;height:573px;" version="1.1" viewBox="0 0 915 573" width="915px" zoomAndPan="magnify"><defs><filter height="300%" id="f1qyzj2w9nfkm1" width="300%" x="-1" y="-1"><feGaussianBlur result="blurOut" stdDeviation="2.0"/><feColorMatrix in="blurOut" result="blurOut2" type="matrix" values="0 0 0 0 0 0 0 0 0 0 0 0 0 0 0 0 0 0 .4 0"/><feOffset dx="4.0" dy="4.0" in="blurOut2" result="blurOut3"/><feBlend in="SourceGraphic" in2="blurOut3" mode="normal"/></filter></defs><g><rect fill="#ADD8E6" height="561.9453" rx="10" ry="10" style="stroke:#A80036;stroke-width:1.0;" width="468" x="427" y="6"/><text fill="#000000" font-family="sans-serif" font-size="13" font-weight="bold" lengthAdjust="spacing" textLength="160" x="581" y="18.5684">Carbon Market Channel</text><rect fill="#FFFFFF" filter="url(#f1qyzj2w9nfkm1)" height="328.3477" style="stroke:#A80036;stroke-width:1.0;" width="10" x="237.5" y="135.1094"/><rect fill="#FFFFFF" filter="url(#f1qyzj2w9nfkm1)" height="254.416" style="stroke:#A80036;stroke-width:1.0;" width="10" x="376" y="179.7305"/><rect fill="#FFFFFF" filter="url(#f1qyzj2w9nfkm1)" height="165.1738" style="stroke:#A80036;stroke-width:1.0;" width="10" x="539.5" y="224.3516"/><rect fill="#FFFFFF" filter="url(#f1qyzj2w9nfkm1)" height="44.6211" style="stroke:#A80036;stroke-width:1.0;" width="10" x="774.5" y="293.2832"/><rect fill="#FFFFFF" filter="url(#f1qyzj2w9nfkm1)" height="106.5527" rx="10" ry="10" style="stroke:#000000;stroke-width:2.0;" width="480" x="421" y="239.3516"/><line style="stroke:#A80036;stroke-width:1.0;stroke-dasharray:5.0,5.0;" x1="74" x2="74" y1="88.4883" y2="481.457"/><line style="stroke:#A80036;stroke-width:1.0;stroke-dasharray:5.0,5.0;" x1="242" x2="242" y1="88.4883" y2="481.457"/><line style="stroke:#A80036;stroke-width:1.0;stroke-dasharray:5.0,5.0;" x1="381" x2="381" y1="88.4883" y2="481.457"/><line style="stroke:#A80036;stroke-width:1.0;stroke-dasharray:5.0,5.0;" x1="544" x2="544" y1="88.4883" y2="481.457"/><line style="stroke:#A80036;stroke-width:1.0;stroke-dasharray:5.0,5.0;" x1="779" x2="779" y1="88.4883" y2="481.457"/><text fill="#000000" font-family="sans-serif" font-size="14" lengthAdjust="spacing" text-decoration="underline" textLength="133" x="5" y="85.5352">Hydrogen Producer</text><ellipse cx="74.5" cy="15" fill="#FEFECE" filter="url(#f1qyzj2w9nfkm1)" rx="8" ry="8" style="stroke:#A80036;stroke-width:2.0;"/><path d="M74.5,23 L74.5,50 M61.5,31 L87.5,31 M74.5,50 L61.5,65 M74.5,50 L87.5,65 " fill="none" filter="url(#f1qyzj2w9nfkm1)" style="stroke:#A80036;stroke-width:2.0;"/><text fill="#000000" font-family="sans-serif" font-size="14" lengthAdjust="spacing" text-decoration="underline" textLength="133" x="5" y="493.9922">Hydrogen Producer</text><ellipse cx="74.5" cy="506.9453" fill="#FEFECE" filter="url(#f1qyzj2w9nfkm1)" rx="8" ry="8" style="stroke:#A80036;stroke-width:2.0;"/><path d="M74.5,514.9453 L74.5,541.9453 M61.5,522.9453 L87.5,522.9453 M74.5,541.9453 L61.5,556.9453 M74.5,541.9453 L87.5,556.9453 " fill="none" filter="url(#f1qyzj2w9nfkm1)" style="stroke:#A80036;stroke-width:2.0;"/><rect fill="#FEFECE" filter="url(#f1qyzj2w9nfkm1)" height="30.4883" rx="10" ry="10" style="stroke:#A80036;stroke-width:1.5;" width="173" x="154" y="53"/><text fill="#000000" font-family="sans-serif" font-size="14" lengthAdjust="spacing" text-decoration="underline" textLength="159" x="161" y="73.5352">Carbon Market Website</text><rect fill="#FEFECE" filter="url(#f1qyzj2w9nfkm1)" height="30.4883" rx="10" ry="10" style="stroke:#A80036;stroke-width:1.5;" width="173" x="154" y="480.457"/><text fill="#000000" font-family="sans-serif" font-size="14" lengthAdjust="spacing" text-decoration="underline" textLength="159" x="161" y="500.9922">Carbon Market Website</text><rect fill="#FEFECE" filter="url(#f1qyzj2w9nfkm1)" height="30.4883" rx="10" ry="10" style="stroke:#A80036;stroke-width:1.5;" width="76" x="341" y="53"/><text fill="#000000" font-family="sans-serif" font-size="14" lengthAdjust="spacing" text-decoration="underline" textLength="62" x="348" y="73.5352">HTTP API</text><rect fill="#FEFECE" filter="url(#f1qyzj2w9nfkm1)" height="30.4883" rx="10" ry="10" style="stroke:#A80036;stroke-width:1.5;" width="76" x="341" y="480.457"/><text fill="#000000" font-family="sans-serif" font-size="14" lengthAdjust="spacing" text-decoration="underline" textLength="62" x="348" y="500.9922">HTTP API</text><rect fill="#FEFECE" filter="url(#f1qyzj2w9nfkm1)" height="30.4883" rx="10" ry="10" style="stroke:#A80036;stroke-width:1.5;" width="223" x="431" y="53"/><text fill="#000000" font-family="sans-serif" font-size="14" lengthAdjust="spacing" text-decoration="underline" textLength="209" x="438" y="73.5352">Carbon Market Smart Contract</text><rect fill="#FEFECE" filter="url(#f1qyzj2w9nfkm1)" height="30.4883" rx="10" ry="10" style="stroke:#A80036;stroke-width:1.5;" width="223" x="431" y="480.457"/><text fill="#000000" font-family="sans-serif" font-size="14" lengthAdjust="spacing" text-decoration="underline" textLength="209" x="438" y="500.9922">Carbon Market Smart Contract</text><rect fill="#FEFECE" filter="url(#f1qyzj2w9nfkm1)" height="30.4883" rx="10" ry="10" style="stroke:#A80036;stroke-width:1.5;" width="219" x="668" y="53"/><text fill="#000000" font-family="sans-serif" font-size="14" lengthAdjust="spacing" text-decoration="underline" textLength="205" x="675" y="73.5352">Carbon Token Smart Contract</text><rect fill="#FEFECE" filter="url(#f1qyzj2w9nfkm1)" height="30.4883" rx="10" ry="10" style="stroke:#A80036;stroke-width:1.5;" width="219" x="668" y="480.457"/><text fill="#000000" font-family="sans-serif" font-size="14" lengthAdjust="spacing" text-decoration="underline" textLength="205" x="675" y="500.9922">Carbon Token Smart Contract</text><rect fill="#FFFFFF" filter="url(#f1qyzj2w9nfkm1)" height="328.3477" style="stroke:#A80036;stroke-width:1.0;" width="10" x="237.5" y="135.1094"/><rect fill="#FFFFFF" filter="url(#f1qyzj2w9nfkm1)" height="254.416" style="stroke:#A80036;stroke-width:1.0;" width="10" x="376" y="179.7305"/><rect fill="#FFFFFF" filter="url(#f1qyzj2w9nfkm1)" height="165.1738" style="stroke:#A80036;stroke-width:1.0;" width="10" x="539.5" y="224.3516"/><rect fill="#FFFFFF" filter="url(#f1qyzj2w9nfkm1)" height="44.6211" style="stroke:#A80036;stroke-width:1.0;" width="10" x="774.5" y="293.2832"/><polygon fill="#A80036" points="225.5,131.1094,235.5,135.1094,225.5,139.1094,229.5,135.1094" style="stroke:#A80036;stroke-width:1.0;"/><line style="stroke:#A80036;stroke-width:2.0;" x1="74.5" x2="231.5" y1="135.1094" y2="135.1094"/><text fill="#000000" font-family="sans-serif" font-size="13" lengthAdjust="spacing" textLength="43" x="81.5" y="115.0566">Market</text><text fill="#000000" font-family="sans-serif" font-size="13" lengthAdjust="spacing" textLength="62" x="81.5" y="130.3672">Operation</text><polygon fill="#A80036" points="364,175.7305,374,179.7305,364,183.7305,368,179.7305" style="stroke:#A80036;stroke-width:1.0;"/><line style="stroke:#A80036;stroke-width:2.0;" x1="247.5" x2="370" y1="179.7305" y2="179.7305"/><text fill="#000000" font-family="sans-serif" font-size="13" lengthAdjust="spacing" textLength="40" x="254.5" y="159.6777">Create</text><text fill="#000000" font-family="sans-serif" font-size="13" lengthAdjust="spacing" textLength="50" x="254.5" y="174.9883">Request</text><polygon fill="#A80036" points="527.5,220.3516,537.5,224.3516,527.5,228.3516,531.5,224.3516" style="stroke:#A80036;stroke-width:1.0;"/><line style="stroke:#A80036;stroke-width:2.0;" x1="386" x2="533.5" y1="224.3516" y2="224.3516"/><text fill="#000000" font-family="sans-serif" font-size="13" lengthAdjust="spacing" textLength="68" x="393" y="204.2988">Blockchain</text><text fill="#000000" font-family="sans-serif" font-size="13" lengthAdjust="spacing" textLength="62" x="393" y="219.6094">Operation</text><path d="M431,239.3516 L483,239.3516 L483,246.3516 L473,256.3516 L421,256.3516 L421,249.3516 " fill="#EEEEEE" style="stroke:#000000;stroke-width:1.0;"/><rect fill="none" height="106.5527" rx="10" ry="10" style="stroke:#000000;stroke-width:2.0;" width="480" x="421" y="239.3516"/><text fill="#000000" font-family="sans-serif" font-size="13" font-weight="bold" lengthAdjust="spacing" textLength="17" x="436" y="252.9199">alt</text><text fill="#000000" font-family="sans-serif" font-size="11" font-weight="bold" lengthAdjust="spacing" textLength="217" x="498" y="251.9863">[Token Operations - exhange, burn, ...]</text><polygon fill="#A80036" points="762.5,289.2832,772.5,293.2832,762.5,297.2832,766.5,293.2832" style="stroke:#A80036;stroke-width:1.0;"/><line style="stroke:#A80036;stroke-width:2.0;" x1="549.5" x2="768.5" y1="293.2832" y2="293.2832"/><text fill="#000000" font-family="sans-serif" font-size="13" lengthAdjust="spacing" textLength="39" x="556.5" y="273.2305">Token</text><text fill="#000000" font-family="sans-serif" font-size="13" lengthAdjust="spacing" textLength="62" x="556.5" y="288.541">Operation</text><polygon fill="#A80036" points="560.5,333.9043,550.5,337.9043,560.5,341.9043,556.5,337.9043" style="stroke:#A80036;stroke-width:1.0;"/><line style="stroke:#A80036;stroke-width:2.0;stroke-dasharray:2.0,2.0;" x1="554.5" x2="778.5" y1="337.9043" y2="337.9043"/><text fill="#000000" font-family="sans-serif" font-size="13" lengthAdjust="spacing" textLength="32" x="566.5" y="317.8516">Work</text><text fill="#000000" font-family="sans-serif" font-size="13" lengthAdjust="spacing" textLength="33" x="566.5" y="333.1621">Done</text><polygon fill="#A80036" points="397,385.5254,387,389.5254,397,393.5254,393,389.5254" style="stroke:#A80036;stroke-width:1.0;"/><line style="stroke:#A80036;stroke-width:2.0;stroke-dasharray:2.0,2.0;" x1="391" x2="543.5" y1="389.5254" y2="389.5254"/><text fill="#000000" font-family="sans-serif" font-size="13" lengthAdjust="spacing" textLength="32" x="403" y="369.4727">Work</text><text fill="#000000" font-family="sans-serif" font-size="13" lengthAdjust="spacing" textLength="33" x="403" y="384.7832">Done</text><polygon fill="#A80036" points="258.5,430.1465,248.5,434.1465,258.5,438.1465,254.5,434.1465" style="stroke:#A80036;stroke-width:1.0;"/><line style="stroke:#A80036;stroke-width:2.0;stroke-dasharray:2.0,2.0;" x1="252.5" x2="380" y1="434.1465" y2="434.1465"/><text fill="#000000" font-family="sans-serif" font-size="13" lengthAdjust="spacing" textLength="50" x="264.5" y="414.0938">Request</text><text fill="#000000" font-family="sans-serif" font-size="13" lengthAdjust="spacing" textLength="48" x="264.5" y="429.4043">Created</text><polygon fill="#A80036" points="85.5,459.457,75.5,463.457,85.5,467.457,81.5,463.457" style="stroke:#A80036;stroke-width:1.0;"/><line style="stroke:#A80036;stroke-width:2.0;stroke-dasharray:2.0,2.0;" x1="79.5" x2="241.5" y1="463.457" y2="463.457"/><text fill="#000000" font-family="sans-serif" font-size="13" lengthAdjust="spacing" textLength="33" x="91.5" y="458.7148">Done</text><!--MD5=[65e3c1ff858811f93266b9c1d8d95e63]
@startuml SequenceNormal
skinparam sequenceArrowThickness 2
skinparam roundcorner 20
skinparam maxmessagesize 60
skinparam sequenceParticipant underline

actor "Hydrogen Producer" as User
participant "Carbon Market Website" as A
participant "HTTP API" as B
box "Carbon Market Channel" #LightBlue
participant "Carbon Market Smart Contract" as C
participant "Carbon Token Smart Contract" as D
end box

User -> A: Market Operation
activate A

A -> B: Create Request
activate B

B -> C: Blockchain Operation
activate C
alt Token Operations - exhange, burn, ...
C -> D: Token Operation
activate D
D - -> C: Work Done
deactivate D
end
C - -> B: Work Done
deactivate C

B - -> A: Request Created
deactivate B

A - -> User: Done
deactivate A

@enduml

PlantUML version 1.2021.00(Sun Jan 10 21:25:05 AEDT 2021)
(GPL source distribution)
Java Runtime: OpenJDK Runtime Environment
JVM: OpenJDK 64-Bit Server VM
Default Encoding: UTF-8
Language: en
Country: AU
--></g></svg>