<?xml version="1.0" encoding="UTF-8" standalone="no"?><svg xmlns="http://www.w3.org/2000/svg" xmlns:xlink="http://www.w3.org/1999/xlink" contentScriptType="application/ecmascript" contentStyleType="text/css" height="459px" preserveAspectRatio="none" style="width:659px;height:459px;" version="1.1" viewBox="0 0 659 459" width="659px" zoomAndPan="magnify"><defs><filter height="300%" id="fsxxzxcchbrlj" width="300%" x="-1" y="-1"><feGaussianBlur result="blurOut" stdDeviation="2.0"/><feColorMatrix in="blurOut" result="blurOut2" type="matrix" values="0 0 0 0 0 0 0 0 0 0 0 0 0 0 0 0 0 0 .4 0"/><feOffset dx="4.0" dy="4.0" in="blurOut2" result="blurOut3"/><feBlend in="SourceGraphic" in2="blurOut3" mode="normal"/></filter></defs><g><rect fill="#FFFFFF" filter="url(#fsxxzxcchbrlj)" height="211.6481" style="stroke:#A80036;stroke-width:1.0;" width="10" x="235" y="142.4799"/><rect fill="#FFFFFF" filter="url(#fsxxzxcchbrlj)" height="130.5301" style="stroke:#A80036;stroke-width:1.0;" width="10" x="372" y="191.892"/><rect fill="#FFFFFF" filter="url(#fsxxzxcchbrlj)" height="31.706" style="stroke:#A80036;stroke-width:1.0;" width="10" x="532.5" y="241.304"/><line style="stroke:#A80036;stroke-width:1.0;stroke-dasharray:5.0,5.0;" x1="73" x2="73" y1="91.0679" y2="372.1281"/><line style="stroke:#A80036;stroke-width:1.0;stroke-dasharray:5.0,5.0;" x1="240" x2="240" y1="91.0679" y2="372.1281"/><line style="stroke:#A80036;stroke-width:1.0;stroke-dasharray:5.0,5.0;" x1="377" x2="377" y1="91.0679" y2="372.1281"/><line style="stroke:#A80036;stroke-width:1.0;stroke-dasharray:5.0,5.0;" x1="537" x2="537" y1="91.0679" y2="372.1281"/><text fill="#000000" font-family="sans-serif" font-size="14" lengthAdjust="spacing" text-decoration="underline" textLength="131" x="5" y="86.9659">Hydrogen Producer</text><ellipse cx="73.5" cy="15" fill="#FEFECE" filter="url(#fsxxzxcchbrlj)" rx="8" ry="8" style="stroke:#A80036;stroke-width:2.0;"/><path d="M73.5,23 L73.5,50 M60.5,31 L86.5,31 M73.5,50 L60.5,65 M73.5,50 L86.5,65 " fill="none" filter="url(#fsxxzxcchbrlj)" style="stroke:#A80036;stroke-width:2.0;"/><text fill="#000000" font-family="sans-serif" font-size="14" lengthAdjust="spacing" text-decoration="underline" textLength="131" x="5" y="386.094">Hydrogen Producer</text><ellipse cx="73.5" cy="400.196" fill="#FEFECE" filter="url(#fsxxzxcchbrlj)" rx="8" ry="8" style="stroke:#A80036;stroke-width:2.0;"/><path d="M73.5,408.196 L73.5,435.196 M60.5,416.196 L86.5,416.196 M73.5,435.196 L60.5,450.196 M73.5,435.196 L86.5,450.196 " fill="none" filter="url(#fsxxzxcchbrlj)" style="stroke:#A80036;stroke-width:2.0;"/><rect fill="#FEFECE" filter="url(#fsxxzxcchbrlj)" height="33.0679" rx="10" ry="10" style="stroke:#A80036;stroke-width:1.5;" width="172" x="152" y="53"/><text fill="#000000" font-family="sans-serif" font-size="14" lengthAdjust="spacing" text-decoration="underline" textLength="158" x="159" y="74.9659">Carbon Market Website</text><rect fill="#FEFECE" filter="url(#fsxxzxcchbrlj)" height="33.0679" rx="10" ry="10" style="stroke:#A80036;stroke-width:1.5;" width="172" x="152" y="371.1281"/><text fill="#000000" font-family="sans-serif" font-size="14" lengthAdjust="spacing" text-decoration="underline" textLength="158" x="159" y="393.094">Carbon Market Website</text><rect fill="#FEFECE" filter="url(#fsxxzxcchbrlj)" height="33.0679" rx="10" ry="10" style="stroke:#A80036;stroke-width:1.5;" width="74" x="338" y="53"/><text fill="#000000" font-family="sans-serif" font-size="14" lengthAdjust="spacing" text-decoration="underline" textLength="60" x="345" y="74.9659">HTTP API</text><rect fill="#FEFECE" filter="url(#fsxxzxcchbrlj)" height="33.0679" rx="10" ry="10" style="stroke:#A80036;stroke-width:1.5;" width="74" x="338" y="371.1281"/><text fill="#000000" font-family="sans-serif" font-size="14" lengthAdjust="spacing" text-decoration="underline" textLength="60" x="345" y="393.094">HTTP API</text><rect fill="#FEFECE" filter="url(#fsxxzxcchbrlj)" height="33.0679" rx="10" ry="10" style="stroke:#A80036;stroke-width:1.5;" width="219" x="426" y="53"/><text fill="#000000" font-family="sans-serif" font-size="14" lengthAdjust="spacing" text-decoration="underline" textLength="205" x="433" y="74.9659">Carbon Market Fabric Channel</text><rect fill="#FEFECE" filter="url(#fsxxzxcchbrlj)" height="33.0679" rx="10" ry="10" style="stroke:#A80036;stroke-width:1.5;" width="219" x="426" y="371.1281"/><text fill="#000000" font-family="sans-serif" font-size="14" lengthAdjust="spacing" text-decoration="underline" textLength="205" x="433" y="393.094">Carbon Market Fabric Channel</text><rect fill="#FFFFFF" filter="url(#fsxxzxcchbrlj)" height="211.6481" style="stroke:#A80036;stroke-width:1.0;" width="10" x="235" y="142.4799"/><rect fill="#FFFFFF" filter="url(#fsxxzxcchbrlj)" height="130.5301" style="stroke:#A80036;stroke-width:1.0;" width="10" x="372" y="191.892"/><rect fill="#FFFFFF" filter="url(#fsxxzxcchbrlj)" height="31.706" style="stroke:#A80036;stroke-width:1.0;" width="10" x="532.5" y="241.304"/><polygon fill="#A80036" points="223,138.4799,233,142.4799,223,146.4799,227,142.4799" style="stroke:#A80036;stroke-width:1.0;"/><line style="stroke:#A80036;stroke-width:2.0;" x1="73.5" x2="229" y1="142.4799" y2="142.4799"/><text fill="#000000" font-family="sans-serif" font-size="13" lengthAdjust="spacing" textLength="43" x="80.5" y="118.9649">Market</text><text fill="#000000" font-family="sans-serif" font-size="13" lengthAdjust="spacing" textLength="61" x="80.5" y="136.6709">Operation</text><polygon fill="#A80036" points="360,187.892,370,191.892,360,195.892,364,191.892" style="stroke:#A80036;stroke-width:1.0;"/><line style="stroke:#A80036;stroke-width:2.0;" x1="245" x2="366" y1="191.892" y2="191.892"/><text fill="#000000" font-family="sans-serif" font-size="13" lengthAdjust="spacing" textLength="39" x="252" y="168.377">Create</text><text fill="#000000" font-family="sans-serif" font-size="13" lengthAdjust="spacing" textLength="49" x="252" y="186.083">Request</text><polygon fill="#A80036" points="520.5,237.304,530.5,241.304,520.5,245.304,524.5,241.304" style="stroke:#A80036;stroke-width:1.0;"/><line style="stroke:#A80036;stroke-width:2.0;" x1="382" x2="526.5" y1="241.304" y2="241.304"/><text fill="#000000" font-family="sans-serif" font-size="13" lengthAdjust="spacing" textLength="64" x="389" y="217.789">Blockchain</text><text fill="#000000" font-family="sans-serif" font-size="13" lengthAdjust="spacing" textLength="61" x="389" y="235.495">Operation</text><polygon fill="#A80036" points="393,269.01,383,273.01,393,277.01,389,273.01" style="stroke:#A80036;stroke-width:1.0;"/><line style="stroke:#A80036;stroke-width:2.0;stroke-dasharray:2.0,2.0;" x1="387" x2="536.5" y1="273.01" y2="273.01"/><text fill="#000000" font-family="sans-serif" font-size="13" lengthAdjust="spacing" textLength="64" x="399" y="267.201">WorkDone</text><polygon fill="#A80036" points="256,318.4221,246,322.4221,256,326.4221,252,322.4221" style="stroke:#A80036;stroke-width:1.0;"/><line style="stroke:#A80036;stroke-width:2.0;stroke-dasharray:2.0,2.0;" x1="250" x2="376" y1="322.4221" y2="322.4221"/><text fill="#000000" font-family="sans-serif" font-size="13" lengthAdjust="spacing" textLength="49" x="262" y="298.907">Request</text><text fill="#000000" font-family="sans-serif" font-size="13" lengthAdjust="spacing" textLength="47" x="262" y="316.6131">Created</text><polygon fill="#A80036" points="84.5,350.1281,74.5,354.1281,84.5,358.1281,80.5,354.1281" style="stroke:#A80036;stroke-width:1.0;"/><line style="stroke:#A80036;stroke-width:2.0;stroke-dasharray:2.0,2.0;" x1="78.5" x2="239" y1="354.1281" y2="354.1281"/><text fill="#000000" font-family="sans-serif" font-size="13" lengthAdjust="spacing" textLength="32" x="90.5" y="348.3191">Done</text><!--MD5=[5a60d0677a60447687b7398c9a3be6ae]
@startuml SequenceNormal
skinparam sequenceArrowThickness 2
skinparam roundcorner 20
skinparam maxmessagesize 60
skinparam sequenceParticipant underline

actor "Hydrogen Producer" as User
participant "Carbon Market Website" as A
participant "HTTP API" as B
participant "Carbon Market Fabric Channel" as C

User -> A: Market Operation
activate A

A -> B: Create Request
activate B

B -> C: Blockchain Operation
activate C
C - -> B: WorkDone
deactivate C

B - -> A: Request Created
deactivate B

A - -> User: Done
deactivate A

@enduml

PlantUML version 1.2021.00(Sun Jan 10 21:25:05 AEDT 2021)
(GPL source distribution)
Java Runtime: OpenJDK Runtime Environment
JVM: OpenJDK 64-Bit Server VM
Default Encoding: UTF-8
Language: en
Country: US
--></g></svg>