<?xml version="1.0" encoding="UTF-8" standalone="no"?><svg xmlns="http://www.w3.org/2000/svg" xmlns:xlink="http://www.w3.org/1999/xlink" contentScriptType="application/ecmascript" contentStyleType="text/css" height="1120px" preserveAspectRatio="none" style="width:1336px;height:1120px;background:#FFFFFF;" version="1.1" viewBox="0 0 1336 1120" width="1336px" zoomAndPan="magnify"><defs><filter height="300%" id="fhfvbok75ma1q" width="300%" x="-1" y="-1"><feGaussianBlur result="blurOut" stdDeviation="2.0"/><feColorMatrix in="blurOut" result="blurOut2" type="matrix" values="0 0 0 0 0 0 0 0 0 0 0 0 0 0 0 0 0 0 .4 0"/><feOffset dx="4.0" dy="4.0" in="blurOut2" result="blurOut3"/><feBlend in="SourceGraphic" in2="blurOut3" mode="normal"/></filter></defs><g><rect fill="#FFFFFF" filter="url(#fhfvbok75ma1q)" height="872.5346" style="stroke:#A80036;stroke-width:1.0;" width="10" x="235" y="142.4799"/><rect fill="#FFFFFF" filter="url(#fhfvbok75ma1q)" height="773.7106" style="stroke:#A80036;stroke-width:1.0;" width="10" x="372" y="209.598"/><rect fill="#FFFFFF" filter="url(#fhfvbok75ma1q)" height="84.8241" style="stroke:#A80036;stroke-width:1.0;" width="10" x="541.5" y="312.1281"/><rect fill="#FFFFFF" filter="url(#fhfvbok75ma1q)" height="49.412" style="stroke:#A80036;stroke-width:1.0;" width="10" x="746" y="464.0702"/><rect fill="#FFFFFF" filter="url(#fhfvbok75ma1q)" height="67.118" style="stroke:#A80036;stroke-width:1.0;" width="10" x="888" y="866.7785"/><rect fill="#FFFFFF" filter="url(#fhfvbok75ma1q)" height="201.3541" style="stroke:#A80036;stroke-width:1.0;" width="10" x="1041" y="598.3063"/><rect fill="#FFFFFF" filter="url(#fhfvbok75ma1q)" height="67.118" style="stroke:#A80036;stroke-width:1.0;" width="10" x="1228.5" y="683.1304"/><line style="stroke:#A80036;stroke-width:1.0;stroke-dasharray:5.0,5.0;" x1="73" x2="73" y1="91.0679" y2="1033.0146"/><line style="stroke:#A80036;stroke-width:1.0;stroke-dasharray:5.0,5.0;" x1="240" x2="240" y1="91.0679" y2="1033.0146"/><line style="stroke:#A80036;stroke-width:1.0;stroke-dasharray:5.0,5.0;" x1="377" x2="377" y1="91.0679" y2="1033.0146"/><line style="stroke:#A80036;stroke-width:1.0;stroke-dasharray:5.0,5.0;" x1="546" x2="546" y1="91.0679" y2="1033.0146"/><line style="stroke:#A80036;stroke-width:1.0;stroke-dasharray:5.0,5.0;" x1="751" x2="751" y1="91.0679" y2="1033.0146"/><line style="stroke:#A80036;stroke-width:1.0;stroke-dasharray:5.0,5.0;" x1="893" x2="893" y1="91.0679" y2="1033.0146"/><line style="stroke:#A80036;stroke-width:1.0;stroke-dasharray:5.0,5.0;" x1="1046" x2="1046" y1="91.0679" y2="1033.0146"/><line style="stroke:#A80036;stroke-width:1.0;stroke-dasharray:5.0,5.0;" x1="1233" x2="1233" y1="91.0679" y2="1033.0146"/><text fill="#000000" font-family="sans-serif" font-size="14" lengthAdjust="spacing" text-decoration="underline" textLength="131" x="5" y="86.9659">Hydrogen Producer</text><ellipse cx="73.5" cy="15" fill="#FEFECE" filter="url(#fhfvbok75ma1q)" rx="8" ry="8" style="stroke:#A80036;stroke-width:2.0;"/><path d="M73.5,23 L73.5,50 M60.5,31 L86.5,31 M73.5,50 L60.5,65 M73.5,50 L86.5,65 " fill="none" filter="url(#fhfvbok75ma1q)" style="stroke:#A80036;stroke-width:2.0;"/><text fill="#000000" font-family="sans-serif" font-size="14" lengthAdjust="spacing" text-decoration="underline" textLength="131" x="5" y="1046.9805">Hydrogen Producer</text><ellipse cx="73.5" cy="1061.0825" fill="#FEFECE" filter="url(#fhfvbok75ma1q)" rx="8" ry="8" style="stroke:#A80036;stroke-width:2.0;"/><path d="M73.5,1069.0825 L73.5,1096.0825 M60.5,1077.0825 L86.5,1077.0825 M73.5,1096.0825 L60.5,1111.0825 M73.5,1096.0825 L86.5,1111.0825 " fill="none" filter="url(#fhfvbok75ma1q)" style="stroke:#A80036;stroke-width:2.0;"/><rect fill="#FEFECE" filter="url(#fhfvbok75ma1q)" height="33.0679" rx="10" ry="10" style="stroke:#A80036;stroke-width:1.5;" width="172" x="152" y="53"/><text fill="#000000" font-family="sans-serif" font-size="14" lengthAdjust="spacing" text-decoration="underline" textLength="158" x="159" y="74.9659">Carbon Market Website</text><rect fill="#FEFECE" filter="url(#fhfvbok75ma1q)" height="33.0679" rx="10" ry="10" style="stroke:#A80036;stroke-width:1.5;" width="172" x="152" y="1032.0146"/><text fill="#000000" font-family="sans-serif" font-size="14" lengthAdjust="spacing" text-decoration="underline" textLength="158" x="159" y="1053.9805">Carbon Market Website</text><rect fill="#FEFECE" filter="url(#fhfvbok75ma1q)" height="33.0679" rx="10" ry="10" style="stroke:#A80036;stroke-width:1.5;" width="74" x="338" y="53"/><text fill="#000000" font-family="sans-serif" font-size="14" lengthAdjust="spacing" text-decoration="underline" textLength="60" x="345" y="74.9659">HTTP API</text><rect fill="#FEFECE" filter="url(#fhfvbok75ma1q)" height="33.0679" rx="10" ry="10" style="stroke:#A80036;stroke-width:1.5;" width="74" x="338" y="1032.0146"/><text fill="#000000" font-family="sans-serif" font-size="14" lengthAdjust="spacing" text-decoration="underline" textLength="60" x="345" y="1053.9805">HTTP API</text><rect fill="#FEFECE" filter="url(#fhfvbok75ma1q)" height="33.0679" rx="10" ry="10" style="stroke:#A80036;stroke-width:1.5;" width="237" x="426" y="53"/><text fill="#000000" font-family="sans-serif" font-size="14" lengthAdjust="spacing" text-decoration="underline" textLength="223" x="433" y="74.9659">Hyperledger Certificate Authority</text><rect fill="#FEFECE" filter="url(#fhfvbok75ma1q)" height="33.0679" rx="10" ry="10" style="stroke:#A80036;stroke-width:1.5;" width="237" x="426" y="1032.0146"/><text fill="#000000" font-family="sans-serif" font-size="14" lengthAdjust="spacing" text-decoration="underline" textLength="223" x="433" y="1053.9805">Hyperledger Certificate Authority</text><text fill="#000000" font-family="sans-serif" font-size="14" lengthAdjust="spacing" text-decoration="underline" textLength="142" x="677" y="86.9659">Cryptographic Wallet</text><path d="M733,36 C733,26 751,26 751,26 C751,26 769,26 769,36 L769,62 C769,72 751,72 751,72 C751,72 733,72 733,62 L733,36 " fill="#FEFECE" filter="url(#fhfvbok75ma1q)" style="stroke:#000000;stroke-width:1.5;"/><path d="M733,36 C733,46 751,46 751,46 C751,46 769,46 769,36 " fill="none" style="stroke:#000000;stroke-width:1.5;"/><text fill="#000000" font-family="sans-serif" font-size="14" lengthAdjust="spacing" text-decoration="underline" textLength="142" x="677" y="1046.9805">Cryptographic Wallet</text><path d="M733,1061.0825 C733,1051.0825 751,1051.0825 751,1051.0825 C751,1051.0825 769,1051.0825 769,1061.0825 L769,1087.0825 C769,1097.0825 751,1097.0825 751,1097.0825 C751,1097.0825 733,1097.0825 733,1087.0825 L733,1061.0825 " fill="#FEFECE" filter="url(#fhfvbok75ma1q)" style="stroke:#000000;stroke-width:1.5;"/><path d="M733,1061.0825 C733,1071.0825 751,1071.0825 751,1071.0825 C751,1071.0825 769,1071.0825 769,1061.0825 " fill="none" style="stroke:#000000;stroke-width:1.5;"/><text fill="#000000" font-family="sans-serif" font-size="14" lengthAdjust="spacing" text-decoration="underline" textLength="110" x="835" y="86.9659">noSQL Database</text><path d="M875,36 C875,26 893,26 893,26 C893,26 911,26 911,36 L911,62 C911,72 893,72 893,72 C893,72 875,72 875,62 L875,36 " fill="#FEFECE" filter="url(#fhfvbok75ma1q)" style="stroke:#000000;stroke-width:1.5;"/><path d="M875,36 C875,46 893,46 893,46 C893,46 911,46 911,36 " fill="none" style="stroke:#000000;stroke-width:1.5;"/><text fill="#000000" font-family="sans-serif" font-size="14" lengthAdjust="spacing" text-decoration="underline" textLength="110" x="835" y="1046.9805">noSQL Database</text><path d="M875,1061.0825 C875,1051.0825 893,1051.0825 893,1051.0825 C893,1051.0825 911,1051.0825 911,1061.0825 L911,1087.0825 C911,1097.0825 893,1097.0825 893,1097.0825 C893,1097.0825 875,1097.0825 875,1087.0825 L875,1061.0825 " fill="#FEFECE" filter="url(#fhfvbok75ma1q)" style="stroke:#000000;stroke-width:1.5;"/><path d="M875,1061.0825 C875,1071.0825 893,1071.0825 893,1071.0825 C893,1071.0825 911,1071.0825 911,1061.0825 " fill="none" style="stroke:#000000;stroke-width:1.5;"/><rect fill="#FEFECE" filter="url(#fhfvbok75ma1q)" height="33.0679" rx="10" ry="10" style="stroke:#A80036;stroke-width:1.5;" width="166" x="961" y="53"/><text fill="#000000" font-family="sans-serif" font-size="14" lengthAdjust="spacing" text-decoration="underline" textLength="152" x="968" y="74.9659">Market Smart Contract</text><rect fill="#FEFECE" filter="url(#fhfvbok75ma1q)" height="33.0679" rx="10" ry="10" style="stroke:#A80036;stroke-width:1.5;" width="166" x="961" y="1032.0146"/><text fill="#000000" font-family="sans-serif" font-size="14" lengthAdjust="spacing" text-decoration="underline" textLength="152" x="968" y="1053.9805">Market Smart Contract</text><rect fill="#FEFECE" filter="url(#fhfvbok75ma1q)" height="33.0679" rx="10" ry="10" style="stroke:#A80036;stroke-width:1.5;" width="181" x="1141" y="53"/><text fill="#000000" font-family="sans-serif" font-size="14" lengthAdjust="spacing" text-decoration="underline" textLength="167" x="1148" y="74.9659">Registrar Smart Contract</text><rect fill="#FEFECE" filter="url(#fhfvbok75ma1q)" height="33.0679" rx="10" ry="10" style="stroke:#A80036;stroke-width:1.5;" width="181" x="1141" y="1032.0146"/><text fill="#000000" font-family="sans-serif" font-size="14" lengthAdjust="spacing" text-decoration="underline" textLength="167" x="1148" y="1053.9805">Registrar Smart Contract</text><rect fill="#FFFFFF" filter="url(#fhfvbok75ma1q)" height="872.5346" style="stroke:#A80036;stroke-width:1.0;" width="10" x="235" y="142.4799"/><rect fill="#FFFFFF" filter="url(#fhfvbok75ma1q)" height="773.7106" style="stroke:#A80036;stroke-width:1.0;" width="10" x="372" y="209.598"/><rect fill="#FFFFFF" filter="url(#fhfvbok75ma1q)" height="84.8241" style="stroke:#A80036;stroke-width:1.0;" width="10" x="541.5" y="312.1281"/><rect fill="#FFFFFF" filter="url(#fhfvbok75ma1q)" height="49.412" style="stroke:#A80036;stroke-width:1.0;" width="10" x="746" y="464.0702"/><rect fill="#FFFFFF" filter="url(#fhfvbok75ma1q)" height="67.118" style="stroke:#A80036;stroke-width:1.0;" width="10" x="888" y="866.7785"/><rect fill="#FFFFFF" filter="url(#fhfvbok75ma1q)" height="201.3541" style="stroke:#A80036;stroke-width:1.0;" width="10" x="1041" y="598.3063"/><rect fill="#FFFFFF" filter="url(#fhfvbok75ma1q)" height="67.118" style="stroke:#A80036;stroke-width:1.0;" width="10" x="1228.5" y="683.1304"/><polygon fill="#A80036" points="223,138.4799,233,142.4799,223,146.4799,227,142.4799" style="stroke:#A80036;stroke-width:1.0;"/><line style="stroke:#A80036;stroke-width:2.0;" x1="73.5" x2="229" y1="142.4799" y2="142.4799"/><text fill="#000000" font-family="sans-serif" font-size="13" lengthAdjust="spacing" textLength="49" x="80.5" y="118.9649">Request</text><text fill="#000000" font-family="sans-serif" font-size="13" lengthAdjust="spacing" textLength="73" x="80.5" y="136.6709">Registration</text><polygon fill="#A80036" points="360,205.598,370,209.598,360,213.598,364,209.598" style="stroke:#A80036;stroke-width:1.0;"/><line style="stroke:#A80036;stroke-width:2.0;" x1="245" x2="366" y1="209.598" y2="209.598"/><text fill="#000000" font-family="sans-serif" font-size="13" lengthAdjust="spacing" textLength="73" x="252" y="168.377">Registration</text><text fill="#000000" font-family="sans-serif" font-size="13" lengthAdjust="spacing" textLength="32" x="252" y="186.083">HTTP</text><text fill="#000000" font-family="sans-serif" font-size="13" lengthAdjust="spacing" textLength="49" x="252" y="203.789">Request</text><polygon fill="#A80036" points="529.5,308.1281,539.5,312.1281,529.5,316.1281,533.5,312.1281" style="stroke:#A80036;stroke-width:1.0;"/><line style="stroke:#A80036;stroke-width:2.0;" x1="382" x2="535.5" y1="312.1281" y2="312.1281"/><text fill="#000000" font-family="sans-serif" font-size="13" lengthAdjust="spacing" textLength="36" x="389" y="235.495">Check</text><text fill="#000000" font-family="sans-serif" font-size="13" lengthAdjust="spacing" textLength="67" x="389" y="253.201">Credentials</text><text fill="#000000" font-family="sans-serif" font-size="13" lengthAdjust="spacing" textLength="26" x="389" y="270.907">with</text><text fill="#000000" font-family="sans-serif" font-size="13" lengthAdjust="spacing" textLength="60" x="389" y="288.6131">Certificate</text><text fill="#000000" font-family="sans-serif" font-size="13" lengthAdjust="spacing" textLength="57" x="389" y="306.3191">Authority</text><polygon fill="#A80036" points="393,392.9521,383,396.9521,393,400.9521,389,396.9521" style="stroke:#A80036;stroke-width:1.0;"/><line style="stroke:#A80036;stroke-width:2.0;" x1="387" x2="545.5" y1="396.9521" y2="396.9521"/><text fill="#000000" font-family="sans-serif" font-size="13" lengthAdjust="spacing" textLength="35" x="399" y="338.0251">Finish</text><text fill="#000000" font-family="sans-serif" font-size="13" lengthAdjust="spacing" textLength="60" x="399" y="355.7311">Certificate</text><text fill="#000000" font-family="sans-serif" font-size="13" lengthAdjust="spacing" textLength="57" x="399" y="373.4371">Authority</text><text fill="#000000" font-family="sans-serif" font-size="13" lengthAdjust="spacing" textLength="73" x="399" y="391.1431">Registration</text><polygon fill="#A80036" points="734,460.0702,744,464.0702,734,468.0702,738,464.0702" style="stroke:#A80036;stroke-width:1.0;"/><line style="stroke:#A80036;stroke-width:2.0;" x1="382" x2="740" y1="464.0702" y2="464.0702"/><text fill="#000000" font-family="sans-serif" font-size="13" lengthAdjust="spacing" textLength="54" x="389" y="422.8492">Populate</text><text fill="#000000" font-family="sans-serif" font-size="13" lengthAdjust="spacing" textLength="41" x="389" y="440.5552">Crypto</text><text fill="#000000" font-family="sans-serif" font-size="13" lengthAdjust="spacing" textLength="37" x="389" y="458.2612">Wallet</text><polygon fill="#A80036" points="393,509.4822,383,513.4822,393,517.4822,389,513.4822" style="stroke:#A80036;stroke-width:1.0;"/><line style="stroke:#A80036;stroke-width:2.0;" x1="387" x2="750" y1="513.4822" y2="513.4822"/><text fill="#000000" font-family="sans-serif" font-size="13" lengthAdjust="spacing" textLength="35" x="399" y="489.9672">Finish</text><text fill="#000000" font-family="sans-serif" font-size="13" lengthAdjust="spacing" textLength="66" x="399" y="507.6732">Populating</text><polygon fill="#A80036" points="1029,594.3063,1039,598.3063,1029,602.3063,1033,598.3063" style="stroke:#A80036;stroke-width:1.0;"/><line style="stroke:#A80036;stroke-width:2.0;" x1="382" x2="1035" y1="598.3063" y2="598.3063"/><text fill="#000000" font-family="sans-serif" font-size="13" lengthAdjust="spacing" textLength="36" x="389" y="539.3792">Smart</text><text fill="#000000" font-family="sans-serif" font-size="13" lengthAdjust="spacing" textLength="52" x="389" y="557.0853">Contract</text><text fill="#000000" font-family="sans-serif" font-size="13" lengthAdjust="spacing" textLength="37" x="389" y="574.7913">Token</text><text fill="#000000" font-family="sans-serif" font-size="13" lengthAdjust="spacing" textLength="56" x="389" y="592.4973">Provision</text><polygon fill="#A80036" points="1216.5,679.1304,1226.5,683.1304,1216.5,687.1304,1220.5,683.1304" style="stroke:#A80036;stroke-width:1.0;"/><line style="stroke:#A80036;stroke-width:2.0;" x1="1051" x2="1222.5" y1="683.1304" y2="683.1304"/><text fill="#000000" font-family="sans-serif" font-size="13" lengthAdjust="spacing" textLength="36" x="1058" y="624.2033">Check</text><text fill="#000000" font-family="sans-serif" font-size="13" lengthAdjust="spacing" textLength="54" x="1058" y="641.9093">Registrar</text><text fill="#000000" font-family="sans-serif" font-size="13" lengthAdjust="spacing" textLength="57" x="1058" y="659.6153">for Token</text><text fill="#000000" font-family="sans-serif" font-size="13" lengthAdjust="spacing" textLength="49" x="1058" y="677.3214">Amount</text><polygon fill="#A80036" points="1062,746.2484,1052,750.2484,1062,754.2484,1058,750.2484" style="stroke:#A80036;stroke-width:1.0;"/><line style="stroke:#A80036;stroke-width:2.0;" x1="1056" x2="1232.5" y1="750.2484" y2="750.2484"/><text fill="#000000" font-family="sans-serif" font-size="13" lengthAdjust="spacing" textLength="41" x="1068" y="709.0274">Return</text><text fill="#000000" font-family="sans-serif" font-size="13" lengthAdjust="spacing" textLength="37" x="1068" y="726.7334">Token</text><text fill="#000000" font-family="sans-serif" font-size="13" lengthAdjust="spacing" textLength="49" x="1068" y="744.4394">Amount</text><polygon fill="#A80036" points="393,795.6604,383,799.6604,393,803.6604,389,799.6604" style="stroke:#A80036;stroke-width:1.0;"/><line style="stroke:#A80036;stroke-width:2.0;" x1="387" x2="1045" y1="799.6604" y2="799.6604"/><text fill="#000000" font-family="sans-serif" font-size="13" lengthAdjust="spacing" textLength="35" x="399" y="776.1454">Finish</text><text fill="#000000" font-family="sans-serif" font-size="13" lengthAdjust="spacing" textLength="73" x="399" y="793.8514">Initialisation</text><polygon fill="#A80036" points="876,862.7785,886,866.7785,876,870.7785,880,866.7785" style="stroke:#A80036;stroke-width:1.0;"/><line style="stroke:#A80036;stroke-width:2.0;" x1="382" x2="882" y1="866.7785" y2="866.7785"/><text fill="#000000" font-family="sans-serif" font-size="13" lengthAdjust="spacing" textLength="46" x="389" y="825.5575">Provide</text><text fill="#000000" font-family="sans-serif" font-size="13" lengthAdjust="spacing" textLength="40" x="389" y="843.2635">noSQL</text><text fill="#000000" font-family="sans-serif" font-size="13" lengthAdjust="spacing" textLength="67" x="389" y="860.9695">Credentials</text><polygon fill="#A80036" points="393,929.8965,383,933.8965,393,937.8965,389,933.8965" style="stroke:#A80036;stroke-width:1.0;"/><line style="stroke:#A80036;stroke-width:2.0;" x1="387" x2="892" y1="933.8965" y2="933.8965"/><text fill="#000000" font-family="sans-serif" font-size="13" lengthAdjust="spacing" textLength="35" x="399" y="892.6755">Finish</text><text fill="#000000" font-family="sans-serif" font-size="13" lengthAdjust="spacing" textLength="40" x="399" y="910.3815">noSQL</text><text fill="#000000" font-family="sans-serif" font-size="13" lengthAdjust="spacing" textLength="67" x="399" y="928.0875">Credentials</text><polygon fill="#A80036" points="256,979.3086,246,983.3086,256,987.3086,252,983.3086" style="stroke:#A80036;stroke-width:1.0;"/><line style="stroke:#A80036;stroke-width:2.0;stroke-dasharray:2.0,2.0;" x1="250" x2="376" y1="983.3086" y2="983.3086"/><text fill="#000000" font-family="sans-serif" font-size="13" lengthAdjust="spacing" textLength="61" x="262" y="959.7936">Credential</text><text fill="#000000" font-family="sans-serif" font-size="13" lengthAdjust="spacing" textLength="34" x="262" y="977.4996">result</text><polygon fill="#A80036" points="84.5,1011.0146,74.5,1015.0146,84.5,1019.0146,80.5,1015.0146" style="stroke:#A80036;stroke-width:1.0;"/><line style="stroke:#A80036;stroke-width:2.0;stroke-dasharray:2.0,2.0;" x1="78.5" x2="239" y1="1015.0146" y2="1015.0146"/><text fill="#000000" font-family="sans-serif" font-size="13" lengthAdjust="spacing" textLength="32" x="90.5" y="1009.2056">Done</text><!--MD5=[dfc50cb8287b053e6603ec0c0fd001b8]
@startuml AccontCreation
skinparam sequenceArrowThickness 2
skinparam roundcorner 20
skinparam maxmessagesize 60
skinparam sequenceParticipant underline

actor "Hydrogen Producer" as User
participant "Carbon Market Website" as A
participant "HTTP API" as B
participant "Hyperledger Certificate Authority" as C
database "Cryptographic Wallet" as D
database "noSQL Database" as E
participant "Market Smart Contract" as F
participant "Registrar Smart Contract" as G

User -> A: Request Registration
activate A

A -> B: Registration HTTP Request
activate B

B -> C: Check Credentials with Certificate Authority
activate C
C -> B: Finish Certificate Authority Registration
deactivate C
B -> D: Populate Crypto Wallet
activate D
D -> B: Finish Populating
deactivate D
B -> F: Smart Contract Token Provision
activate F
F -> G: Check Registrar for Token Amount
activate G
G -> F: Return Token Amount
deactivate G
F -> B: Finish Initialisation
deactivate F
B -> E: Provide noSQL Credentials
activate E
E -> B: Finish noSQL Credentials
deactivate E

B - -> A: Credential result
deactivate B

A - -> User: Done
deactivate A

@enduml

PlantUML version 1.2021.7(Sun May 23 22:40:07 AEST 2021)
(GPL source distribution)
Java Runtime: OpenJDK Runtime Environment
JVM: OpenJDK 64-Bit Server VM
Default Encoding: UTF-8
Language: en
Country: US
--></g></svg>