<?xml version="1.0" encoding="UTF-8" standalone="no"?><svg xmlns="http://www.w3.org/2000/svg" xmlns:xlink="http://www.w3.org/1999/xlink" contentScriptType="application/ecmascript" contentStyleType="text/css" height="889px" preserveAspectRatio="none" style="width:1027px;height:889px;background:#FFFFFF;" version="1.1" viewBox="0 0 1027 889" width="1027px" zoomAndPan="magnify"><defs><filter height="300%" id="f1jw2z9eq9klex" width="300%" x="-1" y="-1"><feGaussianBlur result="blurOut" stdDeviation="2.0"/><feColorMatrix in="blurOut" result="blurOut2" type="matrix" values="0 0 0 0 0 0 0 0 0 0 0 0 0 0 0 0 0 0 .4 0"/><feOffset dx="4.0" dy="4.0" in="blurOut2" result="blurOut3"/><feBlend in="SourceGraphic" in2="blurOut3" mode="normal"/></filter></defs><g><text fill="#000000" font-family="sans-serif" font-size="18" lengthAdjust="spacing" textLength="137" x="442.5" y="31.2419">Carboncoin Sale</text><rect fill="#ADD8E6" height="839.1983" rx="10" ry="10" style="stroke:#A80036;stroke-width:1.0;" width="441" x="580" y="44.5158"/><text fill="#000000" font-family="sans-serif" font-size="13" font-weight="bold" lengthAdjust="spacing" textLength="232" x="684.5" y="58.4129">Carbon Market Blockchain Channel</text><rect fill="#FFFFFF" filter="url(#f1jw2z9eq9klex)" height="595.6504" style="stroke:#A80036;stroke-width:1.0;" width="10" x="235" y="180.9958"/><rect fill="#FFFFFF" filter="url(#f1jw2z9eq9klex)" height="479.1203" style="stroke:#A80036;stroke-width:1.0;" width="10" x="372" y="230.4078"/><rect fill="#FFFFFF" filter="url(#f1jw2z9eq9klex)" height="49.412" style="stroke:#A80036;stroke-width:1.0;" width="10" x="495" y="279.8199"/><rect fill="#FFFFFF" filter="url(#f1jw2z9eq9klex)" height="165.9421" style="stroke:#A80036;stroke-width:1.0;" width="10" x="690.5" y="378.6439"/><rect fill="#FFFFFF" filter="url(#f1jw2z9eq9klex)" height="49.412" style="stroke:#A80036;stroke-width:1.0;" width="10" x="912" y="445.762"/><line style="stroke:#A80036;stroke-width:1.0;stroke-dasharray:5.0,5.0;" x1="73" x2="73" y1="129.5838" y2="794.6462"/><line style="stroke:#A80036;stroke-width:1.0;stroke-dasharray:5.0,5.0;" x1="240" x2="240" y1="129.5838" y2="794.6462"/><line style="stroke:#A80036;stroke-width:1.0;stroke-dasharray:5.0,5.0;" x1="377" x2="377" y1="129.5838" y2="794.6462"/><line style="stroke:#A80036;stroke-width:1.0;stroke-dasharray:5.0,5.0;" x1="500" x2="500" y1="129.5838" y2="794.6462"/><line style="stroke:#A80036;stroke-width:1.0;stroke-dasharray:5.0,5.0;" x1="695" x2="695" y1="129.5838" y2="794.6462"/><line style="stroke:#A80036;stroke-width:1.0;stroke-dasharray:5.0,5.0;" x1="917" x2="917" y1="129.5838" y2="794.6462"/><text fill="#000000" font-family="sans-serif" font-size="14" lengthAdjust="spacing" text-decoration="underline" textLength="131" x="5" y="125.4818">Hydrogen Producer</text><ellipse cx="73.5" cy="53.5158" fill="#FEFECE" filter="url(#f1jw2z9eq9klex)" rx="8" ry="8" style="stroke:#A80036;stroke-width:2.0;"/><path d="M73.5,61.5158 L73.5,88.5158 M60.5,69.5158 L86.5,69.5158 M73.5,88.5158 L60.5,103.5158 M73.5,88.5158 L86.5,103.5158 " fill="none" filter="url(#f1jw2z9eq9klex)" style="stroke:#A80036;stroke-width:2.0;"/><text fill="#000000" font-family="sans-serif" font-size="14" lengthAdjust="spacing" text-decoration="underline" textLength="131" x="5" y="808.6121">Hydrogen Producer</text><ellipse cx="73.5" cy="822.7141" fill="#FEFECE" filter="url(#f1jw2z9eq9klex)" rx="8" ry="8" style="stroke:#A80036;stroke-width:2.0;"/><path d="M73.5,830.7141 L73.5,857.7141 M60.5,838.7141 L86.5,838.7141 M73.5,857.7141 L60.5,872.7141 M73.5,857.7141 L86.5,872.7141 " fill="none" filter="url(#f1jw2z9eq9klex)" style="stroke:#A80036;stroke-width:2.0;"/><rect fill="#FEFECE" filter="url(#f1jw2z9eq9klex)" height="33.0679" rx="10" ry="10" style="stroke:#A80036;stroke-width:1.5;" width="172" x="152" y="91.5158"/><text fill="#000000" font-family="sans-serif" font-size="14" lengthAdjust="spacing" text-decoration="underline" textLength="158" x="159" y="113.4818">Carbon Market Website</text><rect fill="#FEFECE" filter="url(#f1jw2z9eq9klex)" height="33.0679" rx="10" ry="10" style="stroke:#A80036;stroke-width:1.5;" width="172" x="152" y="793.6462"/><text fill="#000000" font-family="sans-serif" font-size="14" lengthAdjust="spacing" text-decoration="underline" textLength="158" x="159" y="815.6121">Carbon Market Website</text><rect fill="#FEFECE" filter="url(#f1jw2z9eq9klex)" height="33.0679" rx="10" ry="10" style="stroke:#A80036;stroke-width:1.5;" width="74" x="338" y="91.5158"/><text fill="#000000" font-family="sans-serif" font-size="14" lengthAdjust="spacing" text-decoration="underline" textLength="60" x="345" y="113.4818">HTTP API</text><rect fill="#FEFECE" filter="url(#f1jw2z9eq9klex)" height="33.0679" rx="10" ry="10" style="stroke:#A80036;stroke-width:1.5;" width="74" x="338" y="793.6462"/><text fill="#000000" font-family="sans-serif" font-size="14" lengthAdjust="spacing" text-decoration="underline" textLength="60" x="345" y="815.6121">HTTP API</text><text fill="#000000" font-family="sans-serif" font-size="14" lengthAdjust="spacing" text-decoration="underline" textLength="142" x="426" y="125.4818">Cryptographic Wallet</text><path d="M482,74.5158 C482,64.5158 500,64.5158 500,64.5158 C500,64.5158 518,64.5158 518,74.5158 L518,100.5158 C518,110.5158 500,110.5158 500,110.5158 C500,110.5158 482,110.5158 482,100.5158 L482,74.5158 " fill="#FEFECE" filter="url(#f1jw2z9eq9klex)" style="stroke:#000000;stroke-width:1.5;"/><path d="M482,74.5158 C482,84.5158 500,84.5158 500,84.5158 C500,84.5158 518,84.5158 518,74.5158 " fill="none" style="stroke:#000000;stroke-width:1.5;"/><text fill="#000000" font-family="sans-serif" font-size="14" lengthAdjust="spacing" text-decoration="underline" textLength="142" x="426" y="808.6121">Cryptographic Wallet</text><path d="M482,822.7141 C482,812.7141 500,812.7141 500,812.7141 C500,812.7141 518,812.7141 518,822.7141 L518,848.7141 C518,858.7141 500,858.7141 500,858.7141 C500,858.7141 482,858.7141 482,848.7141 L482,822.7141 " fill="#FEFECE" filter="url(#f1jw2z9eq9klex)" style="stroke:#000000;stroke-width:1.5;"/><path d="M482,822.7141 C482,832.7141 500,832.7141 500,832.7141 C500,832.7141 518,832.7141 518,822.7141 " fill="none" style="stroke:#000000;stroke-width:1.5;"/><rect fill="#FEFECE" filter="url(#f1jw2z9eq9klex)" height="33.0679" rx="10" ry="10" style="stroke:#A80036;stroke-width:1.5;" width="219" x="584" y="91.5158"/><text fill="#000000" font-family="sans-serif" font-size="14" lengthAdjust="spacing" text-decoration="underline" textLength="205" x="591" y="113.4818">Carbon Market Smart Contract</text><rect fill="#FEFECE" filter="url(#f1jw2z9eq9klex)" height="33.0679" rx="10" ry="10" style="stroke:#A80036;stroke-width:1.5;" width="219" x="584" y="793.6462"/><text fill="#000000" font-family="sans-serif" font-size="14" lengthAdjust="spacing" text-decoration="underline" textLength="205" x="591" y="815.6121">Carbon Market Smart Contract</text><rect fill="#FEFECE" filter="url(#f1jw2z9eq9klex)" height="33.0679" rx="10" ry="10" style="stroke:#A80036;stroke-width:1.5;" width="196" x="817" y="91.5158"/><text fill="#000000" font-family="sans-serif" font-size="14" lengthAdjust="spacing" text-decoration="underline" textLength="182" x="824" y="113.4818">Carboncoin Smart Contract</text><rect fill="#FEFECE" filter="url(#f1jw2z9eq9klex)" height="33.0679" rx="10" ry="10" style="stroke:#A80036;stroke-width:1.5;" width="196" x="817" y="793.6462"/><text fill="#000000" font-family="sans-serif" font-size="14" lengthAdjust="spacing" text-decoration="underline" textLength="182" x="824" y="815.6121">Carboncoin Smart Contract</text><rect fill="#FFFFFF" filter="url(#f1jw2z9eq9klex)" height="595.6504" style="stroke:#A80036;stroke-width:1.0;" width="10" x="235" y="180.9958"/><rect fill="#FFFFFF" filter="url(#f1jw2z9eq9klex)" height="479.1203" style="stroke:#A80036;stroke-width:1.0;" width="10" x="372" y="230.4078"/><rect fill="#FFFFFF" filter="url(#f1jw2z9eq9klex)" height="49.412" style="stroke:#A80036;stroke-width:1.0;" width="10" x="495" y="279.8199"/><rect fill="#FFFFFF" filter="url(#f1jw2z9eq9klex)" height="165.9421" style="stroke:#A80036;stroke-width:1.0;" width="10" x="690.5" y="378.6439"/><rect fill="#FFFFFF" filter="url(#f1jw2z9eq9klex)" height="49.412" style="stroke:#A80036;stroke-width:1.0;" width="10" x="912" y="445.762"/><polygon fill="#A80036" points="223,176.9958,233,180.9958,223,184.9958,227,180.9958" style="stroke:#A80036;stroke-width:1.0;"/><line style="stroke:#A80036;stroke-width:2.0;" x1="73.5" x2="229" y1="180.9958" y2="180.9958"/><text fill="#000000" font-family="sans-serif" font-size="13" lengthAdjust="spacing" textLength="20" x="80.5" y="157.4808">Sell</text><text fill="#000000" font-family="sans-serif" font-size="13" lengthAdjust="spacing" textLength="69" x="80.5" y="175.1868">Carboncoin</text><polygon fill="#A80036" points="360,226.4078,370,230.4078,360,234.4078,364,230.4078" style="stroke:#A80036;stroke-width:1.0;"/><line style="stroke:#A80036;stroke-width:2.0;" x1="245" x2="366" y1="230.4078" y2="230.4078"/><text fill="#000000" font-family="sans-serif" font-size="13" lengthAdjust="spacing" textLength="50" x="252" y="206.8928">Sell Coin</text><text fill="#000000" font-family="sans-serif" font-size="13" lengthAdjust="spacing" textLength="49" x="252" y="224.5988">Request</text><polygon fill="#A80036" points="483,275.8199,493,279.8199,483,283.8199,487,279.8199" style="stroke:#A80036;stroke-width:1.0;"/><line style="stroke:#A80036;stroke-width:2.0;" x1="382" x2="489" y1="279.8199" y2="279.8199"/><text fill="#000000" font-family="sans-serif" font-size="13" lengthAdjust="spacing" textLength="21" x="389" y="256.3048">Get</text><text fill="#000000" font-family="sans-serif" font-size="13" lengthAdjust="spacing" textLength="67" x="389" y="274.0109">Credentials</text><polygon fill="#A80036" points="393,325.2319,383,329.2319,393,333.2319,389,329.2319" style="stroke:#A80036;stroke-width:1.0;"/><line style="stroke:#A80036;stroke-width:2.0;" x1="387" x2="499" y1="329.2319" y2="329.2319"/><text fill="#000000" font-family="sans-serif" font-size="13" lengthAdjust="spacing" textLength="41" x="399" y="305.7169">Return</text><text fill="#000000" font-family="sans-serif" font-size="13" lengthAdjust="spacing" textLength="67" x="399" y="323.4229">Credentials</text><polygon fill="#A80036" points="678.5,374.6439,688.5,378.6439,678.5,382.6439,682.5,378.6439" style="stroke:#A80036;stroke-width:1.0;"/><line style="stroke:#A80036;stroke-width:2.0;" x1="382" x2="684.5" y1="378.6439" y2="378.6439"/><text fill="#000000" font-family="sans-serif" font-size="13" lengthAdjust="spacing" textLength="39" x="389" y="355.1289">Create</text><text fill="#000000" font-family="sans-serif" font-size="13" lengthAdjust="spacing" textLength="53" x="389" y="372.8349">Sell Offer</text><polygon fill="#A80036" points="900,441.762,910,445.762,900,449.762,904,445.762" style="stroke:#A80036;stroke-width:1.0;"/><line style="stroke:#A80036;stroke-width:2.0;" x1="700.5" x2="906" y1="445.762" y2="445.762"/><text fill="#000000" font-family="sans-serif" font-size="13" lengthAdjust="spacing" textLength="36" x="707.5" y="404.5409">Check</text><text fill="#000000" font-family="sans-serif" font-size="13" lengthAdjust="spacing" textLength="69" x="707.5" y="422.247">Carboncoin</text><text fill="#000000" font-family="sans-serif" font-size="13" lengthAdjust="spacing" textLength="46" x="707.5" y="439.953">Balance</text><polygon fill="#A80036" points="711.5,491.174,701.5,495.174,711.5,499.174,707.5,495.174" style="stroke:#A80036;stroke-width:1.0;"/><line style="stroke:#A80036;stroke-width:2.0;" x1="705.5" x2="916" y1="495.174" y2="495.174"/><text fill="#000000" font-family="sans-serif" font-size="13" lengthAdjust="spacing" textLength="46" x="717.5" y="471.659">Balance</text><text fill="#000000" font-family="sans-serif" font-size="13" lengthAdjust="spacing" textLength="37" x="717.5" y="489.365">Result</text><polygon fill="#A80036" points="393,540.586,383,544.586,393,548.586,389,544.586" style="stroke:#A80036;stroke-width:1.0;"/><line style="stroke:#A80036;stroke-width:2.0;" x1="387" x2="694.5" y1="544.586" y2="544.586"/><text fill="#000000" font-family="sans-serif" font-size="13" lengthAdjust="spacing" textLength="46" x="399" y="521.071">Process</text><text fill="#000000" font-family="sans-serif" font-size="13" lengthAdjust="spacing" textLength="57" x="399" y="538.777">Sale Offer</text><line style="stroke:#A80036;stroke-width:2.0;" x1="382" x2="424" y1="629.4101" y2="629.4101"/><line style="stroke:#A80036;stroke-width:2.0;" x1="424" x2="424" y1="629.4101" y2="642.4101"/><line style="stroke:#A80036;stroke-width:2.0;" x1="383" x2="424" y1="642.4101" y2="642.4101"/><polygon fill="#A80036" points="393,638.4101,383,642.4101,393,646.4101,389,642.4101" style="stroke:#A80036;stroke-width:1.0;"/><text fill="#000000" font-family="sans-serif" font-size="13" lengthAdjust="spacing" textLength="32" x="389" y="570.4831">Close</text><text fill="#000000" font-family="sans-serif" font-size="13" lengthAdjust="spacing" textLength="52" x="389" y="588.1891">Gateway</text><text fill="#000000" font-family="sans-serif" font-size="13" lengthAdjust="spacing" textLength="57" x="389" y="605.8951">with User</text><text fill="#000000" font-family="sans-serif" font-size="13" lengthAdjust="spacing" textLength="60" x="389" y="623.6011">Certificate</text><polygon fill="#A80036" points="256,705.5282,246,709.5282,256,713.5282,252,709.5282" style="stroke:#A80036;stroke-width:1.0;"/><line style="stroke:#A80036;stroke-width:2.0;" x1="250" x2="376" y1="709.5282" y2="709.5282"/><text fill="#000000" font-family="sans-serif" font-size="13" lengthAdjust="spacing" textLength="47" x="262" y="668.3071">Resturn</text><text fill="#000000" font-family="sans-serif" font-size="13" lengthAdjust="spacing" textLength="52" x="262" y="686.0131">Result of</text><text fill="#000000" font-family="sans-serif" font-size="13" lengthAdjust="spacing" textLength="30" x="262" y="703.7192">Offer</text><polygon fill="#A80036" points="84.5,772.6462,74.5,776.6462,84.5,780.6462,80.5,776.6462" style="stroke:#A80036;stroke-width:1.0;"/><line style="stroke:#A80036;stroke-width:2.0;" x1="78.5" x2="239" y1="776.6462" y2="776.6462"/><text fill="#000000" font-family="sans-serif" font-size="13" lengthAdjust="spacing" textLength="50" x="90.5" y="735.4252">Observe</text><text fill="#000000" font-family="sans-serif" font-size="13" lengthAdjust="spacing" textLength="24" x="90.5" y="753.1312">Sale</text><text fill="#000000" font-family="sans-serif" font-size="13" lengthAdjust="spacing" textLength="37" x="90.5" y="770.8372">Result</text><!--MD5=[b838f6bbd52f3222c004832a394c2d56]
@startuml CreateSale
skinparam sequenceArrowThickness 2
skinparam roundcorner 20
skinparam maxmessagesize 60
skinparam sequenceParticipant underline
title Carboncoin Sale

actor "Hydrogen Producer" as User
participant "Carbon Market Website" as Website
participant "HTTP API" as API
database "Cryptographic Wallet" as Wallet
box "Carbon Market Blockchain Channel" #LightBlue
participant "Carbon Market Smart Contract" as CMSC 
participant "Carboncoin Smart Contract" as CCSC 

User -> Website: Sell Carboncoin
activate Website 

Website -> API: Sell Coin Request 
activate API 

API -> Wallet: Get Credentials 
activate Wallet

Wallet -> API: Return Credentials 
deactivate Wallet

API -> CMSC: Create Sell Offer
activate CMSC

CMSC -> CCSC: Check Carboncoin Balance 
activate CCSC
CCSC -> CMSC: Balance Result 
deactivate CCSC

CMSC -> API: Process Sale Offer
deactivate CMSC

API -> API: Close Gateway with User Certificate


API -> Website: Resturn Result of Offer
deactivate API
Website -> User: Observe Sale Result
deactivate Website


@enduml

PlantUML version 1.2021.7(Sun May 23 22:40:07 AEST 2021)
(GPL source distribution)
Java Runtime: OpenJDK Runtime Environment
JVM: OpenJDK 64-Bit Server VM
Default Encoding: UTF-8
Language: en
Country: US
--></g></svg>