<?xml version="1.0" encoding="UTF-8" standalone="no"?><svg xmlns="http://www.w3.org/2000/svg" xmlns:xlink="http://www.w3.org/1999/xlink" contentScriptType="application/ecmascript" contentStyleType="text/css" height="987px" preserveAspectRatio="none" style="width:1081px;height:987px;background:#FFFFFF;" version="1.1" viewBox="0 0 1081 987" width="1081px" zoomAndPan="magnify"><defs><filter height="300%" id="f10fefwd39ne2c" width="300%" x="-1" y="-1"><feGaussianBlur result="blurOut" stdDeviation="2.0"/><feColorMatrix in="blurOut" result="blurOut2" type="matrix" values="0 0 0 0 0 0 0 0 0 0 0 0 0 0 0 0 0 0 .4 0"/><feOffset dx="4.0" dy="4.0" in="blurOut2" result="blurOut3"/><feBlend in="SourceGraphic" in2="blurOut3" mode="normal"/></filter></defs><g><text fill="#000000" font-family="sans-serif" font-size="18" lengthAdjust="spacing" textLength="224" x="426.5" y="31.2419">Carboncoin Offer Retrieval</text><rect fill="#ADD8E6" height="937.2982" rx="10" ry="10" style="stroke:#A80036;stroke-width:1.0;" width="481" x="580" y="44.5158"/><text fill="#000000" font-family="sans-serif" font-size="13" font-weight="bold" lengthAdjust="spacing" textLength="232" x="704.5" y="58.4129">Carbon Market Blockchain Channel</text><rect fill="#FFFFFF" filter="url(#f10fefwd39ne2c)" height="709.7504" style="stroke:#A80036;stroke-width:1.0;" width="10" x="235" y="164.9958"/><rect fill="#FFFFFF" filter="url(#f10fefwd39ne2c)" height="610.9263" style="stroke:#A80036;stroke-width:1.0;" width="10" x="372" y="214.4078"/><rect fill="#FFFFFF" filter="url(#f10fefwd39ne2c)" height="49.412" style="stroke:#A80036;stroke-width:1.0;" width="10" x="495" y="263.8199"/><rect fill="#FFFFFF" filter="url(#f10fefwd39ne2c)" height="333.1601" style="stroke:#A80036;stroke-width:1.0;" width="10" x="690.5" y="380.3499"/><rect fill="#FFFFFF" filter="url(#f10fefwd39ne2c)" height="67.118" style="stroke:#A80036;stroke-width:1.0;" width="10" x="932" y="474.174"/><rect fill="#FFFFFF" filter="url(#f10fefwd39ne2c)" height="31.706" style="stroke:#A80036;stroke-width:1.0;" width="10" x="932" y="643.098"/><rect fill="#FFFFFF" filter="url(#f10fefwd39ne2c)" height="287.4541" rx="10" ry="10" style="stroke:#000000;stroke-width:2.0;" width="493" x="574" y="395.3499"/><rect fill="#FFFFFF" height="133.512" style="stroke:none;stroke-width:1.0;" width="493" x="574" y="549.2921"/><line style="stroke:#A80036;stroke-width:1.0;stroke-dasharray:5.0,5.0;" x1="73" x2="73" y1="131.2898" y2="892.7461"/><line style="stroke:#A80036;stroke-width:1.0;stroke-dasharray:5.0,5.0;" x1="240" x2="240" y1="131.2898" y2="892.7461"/><line style="stroke:#A80036;stroke-width:1.0;stroke-dasharray:5.0,5.0;" x1="377" x2="377" y1="131.2898" y2="892.7461"/><line style="stroke:#A80036;stroke-width:1.0;stroke-dasharray:5.0,5.0;" x1="500" x2="500" y1="131.2898" y2="892.7461"/><line style="stroke:#A80036;stroke-width:1.0;stroke-dasharray:5.0,5.0;" x1="695" x2="695" y1="131.2898" y2="892.7461"/><line style="stroke:#A80036;stroke-width:1.0;stroke-dasharray:5.0,5.0;" x1="937" x2="937" y1="131.2898" y2="892.7461"/><text fill="#000000" font-family="sans-serif" font-size="14" lengthAdjust="spacing" text-decoration="underline" textLength="131" x="5" y="127.1878">Hydrogen Producer</text><ellipse cx="73.5" cy="55.2219" fill="#FEFECE" filter="url(#f10fefwd39ne2c)" rx="8" ry="8" style="stroke:#A80036;stroke-width:2.0;"/><path d="M73.5,63.2219 L73.5,90.2219 M60.5,71.2219 L86.5,71.2219 M73.5,90.2219 L60.5,105.2219 M73.5,90.2219 L86.5,105.2219 " fill="none" filter="url(#f10fefwd39ne2c)" style="stroke:#A80036;stroke-width:2.0;"/><text fill="#000000" font-family="sans-serif" font-size="14" lengthAdjust="spacing" text-decoration="underline" textLength="131" x="5" y="906.7121">Hydrogen Producer</text><ellipse cx="73.5" cy="920.8141" fill="#FEFECE" filter="url(#f10fefwd39ne2c)" rx="8" ry="8" style="stroke:#A80036;stroke-width:2.0;"/><path d="M73.5,928.8141 L73.5,955.8141 M60.5,936.8141 L86.5,936.8141 M73.5,955.8141 L60.5,970.8141 M73.5,955.8141 L86.5,970.8141 " fill="none" filter="url(#f10fefwd39ne2c)" style="stroke:#A80036;stroke-width:2.0;"/><rect fill="#FEFECE" filter="url(#f10fefwd39ne2c)" height="33.0679" rx="10" ry="10" style="stroke:#A80036;stroke-width:1.5;" width="172" x="152" y="93.2219"/><text fill="#000000" font-family="sans-serif" font-size="14" lengthAdjust="spacing" text-decoration="underline" textLength="158" x="159" y="115.1878">Carbon Market Website</text><rect fill="#FEFECE" filter="url(#f10fefwd39ne2c)" height="33.0679" rx="10" ry="10" style="stroke:#A80036;stroke-width:1.5;" width="172" x="152" y="891.7461"/><text fill="#000000" font-family="sans-serif" font-size="14" lengthAdjust="spacing" text-decoration="underline" textLength="158" x="159" y="913.7121">Carbon Market Website</text><rect fill="#FEFECE" filter="url(#f10fefwd39ne2c)" height="33.0679" rx="10" ry="10" style="stroke:#A80036;stroke-width:1.5;" width="74" x="338" y="93.2219"/><text fill="#000000" font-family="sans-serif" font-size="14" lengthAdjust="spacing" text-decoration="underline" textLength="60" x="345" y="115.1878">HTTP API</text><rect fill="#FEFECE" filter="url(#f10fefwd39ne2c)" height="33.0679" rx="10" ry="10" style="stroke:#A80036;stroke-width:1.5;" width="74" x="338" y="891.7461"/><text fill="#000000" font-family="sans-serif" font-size="14" lengthAdjust="spacing" text-decoration="underline" textLength="60" x="345" y="913.7121">HTTP API</text><text fill="#000000" font-family="sans-serif" font-size="14" lengthAdjust="spacing" text-decoration="underline" textLength="142" x="426" y="127.1878">Cryptographic Wallet</text><path d="M482,76.2219 C482,66.2219 500,66.2219 500,66.2219 C500,66.2219 518,66.2219 518,76.2219 L518,102.2219 C518,112.2219 500,112.2219 500,112.2219 C500,112.2219 482,112.2219 482,102.2219 L482,76.2219 " fill="#FEFECE" filter="url(#f10fefwd39ne2c)" style="stroke:#000000;stroke-width:1.5;"/><path d="M482,76.2219 C482,86.2219 500,86.2219 500,86.2219 C500,86.2219 518,86.2219 518,76.2219 " fill="none" style="stroke:#000000;stroke-width:1.5;"/><text fill="#000000" font-family="sans-serif" font-size="14" lengthAdjust="spacing" text-decoration="underline" textLength="142" x="426" y="906.7121">Cryptographic Wallet</text><path d="M482,920.8141 C482,910.8141 500,910.8141 500,910.8141 C500,910.8141 518,910.8141 518,920.8141 L518,946.8141 C518,956.8141 500,956.8141 500,956.8141 C500,956.8141 482,956.8141 482,946.8141 L482,920.8141 " fill="#FEFECE" filter="url(#f10fefwd39ne2c)" style="stroke:#000000;stroke-width:1.5;"/><path d="M482,920.8141 C482,930.8141 500,930.8141 500,930.8141 C500,930.8141 518,930.8141 518,920.8141 " fill="none" style="stroke:#000000;stroke-width:1.5;"/><rect fill="#FEFECE" filter="url(#f10fefwd39ne2c)" height="33.0679" rx="10" ry="10" style="stroke:#A80036;stroke-width:1.5;" width="219" x="584" y="93.2219"/><text fill="#000000" font-family="sans-serif" font-size="14" lengthAdjust="spacing" text-decoration="underline" textLength="205" x="591" y="115.1878">Carbon Market Smart Contract</text><rect fill="#FEFECE" filter="url(#f10fefwd39ne2c)" height="33.0679" rx="10" ry="10" style="stroke:#A80036;stroke-width:1.5;" width="219" x="584" y="891.7461"/><text fill="#000000" font-family="sans-serif" font-size="14" lengthAdjust="spacing" text-decoration="underline" textLength="205" x="591" y="913.7121">Carbon Market Smart Contract</text><text fill="#000000" font-family="sans-serif" font-size="14" lengthAdjust="spacing" text-decoration="underline" textLength="234" x="817" y="127.1878">Carbon Market On Chain Database</text><path d="M919,76.2219 C919,66.2219 937,66.2219 937,66.2219 C937,66.2219 955,66.2219 955,76.2219 L955,102.2219 C955,112.2219 937,112.2219 937,112.2219 C937,112.2219 919,112.2219 919,102.2219 L919,76.2219 " fill="#FEFECE" filter="url(#f10fefwd39ne2c)" style="stroke:#000000;stroke-width:1.5;"/><path d="M919,76.2219 C919,86.2219 937,86.2219 937,86.2219 C937,86.2219 955,86.2219 955,76.2219 " fill="none" style="stroke:#000000;stroke-width:1.5;"/><text fill="#000000" font-family="sans-serif" font-size="14" lengthAdjust="spacing" text-decoration="underline" textLength="234" x="817" y="906.7121">Carbon Market On Chain Database</text><path d="M919,920.8141 C919,910.8141 937,910.8141 937,910.8141 C937,910.8141 955,910.8141 955,920.8141 L955,946.8141 C955,956.8141 937,956.8141 937,956.8141 C937,956.8141 919,956.8141 919,946.8141 L919,920.8141 " fill="#FEFECE" filter="url(#f10fefwd39ne2c)" style="stroke:#000000;stroke-width:1.5;"/><path d="M919,920.8141 C919,930.8141 937,930.8141 937,930.8141 C937,930.8141 955,930.8141 955,920.8141 " fill="none" style="stroke:#000000;stroke-width:1.5;"/><rect fill="#FFFFFF" filter="url(#f10fefwd39ne2c)" height="709.7504" style="stroke:#A80036;stroke-width:1.0;" width="10" x="235" y="164.9958"/><rect fill="#FFFFFF" filter="url(#f10fefwd39ne2c)" height="610.9263" style="stroke:#A80036;stroke-width:1.0;" width="10" x="372" y="214.4078"/><rect fill="#FFFFFF" filter="url(#f10fefwd39ne2c)" height="49.412" style="stroke:#A80036;stroke-width:1.0;" width="10" x="495" y="263.8199"/><rect fill="#FFFFFF" filter="url(#f10fefwd39ne2c)" height="333.1601" style="stroke:#A80036;stroke-width:1.0;" width="10" x="690.5" y="380.3499"/><rect fill="#FFFFFF" filter="url(#f10fefwd39ne2c)" height="67.118" style="stroke:#A80036;stroke-width:1.0;" width="10" x="932" y="474.174"/><rect fill="#FFFFFF" filter="url(#f10fefwd39ne2c)" height="31.706" style="stroke:#A80036;stroke-width:1.0;" width="10" x="932" y="643.098"/><polygon fill="#A80036" points="223,160.9958,233,164.9958,223,168.9958,227,164.9958" style="stroke:#A80036;stroke-width:1.0;"/><line style="stroke:#A80036;stroke-width:2.0;" x1="73.5" x2="229" y1="164.9958" y2="164.9958"/><text fill="#000000" font-family="sans-serif" font-size="13" lengthAdjust="spacing" textLength="88" x="80.5" y="159.1868">Retrieve Offers</text><polygon fill="#A80036" points="360,210.4078,370,214.4078,360,218.4078,364,214.4078" style="stroke:#A80036;stroke-width:1.0;"/><line style="stroke:#A80036;stroke-width:2.0;" x1="245" x2="366" y1="214.4078" y2="214.4078"/><text fill="#000000" font-family="sans-serif" font-size="13" lengthAdjust="spacing" textLength="54" x="252" y="190.8928">Get Offer</text><text fill="#000000" font-family="sans-serif" font-size="13" lengthAdjust="spacing" textLength="49" x="252" y="208.5988">Request</text><polygon fill="#A80036" points="483,259.8199,493,263.8199,483,267.8199,487,263.8199" style="stroke:#A80036;stroke-width:1.0;"/><line style="stroke:#A80036;stroke-width:2.0;" x1="382" x2="489" y1="263.8199" y2="263.8199"/><text fill="#000000" font-family="sans-serif" font-size="13" lengthAdjust="spacing" textLength="62" x="389" y="240.3048">Get admin</text><text fill="#000000" font-family="sans-serif" font-size="13" lengthAdjust="spacing" textLength="65" x="389" y="258.0109">credentials</text><polygon fill="#A80036" points="393,309.2319,383,313.2319,393,317.2319,389,313.2319" style="stroke:#A80036;stroke-width:1.0;"/><line style="stroke:#A80036;stroke-width:2.0;" x1="387" x2="499" y1="313.2319" y2="313.2319"/><text fill="#000000" font-family="sans-serif" font-size="13" lengthAdjust="spacing" textLength="41" x="399" y="289.7169">Return</text><text fill="#000000" font-family="sans-serif" font-size="13" lengthAdjust="spacing" textLength="65" x="399" y="307.4229">credentials</text><polygon fill="#A80036" points="678.5,376.3499,688.5,380.3499,678.5,384.3499,682.5,380.3499" style="stroke:#A80036;stroke-width:1.0;"/><line style="stroke:#A80036;stroke-width:2.0;" x1="382" x2="684.5" y1="380.3499" y2="380.3499"/><text fill="#000000" font-family="sans-serif" font-size="13" lengthAdjust="spacing" textLength="49" x="389" y="339.1289">Request</text><text fill="#000000" font-family="sans-serif" font-size="13" lengthAdjust="spacing" textLength="87" x="389" y="356.8349">observation of</text><text fill="#000000" font-family="sans-serif" font-size="13" lengthAdjust="spacing" textLength="34" x="389" y="374.5409">offers</text><path d="M584,395.3499 L637,395.3499 L637,404.3499 L627,414.3499 L574,414.3499 L574,405.3499 " fill="#EEEEEE" style="stroke:#000000;stroke-width:1.0;"/><rect fill="none" height="287.4541" rx="10" ry="10" style="stroke:#000000;stroke-width:2.0;" width="493" x="574" y="395.3499"/><text fill="#000000" font-family="sans-serif" font-size="13" font-weight="bold" lengthAdjust="spacing" textLength="18" x="589" y="410.247">alt</text><text fill="#000000" font-family="sans-serif" font-size="11" font-weight="bold" lengthAdjust="spacing" textLength="191" x="652" y="409.1089">[Carbon Reputation Filter Present]</text><polygon fill="#A80036" points="920,470.174,930,474.174,920,478.174,924,474.174" style="stroke:#A80036;stroke-width:1.0;"/><line style="stroke:#A80036;stroke-width:2.0;" x1="700.5" x2="926" y1="474.174" y2="474.174"/><text fill="#000000" font-family="sans-serif" font-size="13" lengthAdjust="spacing" textLength="86" x="707.5" y="432.953">Perform Index</text><text fill="#000000" font-family="sans-serif" font-size="13" lengthAdjust="spacing" textLength="84" x="707.5" y="450.659">Query Sorting</text><text fill="#000000" font-family="sans-serif" font-size="13" lengthAdjust="spacing" textLength="57" x="707.5" y="468.365">(warmed)</text><polygon fill="#A80036" points="711.5,537.2921,701.5,541.2921,711.5,545.2921,707.5,541.2921" style="stroke:#A80036;stroke-width:1.0;"/><line style="stroke:#A80036;stroke-width:2.0;" x1="705.5" x2="936" y1="541.2921" y2="541.2921"/><text fill="#000000" font-family="sans-serif" font-size="13" lengthAdjust="spacing" textLength="76" x="717.5" y="500.071">Offer Results</text><text fill="#000000" font-family="sans-serif" font-size="13" lengthAdjust="spacing" textLength="69" x="717.5" y="517.777">Sorted with</text><text fill="#000000" font-family="sans-serif" font-size="13" lengthAdjust="spacing" textLength="67" x="717.5" y="535.4831">Reputation</text><line style="stroke:#000000;stroke-width:1.0;stroke-dasharray:2.0,2.0;" x1="574" x2="1067" y1="550.2921" y2="550.2921"/><text fill="#000000" font-family="sans-serif" font-size="11" font-weight="bold" lengthAdjust="spacing" textLength="135" x="579" y="562.051">[Normal Offer Retrieval]</text><polygon fill="#A80036" points="920,639.098,930,643.098,920,647.098,924,643.098" style="stroke:#A80036;stroke-width:1.0;"/><line style="stroke:#A80036;stroke-width:2.0;" x1="700.5" x2="926" y1="643.098" y2="643.098"/><text fill="#000000" font-family="sans-serif" font-size="13" lengthAdjust="spacing" textLength="86" x="707.5" y="584.171">Perform Index</text><text fill="#000000" font-family="sans-serif" font-size="13" lengthAdjust="spacing" textLength="58" x="707.5" y="601.877">Query No</text><text fill="#000000" font-family="sans-serif" font-size="13" lengthAdjust="spacing" textLength="44" x="707.5" y="619.583">Sorting</text><text fill="#000000" font-family="sans-serif" font-size="13" lengthAdjust="spacing" textLength="57" x="707.5" y="637.289">(warmed)</text><polygon fill="#A80036" points="711.5,670.804,701.5,674.804,711.5,678.804,707.5,674.804" style="stroke:#A80036;stroke-width:1.0;"/><line style="stroke:#A80036;stroke-width:2.0;" x1="705.5" x2="936" y1="674.804" y2="674.804"/><text fill="#000000" font-family="sans-serif" font-size="13" lengthAdjust="spacing" textLength="76" x="717.5" y="668.995">Offer Results</text><polygon fill="#A80036" points="393,709.51,383,713.51,393,717.51,389,713.51" style="stroke:#A80036;stroke-width:1.0;"/><line style="stroke:#A80036;stroke-width:2.0;" x1="387" x2="694.5" y1="713.51" y2="713.51"/><text fill="#000000" font-family="sans-serif" font-size="13" lengthAdjust="spacing" textLength="78" x="399" y="707.701">Return offers</text><line style="stroke:#A80036;stroke-width:2.0;" x1="382" x2="424" y1="780.6281" y2="780.6281"/><line style="stroke:#A80036;stroke-width:2.0;" x1="424" x2="424" y1="780.6281" y2="793.6281"/><line style="stroke:#A80036;stroke-width:2.0;" x1="383" x2="424" y1="793.6281" y2="793.6281"/><polygon fill="#A80036" points="393,789.6281,383,793.6281,393,797.6281,389,793.6281" style="stroke:#A80036;stroke-width:1.0;"/><text fill="#000000" font-family="sans-serif" font-size="13" lengthAdjust="spacing" textLength="87" x="389" y="739.4071">Close Gateway</text><text fill="#000000" font-family="sans-serif" font-size="13" lengthAdjust="spacing" textLength="57" x="389" y="757.1131">with User</text><text fill="#000000" font-family="sans-serif" font-size="13" lengthAdjust="spacing" textLength="60" x="389" y="774.8191">Certificate</text><polygon fill="#A80036" points="256,821.3341,246,825.3341,256,829.3341,252,825.3341" style="stroke:#A80036;stroke-width:1.0;"/><line style="stroke:#A80036;stroke-width:2.0;" x1="250" x2="376" y1="825.3341" y2="825.3341"/><text fill="#000000" font-family="sans-serif" font-size="13" lengthAdjust="spacing" textLength="78" x="262" y="819.5251">Return offers</text><polygon fill="#A80036" points="84.5,870.7461,74.5,874.7461,84.5,878.7461,80.5,874.7461" style="stroke:#A80036;stroke-width:1.0;"/><line style="stroke:#A80036;stroke-width:2.0;" x1="78.5" x2="239" y1="874.7461" y2="874.7461"/><text fill="#000000" font-family="sans-serif" font-size="13" lengthAdjust="spacing" textLength="50" x="90.5" y="851.2311">Observe</text><text fill="#000000" font-family="sans-serif" font-size="13" lengthAdjust="spacing" textLength="89" x="90.5" y="868.9371">available offers</text><!--MD5=[f0cfaca4e32f21c522fad599bebb3367]
@startuml GetOffersNo
skinparam sequenceArrowThickness 2
skinparam roundcorner 20
skinparam maxmessagesize 100
skinparam sequenceParticipant underline
title Carboncoin Offer Retrieval

actor "Hydrogen Producer" as User
participant "Carbon Market Website" as Website
participant "HTTP API" as API
database "Cryptographic Wallet" as Wallet
box "Carbon Market Blockchain Channel" #LightBlue
participant "Carbon Market Smart Contract" as CMSC 
database "Carbon Market On Chain Database" as CMJD

User -> Website: Retrieve Offers
activate Website 

Website -> API: Get Offer Request
activate API 

API -> Wallet: Get admin credentials
activate Wallet

Wallet -> API: Return credentials
deactivate Wallet

API -> CMSC: Request observation of offers
activate CMSC

alt Carbon Reputation Filter Present
    CMSC -> CMJD : Perform Index Query Sorting (warmed)
    activate CMJD
    CMJD -> CMSC: Offer Results Sorted with Reputation
    deactivate CMJD
else Normal Offer Retrieval
    CMSC -> CMJD: Perform Index Query No Sorting (warmed)
    activate CMJD
    CMJD -> CMSC: Offer Results
    deactivate CMJD
end

CMSC -> API: Return offers
deactivate CMSC

API -> API: Close Gateway with User Certificate
API -> Website: Return offers
deactivate API
Website -> User: Observe available offers 
deactivate Website

@enduml

PlantUML version 1.2021.7(Sun May 23 22:40:07 AEST 2021)
(GPL source distribution)
Java Runtime: OpenJDK Runtime Environment
JVM: OpenJDK 64-Bit Server VM
Default Encoding: UTF-8
Language: en
Country: US
--></g></svg>