<?xml version="1.0" encoding="UTF-8" standalone="no"?><svg xmlns="http://www.w3.org/2000/svg" xmlns:xlink="http://www.w3.org/1999/xlink" contentScriptType="application/ecmascript" contentStyleType="text/css" height="962px" preserveAspectRatio="none" style="width:1401px;height:962px;background:#FFFFFF;" version="1.1" viewBox="0 0 1401 962" width="1401px" zoomAndPan="magnify"><defs><filter height="300%" id="fiyo1oqo1twxz" width="300%" x="-1" y="-1"><feGaussianBlur result="blurOut" stdDeviation="2.0"/><feColorMatrix in="blurOut" result="blurOut2" type="matrix" values="0 0 0 0 0 0 0 0 0 0 0 0 0 0 0 0 0 0 .4 0"/><feOffset dx="4.0" dy="4.0" in="blurOut2" result="blurOut3"/><feBlend in="SourceGraphic" in2="blurOut3" mode="normal"/></filter></defs><g><text fill="#000000" font-family="sans-serif" font-size="18" lengthAdjust="spacing" textLength="224" x="583.5" y="31.2419">Carboncoin Offer Retrieval</text><rect fill="#ADD8E6" height="911.7284" rx="10" ry="10" style="stroke:#A80036;stroke-width:1.0;" width="481" x="580" y="44.5158"/><text fill="#000000" font-family="sans-serif" font-size="13" font-weight="bold" lengthAdjust="spacing" textLength="232" x="704.5" y="58.4129">Carbon Market Blockchain Channel</text><rect fill="#FFFFFF" filter="url(#fiyo1oqo1twxz)" height="666.4745" style="stroke:#A80036;stroke-width:1.0;" width="10" x="235" y="182.7018"/><rect fill="#FFFFFF" filter="url(#fiyo1oqo1twxz)" height="549.9444" style="stroke:#A80036;stroke-width:1.0;" width="10" x="372" y="232.1138"/><rect fill="#FFFFFF" filter="url(#fiyo1oqo1twxz)" height="49.412" style="stroke:#A80036;stroke-width:1.0;" width="10" x="495" y="299.2319"/><rect fill="#FFFFFF" filter="url(#fiyo1oqo1twxz)" height="219.0602" style="stroke:#A80036;stroke-width:1.0;" width="10" x="690.5" y="415.762"/><rect fill="#FFFFFF" filter="url(#fiyo1oqo1twxz)" height="49.412" style="stroke:#A80036;stroke-width:1.0;" width="10" x="932" y="535.9981"/><line style="stroke:#A80036;stroke-width:1.0;stroke-dasharray:5.0,5.0;" x1="73" x2="73" y1="131.2898" y2="867.1763"/><line style="stroke:#A80036;stroke-width:1.0;stroke-dasharray:5.0,5.0;" x1="240" x2="240" y1="131.2898" y2="867.1763"/><line style="stroke:#A80036;stroke-width:1.0;stroke-dasharray:5.0,5.0;" x1="377" x2="377" y1="131.2898" y2="867.1763"/><line style="stroke:#A80036;stroke-width:1.0;stroke-dasharray:5.0,5.0;" x1="500" x2="500" y1="131.2898" y2="867.1763"/><line style="stroke:#A80036;stroke-width:1.0;stroke-dasharray:5.0,5.0;" x1="695" x2="695" y1="131.2898" y2="867.1763"/><line style="stroke:#A80036;stroke-width:1.0;stroke-dasharray:5.0,5.0;" x1="937" x2="937" y1="131.2898" y2="867.1763"/><text fill="#000000" font-family="sans-serif" font-size="14" lengthAdjust="spacing" text-decoration="underline" textLength="131" x="5" y="127.1878">Hydrogen Producer</text><ellipse cx="73.5" cy="55.2219" fill="#FEFECE" filter="url(#fiyo1oqo1twxz)" rx="8" ry="8" style="stroke:#A80036;stroke-width:2.0;"/><path d="M73.5,63.2219 L73.5,90.2219 M60.5,71.2219 L86.5,71.2219 M73.5,90.2219 L60.5,105.2219 M73.5,90.2219 L86.5,105.2219 " fill="none" filter="url(#fiyo1oqo1twxz)" style="stroke:#A80036;stroke-width:2.0;"/><text fill="#000000" font-family="sans-serif" font-size="14" lengthAdjust="spacing" text-decoration="underline" textLength="131" x="5" y="881.1422">Hydrogen Producer</text><ellipse cx="73.5" cy="895.2442" fill="#FEFECE" filter="url(#fiyo1oqo1twxz)" rx="8" ry="8" style="stroke:#A80036;stroke-width:2.0;"/><path d="M73.5,903.2442 L73.5,930.2442 M60.5,911.2442 L86.5,911.2442 M73.5,930.2442 L60.5,945.2442 M73.5,930.2442 L86.5,945.2442 " fill="none" filter="url(#fiyo1oqo1twxz)" style="stroke:#A80036;stroke-width:2.0;"/><rect fill="#FEFECE" filter="url(#fiyo1oqo1twxz)" height="33.0679" rx="10" ry="10" style="stroke:#A80036;stroke-width:1.5;" width="172" x="152" y="93.2219"/><text fill="#000000" font-family="sans-serif" font-size="14" lengthAdjust="spacing" text-decoration="underline" textLength="158" x="159" y="115.1878">Carbon Market Website</text><rect fill="#FEFECE" filter="url(#fiyo1oqo1twxz)" height="33.0679" rx="10" ry="10" style="stroke:#A80036;stroke-width:1.5;" width="172" x="152" y="866.1763"/><text fill="#000000" font-family="sans-serif" font-size="14" lengthAdjust="spacing" text-decoration="underline" textLength="158" x="159" y="888.1422">Carbon Market Website</text><rect fill="#FEFECE" filter="url(#fiyo1oqo1twxz)" height="33.0679" rx="10" ry="10" style="stroke:#A80036;stroke-width:1.5;" width="74" x="338" y="93.2219"/><text fill="#000000" font-family="sans-serif" font-size="14" lengthAdjust="spacing" text-decoration="underline" textLength="60" x="345" y="115.1878">HTTP API</text><rect fill="#FEFECE" filter="url(#fiyo1oqo1twxz)" height="33.0679" rx="10" ry="10" style="stroke:#A80036;stroke-width:1.5;" width="74" x="338" y="866.1763"/><text fill="#000000" font-family="sans-serif" font-size="14" lengthAdjust="spacing" text-decoration="underline" textLength="60" x="345" y="888.1422">HTTP API</text><text fill="#000000" font-family="sans-serif" font-size="14" lengthAdjust="spacing" text-decoration="underline" textLength="142" x="426" y="127.1878">Cryptographic Wallet</text><path d="M482,76.2219 C482,66.2219 500,66.2219 500,66.2219 C500,66.2219 518,66.2219 518,76.2219 L518,102.2219 C518,112.2219 500,112.2219 500,112.2219 C500,112.2219 482,112.2219 482,102.2219 L482,76.2219 " fill="#FEFECE" filter="url(#fiyo1oqo1twxz)" style="stroke:#000000;stroke-width:1.5;"/><path d="M482,76.2219 C482,86.2219 500,86.2219 500,86.2219 C500,86.2219 518,86.2219 518,76.2219 " fill="none" style="stroke:#000000;stroke-width:1.5;"/><text fill="#000000" font-family="sans-serif" font-size="14" lengthAdjust="spacing" text-decoration="underline" textLength="142" x="426" y="881.1422">Cryptographic Wallet</text><path d="M482,895.2442 C482,885.2442 500,885.2442 500,885.2442 C500,885.2442 518,885.2442 518,895.2442 L518,921.2442 C518,931.2442 500,931.2442 500,931.2442 C500,931.2442 482,931.2442 482,921.2442 L482,895.2442 " fill="#FEFECE" filter="url(#fiyo1oqo1twxz)" style="stroke:#000000;stroke-width:1.5;"/><path d="M482,895.2442 C482,905.2442 500,905.2442 500,905.2442 C500,905.2442 518,905.2442 518,895.2442 " fill="none" style="stroke:#000000;stroke-width:1.5;"/><rect fill="#FEFECE" filter="url(#fiyo1oqo1twxz)" height="33.0679" rx="10" ry="10" style="stroke:#A80036;stroke-width:1.5;" width="219" x="584" y="93.2219"/><text fill="#000000" font-family="sans-serif" font-size="14" lengthAdjust="spacing" text-decoration="underline" textLength="205" x="591" y="115.1878">Carbon Market Smart Contract</text><rect fill="#FEFECE" filter="url(#fiyo1oqo1twxz)" height="33.0679" rx="10" ry="10" style="stroke:#A80036;stroke-width:1.5;" width="219" x="584" y="866.1763"/><text fill="#000000" font-family="sans-serif" font-size="14" lengthAdjust="spacing" text-decoration="underline" textLength="205" x="591" y="888.1422">Carbon Market Smart Contract</text><text fill="#000000" font-family="sans-serif" font-size="14" lengthAdjust="spacing" text-decoration="underline" textLength="234" x="817" y="127.1878">Carbon Market On Chain Database</text><path d="M919,76.2219 C919,66.2219 937,66.2219 937,66.2219 C937,66.2219 955,66.2219 955,76.2219 L955,102.2219 C955,112.2219 937,112.2219 937,112.2219 C937,112.2219 919,112.2219 919,102.2219 L919,76.2219 " fill="#FEFECE" filter="url(#fiyo1oqo1twxz)" style="stroke:#000000;stroke-width:1.5;"/><path d="M919,76.2219 C919,86.2219 937,86.2219 937,86.2219 C937,86.2219 955,86.2219 955,76.2219 " fill="none" style="stroke:#000000;stroke-width:1.5;"/><text fill="#000000" font-family="sans-serif" font-size="14" lengthAdjust="spacing" text-decoration="underline" textLength="234" x="817" y="881.1422">Carbon Market On Chain Database</text><path d="M919,895.2442 C919,885.2442 937,885.2442 937,885.2442 C937,885.2442 955,885.2442 955,895.2442 L955,921.2442 C955,931.2442 937,931.2442 937,931.2442 C937,931.2442 919,931.2442 919,921.2442 L919,895.2442 " fill="#FEFECE" filter="url(#fiyo1oqo1twxz)" style="stroke:#000000;stroke-width:1.5;"/><path d="M919,895.2442 C919,905.2442 937,905.2442 937,905.2442 C937,905.2442 955,905.2442 955,895.2442 " fill="none" style="stroke:#000000;stroke-width:1.5;"/><rect fill="#FFFFFF" filter="url(#fiyo1oqo1twxz)" height="666.4745" style="stroke:#A80036;stroke-width:1.0;" width="10" x="235" y="182.7018"/><rect fill="#FFFFFF" filter="url(#fiyo1oqo1twxz)" height="549.9444" style="stroke:#A80036;stroke-width:1.0;" width="10" x="372" y="232.1138"/><rect fill="#FFFFFF" filter="url(#fiyo1oqo1twxz)" height="49.412" style="stroke:#A80036;stroke-width:1.0;" width="10" x="495" y="299.2319"/><rect fill="#FFFFFF" filter="url(#fiyo1oqo1twxz)" height="219.0602" style="stroke:#A80036;stroke-width:1.0;" width="10" x="690.5" y="415.762"/><rect fill="#FFFFFF" filter="url(#fiyo1oqo1twxz)" height="49.412" style="stroke:#A80036;stroke-width:1.0;" width="10" x="932" y="535.9981"/><polygon fill="#A80036" points="223,178.7018,233,182.7018,223,186.7018,227,182.7018" style="stroke:#A80036;stroke-width:1.0;"/><line style="stroke:#A80036;stroke-width:2.0;" x1="73.5" x2="229" y1="182.7018" y2="182.7018"/><text fill="#000000" font-family="sans-serif" font-size="13" lengthAdjust="spacing" textLength="49" x="80.5" y="159.1868">Retrieve</text><text fill="#000000" font-family="sans-serif" font-size="13" lengthAdjust="spacing" textLength="36" x="80.5" y="176.8928">Offers</text><polygon fill="#A80036" points="360,228.1138,370,232.1138,360,236.1138,364,232.1138" style="stroke:#A80036;stroke-width:1.0;"/><line style="stroke:#A80036;stroke-width:2.0;" x1="245" x2="366" y1="232.1138" y2="232.1138"/><text fill="#000000" font-family="sans-serif" font-size="13" lengthAdjust="spacing" textLength="54" x="252" y="208.5988">Get Offer</text><text fill="#000000" font-family="sans-serif" font-size="13" lengthAdjust="spacing" textLength="49" x="252" y="226.3048">Request</text><polygon fill="#A80036" points="483,295.2319,493,299.2319,483,303.2319,487,299.2319" style="stroke:#A80036;stroke-width:1.0;"/><line style="stroke:#A80036;stroke-width:2.0;" x1="382" x2="489" y1="299.2319" y2="299.2319"/><text fill="#000000" font-family="sans-serif" font-size="13" lengthAdjust="spacing" textLength="21" x="389" y="258.0109">Get</text><text fill="#000000" font-family="sans-serif" font-size="13" lengthAdjust="spacing" textLength="38" x="389" y="275.7169">admin</text><text fill="#000000" font-family="sans-serif" font-size="13" lengthAdjust="spacing" textLength="65" x="389" y="293.4229">credentials</text><polygon fill="#A80036" points="393,344.6439,383,348.6439,393,352.6439,389,348.6439" style="stroke:#A80036;stroke-width:1.0;"/><line style="stroke:#A80036;stroke-width:2.0;" x1="387" x2="499" y1="348.6439" y2="348.6439"/><text fill="#000000" font-family="sans-serif" font-size="13" lengthAdjust="spacing" textLength="41" x="399" y="325.1289">Return</text><text fill="#000000" font-family="sans-serif" font-size="13" lengthAdjust="spacing" textLength="65" x="399" y="342.8349">credentials</text><polygon fill="#A80036" points="678.5,411.762,688.5,415.762,678.5,419.762,682.5,415.762" style="stroke:#A80036;stroke-width:1.0;"/><line style="stroke:#A80036;stroke-width:2.0;" x1="382" x2="684.5" y1="415.762" y2="415.762"/><text fill="#000000" font-family="sans-serif" font-size="13" lengthAdjust="spacing" textLength="49" x="389" y="374.5409">Request</text><text fill="#000000" font-family="sans-serif" font-size="13" lengthAdjust="spacing" textLength="72" x="389" y="392.247">observation</text><text fill="#000000" font-family="sans-serif" font-size="13" lengthAdjust="spacing" textLength="49" x="389" y="409.953">of offers</text><polygon fill="#A80036" points="920,531.9981,930,535.9981,920,539.9981,924,535.9981" style="stroke:#A80036;stroke-width:1.0;"/><line style="stroke:#A80036;stroke-width:2.0;" x1="700.5" x2="926" y1="535.9981" y2="535.9981"/><text fill="#000000" font-family="sans-serif" font-size="13" lengthAdjust="spacing" textLength="49" x="707.5" y="441.659">Perform</text><text fill="#000000" font-family="sans-serif" font-size="13" lengthAdjust="spacing" textLength="34" x="707.5" y="459.365">Index</text><text fill="#000000" font-family="sans-serif" font-size="13" lengthAdjust="spacing" textLength="37" x="707.5" y="477.071">Query</text><text fill="#000000" font-family="sans-serif" font-size="13" lengthAdjust="spacing" textLength="53" x="707.5" y="494.777">(warmed</text><text fill="#000000" font-family="sans-serif" font-size="13" lengthAdjust="spacing" textLength="51" x="707.5" y="512.4831">on block</text><text fill="#000000" font-family="sans-serif" font-size="13" lengthAdjust="spacing" textLength="23" x="707.5" y="530.1891">cut)</text><path d="M942,451.468 L942,511.468 A10,10 0 0 0 952,521.468 L1372,521.468 A10,10 0 0 0 1382,511.468 L1382,451.468 L1372,441.468 L952,441.468 A10,10 0 0 0 942,451.468 " fill="#FBFB77" filter="url(#fiyo1oqo1twxz)" style="stroke:#A80036;stroke-width:1.0;"/><path d="M1372,441.468 L1372,446.468 A5,5 0 0 0 1377,451.468 L1382,451.468 L1372,441.468 " fill="#FBFB77" style="stroke:#A80036;stroke-width:1.0;"/><text fill="#000000" font-family="sans-serif" font-size="13" lengthAdjust="spacing" textLength="408" x="948" y="460.365">Whenever Hyperledger cuts a new block, an offer index is warmed to</text><text fill="#000000" font-family="sans-serif" font-size="13" lengthAdjust="spacing" textLength="282" x="948" y="478.071">reflect the latest information on the blockchain.</text><text fill="#000000" font-family="sans-serif" font-size="13" lengthAdjust="spacing" textLength="416" x="948" y="495.777">Such a feature strikes the perfect trade-off between the most accurate</text><text fill="#000000" font-family="sans-serif" font-size="13" lengthAdjust="spacing" textLength="380" x="948" y="513.4831">financial information with on chain smart contract performance.</text><polygon fill="#A80036" points="711.5,581.4101,701.5,585.4101,711.5,589.4101,707.5,585.4101" style="stroke:#A80036;stroke-width:1.0;"/><line style="stroke:#A80036;stroke-width:2.0;" x1="705.5" x2="936" y1="585.4101" y2="585.4101"/><text fill="#000000" font-family="sans-serif" font-size="13" lengthAdjust="spacing" textLength="30" x="717.5" y="561.8951">Offer</text><text fill="#000000" font-family="sans-serif" font-size="13" lengthAdjust="spacing" textLength="43" x="717.5" y="579.6011">Results</text><polygon fill="#A80036" points="393,630.8221,383,634.8221,393,638.8221,389,634.8221" style="stroke:#A80036;stroke-width:1.0;"/><line style="stroke:#A80036;stroke-width:2.0;" x1="387" x2="694.5" y1="634.8221" y2="634.8221"/><text fill="#000000" font-family="sans-serif" font-size="13" lengthAdjust="spacing" textLength="41" x="399" y="611.3071">Return</text><text fill="#000000" font-family="sans-serif" font-size="13" lengthAdjust="spacing" textLength="34" x="399" y="629.0131">offers</text><line style="stroke:#A80036;stroke-width:2.0;" x1="382" x2="424" y1="719.6462" y2="719.6462"/><line style="stroke:#A80036;stroke-width:2.0;" x1="424" x2="424" y1="719.6462" y2="732.6462"/><line style="stroke:#A80036;stroke-width:2.0;" x1="383" x2="424" y1="732.6462" y2="732.6462"/><polygon fill="#A80036" points="393,728.6462,383,732.6462,393,736.6462,389,732.6462" style="stroke:#A80036;stroke-width:1.0;"/><text fill="#000000" font-family="sans-serif" font-size="13" lengthAdjust="spacing" textLength="32" x="389" y="660.7192">Close</text><text fill="#000000" font-family="sans-serif" font-size="13" lengthAdjust="spacing" textLength="52" x="389" y="678.4252">Gateway</text><text fill="#000000" font-family="sans-serif" font-size="13" lengthAdjust="spacing" textLength="57" x="389" y="696.1312">with User</text><text fill="#000000" font-family="sans-serif" font-size="13" lengthAdjust="spacing" textLength="60" x="389" y="713.8372">Certificate</text><polygon fill="#A80036" points="256,778.0582,246,782.0582,256,786.0582,252,782.0582" style="stroke:#A80036;stroke-width:1.0;"/><line style="stroke:#A80036;stroke-width:2.0;" x1="250" x2="376" y1="782.0582" y2="782.0582"/><text fill="#000000" font-family="sans-serif" font-size="13" lengthAdjust="spacing" textLength="41" x="262" y="758.5432">Return</text><text fill="#000000" font-family="sans-serif" font-size="13" lengthAdjust="spacing" textLength="34" x="262" y="776.2492">offers</text><polygon fill="#A80036" points="84.5,845.1763,74.5,849.1763,84.5,853.1763,80.5,849.1763" style="stroke:#A80036;stroke-width:1.0;"/><line style="stroke:#A80036;stroke-width:2.0;" x1="78.5" x2="239" y1="849.1763" y2="849.1763"/><text fill="#000000" font-family="sans-serif" font-size="13" lengthAdjust="spacing" textLength="50" x="90.5" y="807.9553">Observe</text><text fill="#000000" font-family="sans-serif" font-size="13" lengthAdjust="spacing" textLength="52" x="90.5" y="825.6613">available</text><text fill="#000000" font-family="sans-serif" font-size="13" lengthAdjust="spacing" textLength="34" x="90.5" y="843.3673">offers</text><!--MD5=[4a8b7b7e68156ce1a6316d7bd6bc528d]
@startuml GetOffers
skinparam sequenceArrowThickness 2
skinparam roundcorner 20
skinparam maxmessagesize 60
skinparam sequenceParticipant underline
title Carboncoin Offer Retrieval

actor "Hydrogen Producer" as User
participant "Carbon Market Website" as Website
participant "HTTP API" as API
database "Cryptographic Wallet" as Wallet
box "Carbon Market Blockchain Channel" #LightBlue
participant "Carbon Market Smart Contract" as CMSC 
database "Carbon Market On Chain Database" as CMJD

User -> Website: Retrieve Offers
activate Website 

Website -> API: Get Offer Request
activate API 

API -> Wallet: Get admin credentials
activate Wallet

Wallet -> API: Return credentials
deactivate Wallet

API -> CMSC: Request observation of offers
activate CMSC

CMSC -> CMJD: Perform Index Query (warmed on block cut)
activate CMJD
note right
Whenever Hyperledger cuts a new block, an offer index is warmed to 
reflect the latest information on the blockchain. 
Such a feature strikes the perfect trade-off between the most accurate 
financial information with on chain smart contract performance.
end note
CMJD -> CMSC: Offer Results
deactivate CMJD

CMSC -> API: Return offers
deactivate CMSC

API -> API: Close Gateway with User Certificate
API -> Website: Return offers
deactivate API
Website -> User: Observe available offers 
deactivate Website

@enduml

PlantUML version 1.2021.7(Sun May 23 22:40:07 AEST 2021)
(GPL source distribution)
Java Runtime: OpenJDK Runtime Environment
JVM: OpenJDK 64-Bit Server VM
Default Encoding: UTF-8
Language: en
Country: US
--></g></svg>